<svg xmlns="http://www.w3.org/2000/svg" width="24" height="24" fill="currentColor" viewBox="0 0 24 24">
  <path fill-rule="evenodd" d="M2 3.75C2 2.784 2.784 2 3.75 2h5.5c.966 0 1.75.784 1.75 1.75v16.5A1.75 1.75 0 0 1 9.25 22h-5.5A1.75 1.75 0 0 1 2 20.25zm1.75-.25h5.5a.25.25 0 0 1 .25.25v16.5a.25.25 0 0 1-.25.25h-5.5a.25.25 0 0 1-.25-.25V3.75a.25.25 0 0 1 .25-.25m9.25.25c0-.966.784-1.75 1.75-1.75h5.5c.966 0 1.75.784 1.75 1.75v16.5A1.75 1.75 0 0 1 20.25 22h-5.5A1.75 1.75 0 0 1 13 20.25zm1.75-.25h5.5a.25.25 0 0 1 .25.25v16.5a.25.25 0 0 1-.25.25h-5.5a.25.25 0 0 1-.25-.25V3.75a.25.25 0 0 1 .25-.25"/>
</svg>
