<svg width="830" height="200" fill="none" xmlns="http://www.w3.org/2000/svg">
  <g clip-path="url(#a)" fill="#202020">
    <path d="M76.558 21.909a7.5 7.5 0 0 0-3.702 2.79l-1.228-.861a9 9 0 0 1 4.442-3.348l.488 1.419Z"/>
    <path fill-rule="evenodd" clip-rule="evenodd" d="M79 22.25a6.75 6.75 0 1 0 0 13.5 6.75 6.75 0 0 0 0-13.5Zm.5 3.5a.75.75 0 0 0-1.5 0v3.67l3.607 2.219a.75.75 0 0 0 .786-1.278l-2.893-1.78V25.75Z"/>
    <path d="M86.372 23.838a9 9 0 0 0-4.442-3.348l-.488 1.419a7.5 7.5 0 0 1 3.702 2.79l1.228-.861Z"/>
  </g>
  <g clip-path="url(#b)">
    <path fill-rule="evenodd" clip-rule="evenodd" d="M127.541 21.07a2.143 2.143 0 0 0-1.588.203l.001.001c-.32.179-.589.437-.78.75l-.002.004-5.878 9.764-.006.01a2.125 2.125 0 0 0 .768 2.904c.321.189.686.29 1.059.294h11.77a2.147 2.147 0 0 0 1.06-.293 2.125 2.125 0 0 0 .768-2.905l-5.884-9.774-.002-.004a2.142 2.142 0 0 0-1.286-.954Zm-1.248 9.223a1.003 1.003 0 0 0-.217 1.09A1 1 0 0 0 127 32h.007a1 1 0 1 0 0-2H127a1 1 0 0 0-.707.293Zm1.237-5.073c.141.14.22.331.22.53v2.5a.749.749 0 0 1-1.28.53.749.749 0 0 1-.22-.53v-2.5a.745.745 0 0 1 .463-.692.75.75 0 0 1 .817.162Z" fill="#202020"/>
  </g>
  <path d="M174.75 21a.748.748 0 0 1 .75.75v7.614l2.955-3.129a.751.751 0 0 1 1.284.497.752.752 0 0 1-.194.533l-4.25 4.5a.748.748 0 0 1-.533.235h-.024a.746.746 0 0 1-.51-.211l-.004-.005-.02-.02-4.25-4.499a.747.747 0 0 1-.204-.537.75.75 0 0 1 1.295-.493L174 29.364V21.75a.749.749 0 0 1 .75-.75Zm-5.25 12.5a.748.748 0 0 0-.75.75.749.749 0 0 0 .75.75H180a.748.748 0 0 0 .75-.75.749.749 0 0 0-.75-.75h-10.5ZM222.75 35a.748.748 0 0 1-.75-.75v-7.614l-2.955 3.129a.751.751 0 0 1-1.284-.497.752.752 0 0 1 .194-.533l4.25-4.5a.748.748 0 0 1 .533-.235h.024a.746.746 0 0 1 .51.211l.004.005.02.02 4.25 4.499a.747.747 0 0 1 .204.537.75.75 0 0 1-1.295.493l-2.955-3.129v7.614a.749.749 0 0 1-.75.75ZM228 22.5a.748.748 0 0 0 .75-.75.749.749 0 0 0-.75-.75h-10.5a.748.748 0 0 0-.75.75.749.749 0 0 0 .75.75H228ZM275.75 21a2.25 2.25 0 0 1 2.25 2.25v6.5a2.25 2.25 0 0 1-2.25 2.25h-2.25l-1.887 2.68a.75.75 0 0 1-1.226 0L268.5 32h-2.25a2.25 2.25 0 0 1-2.25-2.25v-6.5a2.25 2.25 0 0 1 2.25-2.25h9.5Z" fill="#202020"/>
  <g clip-path="url(#c)" fill="#202020">
    <path d="M311 22.75c0-.966.784-1.75 1.75-1.75h12.5c.966 0 1.75.784 1.75 1.75v1.5c0 .696-.407 1.297-.996 1.58h-14.008a1.746 1.746 0 0 1-.996-1.58v-1.5Z"/>
    <path fill-rule="evenodd" clip-rule="evenodd" d="M312 27.51h14v5.24a2.25 2.25 0 0 1-2.25 2.25h-9.5a2.25 2.25 0 0 1-2.25-2.25v-5.24Zm5.22 1.71c.14-.141.331-.22.53-.22h2.5a.748.748 0 0 1 .75.75.749.749 0 0 1-.75.75h-2.5a.748.748 0 0 1-.75-.75c0-.199.079-.39.22-.53Z"/>
  </g>
  <path d="M367.5 22.75a.749.749 0 0 0-1.28-.53.749.749 0 0 0-.22.53v8.614l-2.955-3.129a.751.751 0 0 0-1.284.497.752.752 0 0 0 .194.533l4.248 4.498a.746.746 0 0 0 .535.236l.012.001h.012a.743.743 0 0 0 .533-.235l4.25-4.5a.752.752 0 0 0-.041-1.049.748.748 0 0 0-1.049.019l-2.955 3.129V22.75Z" fill="#202020"/>
  <g clip-path="url(#d)">
    <path fill-rule="evenodd" clip-rule="evenodd" d="M416.818 20.21a7.997 7.997 0 0 0-9.483 5.496 7.998 7.998 0 0 0 8.864 10.204 8 8 0 0 0 3.665-1.559.74.74 0 0 0 .304-.5.747.747 0 0 0-1.216-.69A6.5 6.5 0 1 1 421.5 28v1c0 .908-.54 1.5-1.25 1.5-.4 0-.691-.157-.894-.399-.214-.254-.356-.638-.356-1.101v-4.25a.749.749 0 0 0-1.28-.53.749.749 0 0 0-.22.53v.127a4.002 4.002 0 0 0-6.003 1.192 4.003 4.003 0 0 0 .337 4.376 3.999 3.999 0 0 0 6.115.257c.076.128.162.25.258.364.484.577 1.194.934 2.043.934 1.79 0 2.75-1.539 2.75-3v-1a7.996 7.996 0 0 0-6.182-7.79ZM417.5 28a2.5 2.5 0 1 0-4.999-.001A2.5 2.5 0 0 0 417.5 28Z" fill="#202020"/>
  </g>
  <path fill-rule="evenodd" clip-rule="evenodd" d="M457.25 23a2.25 2.25 0 0 0-2.25 2.25v5.5a2.25 2.25 0 0 0 2.25 2.25h8.5a2.25 2.25 0 0 0 2.25-2.25v-5.5a2.25 2.25 0 0 0-2.25-2.25h-8.5Z" fill="#202020"/>
  <path d="M470.5 26.75a.749.749 0 0 0-1.28-.53.749.749 0 0 0-.22.53v2.5a.749.749 0 0 0 1.28.53.749.749 0 0 0 .22-.53v-2.5Z" fill="#202020"/>
  <path fill-rule="evenodd" clip-rule="evenodd" d="M507.608 22h-.858a.748.748 0 0 0-.75.75.749.749 0 0 0 .75.75h.394l.987 2.154c.03.065.03.14.001.205l-2.949 6.685A1.75 1.75 0 0 0 506.784 35h8.432a1.75 1.75 0 0 0 1.6-2.456l-2.948-6.685a.242.242 0 0 1-.021-.103c0-.035.007-.07.022-.102l.987-2.154h.394a.748.748 0 0 0 .75-.75.749.749 0 0 0-.75-.75h-7.642Zm5.598 1.5h-4.412l.7 1.529c.209.455.213.977.01 1.435L508.828 28h4.346l-.678-1.536a1.743 1.743 0 0 1 .01-1.435l.7-1.529ZM552 22.298a2.25 2.25 0 0 1 2.25-2.25h10.25a1.5 1.5 0 0 1 1.5 1.5V34.5a1.5 1.5 0 0 1-1.5 1.5h-10.25a2.25 2.25 0 0 1-2.25-2.25V22.298Zm2.75 9.452c-.69 0-1.25.56-1.25 1.25v.75c0 .414.336.75.75.75h10.25v-2.75h-9.75Z" fill="#202020"/>
  <path d="M606.25 21.486a2.864 2.864 0 0 0-.22-.127c-.384-.202-.795-.284-1.246-.322-.435-.037-.969-.037-1.618-.037h-1.916a2.25 2.25 0 0 0-2.25 2.25v7a2.25 2.25 0 0 0 2.25 2.25h2.069c.805 0 1.047.008 1.254.074h.001c.207.065.401.172.57.316.173.147.318.358.762 1.047l.344.534V21.486ZM607.75 34.47l.344-.533c.444-.69.589-.9.762-1.047a1.64 1.64 0 0 1 .57-.316h.001c.207-.066.449-.074 1.254-.074h2.069a2.25 2.25 0 0 0 2.25-2.25v-7a2.25 2.25 0 0 0-2.25-2.25h-1.916c-.649 0-1.183 0-1.618.037-.451.038-.863.12-1.247.322-.075.04-.148.082-.219.127v12.985Z" fill="#202020"/>
  <g clip-path="url(#e)">
    <path fill-rule="evenodd" clip-rule="evenodd" d="M652.75 21a1.749 1.749 0 0 0-1.75 1.75V24h-1.75a2.25 2.25 0 0 0-2.25 2.25v6.5a2.25 2.25 0 0 0 2.25 2.25h11.5a2.25 2.25 0 0 0 2.25-2.25v-6.5a2.25 2.25 0 0 0-2.25-2.25H659v-1.25a1.747 1.747 0 0 0-1.75-1.75h-4.5Zm4.75 3v-1.25a.25.25 0 0 0-.25-.25h-4.5a.251.251 0 0 0-.25.25V24h5Z" fill="#202020"/>
  </g>
  <path fill-rule="evenodd" clip-rule="evenodd" d="M696.25 20.75A.75.75 0 0 1 697 20h12a.75.75 0 0 1 0 1.5v13h.25a.75.75 0 0 1 0 1.5h-12.5a.75.75 0 0 1 0-1.5h.25v-13a.75.75 0 0 1-.75-.75ZM701 34.5v-2.25c0-.69.56-1.25 1.25-1.25h1.5c.69 0 1.25.56 1.25 1.25v2.25h-4Zm-.854-11.354a.503.503 0 0 0-.146.354v1a.503.503 0 0 0 .5.5h1a.501.501 0 0 0 .5-.5v-1a.503.503 0 0 0-.5-.5h-1a.501.501 0 0 0-.354.146ZM700 27.5a.503.503 0 0 1 .5-.5h1a.501.501 0 0 1 .5.5v1a.503.503 0 0 1-.5.5h-1a.501.501 0 0 1-.5-.5v-1Zm4.146-4.354a.503.503 0 0 0-.146.354v1a.503.503 0 0 0 .5.5h1a.501.501 0 0 0 .5-.5v-1a.503.503 0 0 0-.5-.5h-1a.501.501 0 0 0-.354.146ZM704 27.5a.503.503 0 0 1 .5-.5h1a.501.501 0 0 1 .5.5v1a.503.503 0 0 1-.5.5h-1a.501.501 0 0 1-.5-.5v-1Z" fill="#202020"/>
  <g clip-path="url(#f)" fill="#202020">
    <path d="M751 20a.748.748 0 0 1 .75.75v1a.749.749 0 0 1-1.28.53.749.749 0 0 1-.22-.53v-1A.749.749 0 0 1 751 20Zm5.28 2.22a.751.751 0 0 1 0 1.06l-.707.707a.752.752 0 0 1-1.079.019.757.757 0 0 1-.22-.544.754.754 0 0 1 .239-.535l.707-.707a.75.75 0 0 1 1.06 0Zm-10.56 1.06a.75.75 0 0 1 1.06-1.06l.707.707a.75.75 0 0 1-1.06 1.06l-.707-.707Zm12.78 4.22a.749.749 0 0 1-.75.75h-1a.748.748 0 0 1-.75-.75.749.749 0 0 1 .75-.75h1a.748.748 0 0 1 .75.75Zm-13.25.75a.748.748 0 0 0 .75-.75.749.749 0 0 0-.75-.75h-1a.748.748 0 0 0-.75.75.749.749 0 0 0 .75.75h1Zm4 7a.749.749 0 0 1 .75-.75h2a.748.748 0 0 1 .75.75.749.749 0 0 1-.75.75h-2a.748.748 0 0 1-.75-.75Z"/>
    <path fill-rule="evenodd" clip-rule="evenodd" d="M751 23.5a4.501 4.501 0 0 0-4.5 4.5c0 1.53.926 2.465 1.718 3.264l.2.203c.05.05.081.124.081.208a1.826 1.826 0 0 0 1.826 1.825h1.365c1 0 1.811-.81 1.811-1.81 0-.083.033-.159.088-.213l.067-.066c.836-.819 1.844-1.806 1.844-3.411a4.5 4.5 0 0 0-4.5-4.5Z"/>
  </g>
  <path fill-rule="evenodd" clip-rule="evenodd" d="M76.517 69.188a1.25 1.25 0 0 0-.461.508l-.541 1.093-1.456.124A2.25 2.25 0 0 0 72 73.155v6.595A2.25 2.25 0 0 0 74.25 82h9.5A2.25 2.25 0 0 0 86 79.75v-6.595a2.25 2.25 0 0 0-2.059-2.242l-1.457-.124-.54-1.093a1.25 1.25 0 0 0-1.12-.696h-3.648a1.25 1.25 0 0 0-.66.188ZM79 79.25a2.75 2.75 0 1 0 0-5.5 2.75 2.75 0 0 0 0 5.5Z" fill="#202020"/>
  <path d="M119 71.25a2.25 2.25 0 0 1 2.25-2.25h8a2.25 2.25 0 0 1 2.25 2.25V72h-6.75a3.75 3.75 0 0 0-3.75 3.75v2.736a2.25 2.25 0 0 1-2-2.236v-5Z" fill="#202020"/>
  <path fill-rule="evenodd" clip-rule="evenodd" d="M124.75 73.5a2.25 2.25 0 0 0-2.25 2.25v5a2.25 2.25 0 0 0 2.25 2.25h8a2.25 2.25 0 0 0 2.25-2.25v-5a2.25 2.25 0 0 0-2.25-2.25h-8Zm4 6.75a2 2 0 1 0 0-4 2 2 0 0 0 0 4ZM169.058 82.934l.002-.001.01-.004.037-.017c.218-.096.438-.19.658-.281a21.44 21.44 0 0 1 1.649-.616 5.46 5.46 0 0 1 .678-.176c.049-.008.086-.012.113-.015a6.768 6.768 0 1 0-3.028-3.026c-.003.04-.008.08-.014.119-.044.23-.102.457-.176.679-.172.545-.42 1.17-.618 1.646a30.79 30.79 0 0 1-.28.65l-.017.036-.004.01v.002a.75.75 0 0 0 .99.994ZM514.975 69h.775a2.25 2.25 0 0 1 2.25 2.25v10.5a2.25 2.25 0 0 1-2.25 2.25h-9.5a2.25 2.25 0 0 1-2.25-2.25v-10.5a2.25 2.25 0 0 1 2.25-2.25h.775c.116-.57.62-1 1.225-1h5.5c.605 0 1.11.43 1.225 1Zm-6.475 2v-1.5h5V71h-5Z" fill="#202020"/>
  <path d="M752 68h-5.75a2.25 2.25 0 0 0-2.25 2.25v11.5a2.25 2.25 0 0 0 2.25 2.25h9.5a2.25 2.25 0 0 0 2.25-2.25V74h-5.25a.75.75 0 0 1-.75-.75V68Z" fill="#202020"/>
  <path d="M757.5 72.5h-4v-4l4 4ZM215.659 117.659a2.25 2.25 0 0 1 1.591-.659h4.379a2.25 2.25 0 0 1 1.591.66l1.121 1.12c.141.141.331.22.53.22h3.879a2.25 2.25 0 0 1 2.25 2.25v.25h-16v-2.25c0-.597.237-1.169.659-1.591ZM215 123v5.75a2.25 2.25 0 0 0 2.25 2.25h11.5a2.25 2.25 0 0 0 2.25-2.25V123h-16Z" fill="#202020"/>
  <path fill-rule="evenodd" clip-rule="evenodd" d="M271.302 71.288a3.634 3.634 0 0 0-5.546 4.472c.124.237.112.49.102.61a2.971 2.971 0 0 1-.084.468c-.057.221-.124.44-.2.655.26-.09.52-.17.75-.223a.7.7 0 1 1 .312 1.365c-.34.078-.837.258-1.278.434-.235.094-.469.193-.701.295l-.042.018-.01.005-.003.001a.7.7 0 0 1-.925-.927v-.001l.002-.004.008-.018.03-.07c.153-.345.296-.694.43-1.047.113-.3.211-.592.27-.822.021-.09.034-.157.041-.205a5.036 5.036 0 0 1 1.41-6.171 5.034 5.034 0 0 1 6.33.089.699.699 0 1 1-.896 1.076Z" fill="#202020"/>
  <path fill-rule="evenodd" clip-rule="evenodd" d="M267.75 77.333a5.078 5.078 0 0 1 1.919-3.974 5.082 5.082 0 0 1 7.738 6.195c.006.033.015.077.029.133.05.197.14.453.248.734.087.223.178.443.262.646l.06.146c.049.118.094.23.131.326.03.082.074.2.097.306a.75.75 0 0 1-.734.905c-.169 0-.332-.04-.447-.072a4.819 4.819 0 0 1-.394-.134 20.712 20.712 0 0 1-.606-.248l-.216-.09c-.23-.1-.466-.188-.705-.265a1.617 1.617 0 0 0-.095-.026 5.084 5.084 0 0 1-7.287-4.582Zm9.65 2.16-.001-.012v.013l.001-.001Z" fill="#202020"/>
  <g clip-path="url(#g)" fill="#202020">
    <path d="M322.25 69a.748.748 0 0 1 .75.75.749.749 0 0 1-.75.75h-9a.748.748 0 0 0-.75.75v6.531l.706-.51a.749.749 0 0 1 .88 1.214l-1.896 1.373a.75.75 0 0 1-1.19-.608v-8a2.25 2.25 0 0 1 2.25-2.25h9Z"/>
    <path fill-rule="evenodd" clip-rule="evenodd" d="M317.25 72a2.25 2.25 0 0 0-2.25 2.25v4.534a2.25 2.25 0 0 0 2.25 2.25h6.041l2.52 1.824A.75.75 0 0 0 327 82.25v-8a2.25 2.25 0 0 0-2.25-2.25h-7.5Z"/>
  </g>
  <g clip-path="url(#h)">
    <path fill-rule="evenodd" clip-rule="evenodd" d="M558.204 69.329a5.198 5.198 0 0 1 1.829.005 5.01 5.01 0 0 1 1.697.638 4.56 4.56 0 0 1 1.318 1.196c.352.477.6 1.016.724 1.588.059.27.089.545.092.82a3.252 3.252 0 0 1 2.184 5.547c-.61.61-1.437.952-2.299.952a.75.75 0 0 1 0-1.5 1.751 1.751 0 0 0 0-3.502h-.714a.75.75 0 0 1-.732-.914 2.51 2.51 0 0 0 .003-1.085 2.66 2.66 0 0 0-.465-1.016 3.077 3.077 0 0 0-.887-.802 3.514 3.514 0 0 0-1.19-.447 3.694 3.694 0 0 0-1.3-.003 3.514 3.514 0 0 0-1.192.44c-.724.433-1.204 1.09-1.366 1.812a.75.75 0 0 1-.762.585 2.638 2.638 0 0 0-1.649.492c-.469.339-.794.818-.927 1.35a2.274 2.274 0 0 0 .183 1.589c.253.496.683.9 1.223 1.135a.75.75 0 0 1-.6 1.375 3.975 3.975 0 0 1-1.959-1.828 3.77 3.77 0 0 1-.302-2.634 3.886 3.886 0 0 1 1.503-2.203 4.122 4.122 0 0 1 1.998-.756c.349-.91 1.016-1.684 1.888-2.205a5.021 5.021 0 0 1 1.702-.63Zm.543 5.673a.75.75 0 0 1 .75.75v4.62l.864-.863a.75.75 0 1 1 1.06 1.06l-2.143 2.144a.75.75 0 0 1-1.061 0l-2.144-2.143a.75.75 0 1 1 1.061-1.06l.863.862v-4.62a.75.75 0 0 1 .75-.75Z" fill="#202020"/>
  </g>
  <path d="M647 72.25a2.25 2.25 0 0 1 2.25-2.25h11.5a2.25 2.25 0 0 1 2.25 2.25V73h-16v-.75Z" fill="#202020"/>
  <path fill-rule="evenodd" clip-rule="evenodd" d="M647 75v4.75a2.25 2.25 0 0 0 2.25 2.25h11.5a2.25 2.25 0 0 0 2.25-2.25V75h-16Zm3.75 2a.748.748 0 0 0-.75.75.749.749 0 0 0 .75.75h1.5a.748.748 0 0 0 .75-.75.749.749 0 0 0-.75-.75h-1.5ZM703.5 68.75a.749.749 0 0 0-1.28-.53.749.749 0 0 0-.22.53V70h-.594c-.9 0-1.766.353-2.405.985a3.359 3.359 0 0 0-.001 4.78c.64.632 1.506.985 2.406.985H702v3.75h-2.75a.748.748 0 0 0-.75.75.749.749 0 0 0 .75.75H702v1.25a.749.749 0 0 0 1.28.53.749.749 0 0 0 .22-.53V82h1.094c.9 0 1.766-.353 2.405-.985a3.359 3.359 0 0 0 .001-4.78 3.422 3.422 0 0 0-2.406-.985H703.5V71.5h3.25a.748.748 0 0 0 .75-.75.749.749 0 0 0-.75-.75h-3.25v-1.25ZM702 71.5h-.594c-.508 0-.994.2-1.35.552a1.864 1.864 0 0 0-.556 1.323c0 .494.199.97.555 1.323.357.352.843.552 1.351.552H702V71.5Zm1.5 5.25v3.75h1.094c.508 0 .994-.2 1.35-.552a1.864 1.864 0 0 0 .556-1.323c0-.494-.199-.97-.555-1.323a1.922 1.922 0 0 0-1.351-.552H703.5ZM74.25 116H80v5.25c0 .414.336.75.75.75H86v7.75a2.25 2.25 0 0 1-2.25 2.25h-9.5a2.25 2.25 0 0 1-2.25-2.25v-11.5a2.25 2.25 0 0 1 2.25-2.25ZM77 126a.749.749 0 0 0-.53 1.28c.14.141.331.22.53.22h4a.749.749 0 0 0 .53-1.28.749.749 0 0 0-.53-.22h-4Z" fill="#202020"/>
  <path d="M81.5 120.5h4l-4-4v4Z" fill="#202020"/>
  <path fill-rule="evenodd" clip-rule="evenodd" d="M122.25 116H128v5.25c0 .414.336.75.75.75H134v7.75a2.25 2.25 0 0 1-2.25 2.25h-9.5a2.25 2.25 0 0 1-2.25-2.25v-11.5a2.25 2.25 0 0 1 2.25-2.25Zm5.28 8.22a.747.747 0 0 0-1.06 0 .747.747 0 0 0-.22.53V126H125a.747.747 0 0 0-.53.22.747.747 0 0 0 0 1.06c.14.141.331.22.53.22h1.25v1.25c0 .199.079.39.22.53a.747.747 0 0 0 1.06 0 .747.747 0 0 0 .22-.53v-1.25H129c.199 0 .39-.079.53-.22a.747.747 0 0 0 0-1.06.747.747 0 0 0-.53-.22h-1.25v-1.25a.747.747 0 0 0-.22-.53Z" fill="#202020"/>
  <path d="M129.5 120.5h4l-4-4v4Z" fill="#202020"/>
  <path fill-rule="evenodd" clip-rule="evenodd" d="M265.25 117a2.25 2.25 0 0 0-2.25 2.25v9.5a2.25 2.25 0 0 0 2.25 2.25h11.5a2.25 2.25 0 0 0 2.25-2.25v-7.5a2.25 2.25 0 0 0-2.25-2.25h-3.879a.749.749 0 0 1-.53-.22l-1.121-1.12a2.25 2.25 0 0 0-1.591-.66h-4.379Zm3.75 6.75a.747.747 0 0 0-.53.22.747.747 0 0 0 0 1.06c.14.141.331.22.53.22h4c.199 0 .39-.079.53-.22a.747.747 0 0 0 0-1.06.747.747 0 0 0-.53-.22h-4ZM313.25 117a2.25 2.25 0 0 0-2.25 2.25v9.5a2.25 2.25 0 0 0 2.25 2.25h11.5a2.25 2.25 0 0 0 2.25-2.25v-7.5a2.25 2.25 0 0 0-2.25-2.25h-3.879a.749.749 0 0 1-.53-.22l-1.121-1.12a2.25 2.25 0 0 0-1.591-.66h-4.379Zm6.28 4.97a.747.747 0 0 0-1.06 0 .747.747 0 0 0-.22.53v1.25H317a.747.747 0 0 0-.53.22.747.747 0 0 0 0 1.06c.14.141.331.22.53.22h1.25v1.25c0 .199.079.39.22.53a.747.747 0 0 0 1.06 0 .747.747 0 0 0 .22-.53v-1.25H321c.199 0 .39-.079.53-.22a.747.747 0 0 0 0-1.06.747.747 0 0 0-.53-.22h-1.25v-1.25a.747.747 0 0 0-.22-.53ZM556.75 168c0-.874.303-1.468.702-1.845a2.251 2.251 0 0 1 1.548-.593c.577 0 1.137.205 1.548.593.399.377.702.971.702 1.845h-4.5Zm-1.5 0c0-1.251.447-2.251 1.173-2.936a3.747 3.747 0 0 1 2.577-1.002c.923 0 1.863.327 2.577 1.002.726.685 1.173 1.685 1.173 2.936h.403c.489 0 .906.353.986.836l1.376 8.253a2.5 2.5 0 0 1-2.466 2.911h-8.098a2.5 2.5 0 0 1-2.466-2.911l1.376-8.253a.999.999 0 0 1 .986-.836h.403ZM599.72 165.72a.747.747 0 0 1 .53-.22h1.154a2.252 2.252 0 0 1 2.207 1.813l.037.187h8.805a2.258 2.258 0 0 1 1.727.808 2.256 2.256 0 0 1 .486 1.844l-.727 4a2.25 2.25 0 0 1-2.214 1.848h-6.095a2.25 2.25 0 0 1-2.211-1.833l-.405-2.15-.874-4.413a.753.753 0 0 0-.736-.604h-1.154a.747.747 0 0 1-.53-.22.747.747 0 0 1 0-1.06Z" fill="#202020"/>
  <path d="M605.25 179a1.25 1.25 0 0 0 0-2.5h-.01a1.252 1.252 0 0 0-1.25 1.25 1.252 1.252 0 0 0 1.25 1.25h.01ZM611.75 179a1.25 1.25 0 0 0 0-2.5h-.01a1.252 1.252 0 0 0-1.25 1.25 1.252 1.252 0 0 0 1.25 1.25h.01Z" fill="#202020"/>
  <path fill-rule="evenodd" clip-rule="evenodd" d="M648 166.25c0-.69.56-1.25 1.25-1.25h5.246a2.25 2.25 0 0 1 1.591.66l5.383 5.382a2.25 2.25 0 0 1 0 3.182l-4.246 4.246a2.25 2.25 0 0 1-3.182 0l-5.383-5.384a2.247 2.247 0 0 1-.659-1.59v-5.246Zm3.293 2.043A.997.997 0 0 1 652 168h.006a.997.997 0 0 1 1 1 .997.997 0 0 1-1 1H652a.997.997 0 0 1-1-1c0-.265.105-.52.293-.707ZM699 166.25v.75h-2.25a.747.747 0 0 0-.53.22.747.747 0 0 0 0 1.06c.14.141.331.22.53.22h.25v9.25a2.25 2.25 0 0 0 2.25 2.25h7.5a2.25 2.25 0 0 0 2.25-2.25v-9.25h.25c.199 0 .39-.079.53-.22a.747.747 0 0 0 0-1.06.747.747 0 0 0-.53-.22H707v-.75a2.25 2.25 0 0 0-2.25-2.25h-3.5a2.25 2.25 0 0 0-2.25 2.25Zm1.72-.53a.747.747 0 0 0-.22.53v.75h5v-.75a.747.747 0 0 0-.22-.53.747.747 0 0 0-.53-.22h-3.5a.747.747 0 0 0-.53.22Zm1.06 4.5a.747.747 0 0 0-1.06 0 .747.747 0 0 0-.22.53v5.5c0 .199.079.39.22.53a.747.747 0 0 0 1.06 0 .747.747 0 0 0 .22-.53v-5.5a.747.747 0 0 0-.22-.53Zm3.5 0c.141.14.22.331.22.53v5.5c0 .199-.079.39-.22.53a.747.747 0 0 1-1.06 0 .747.747 0 0 1-.22-.53v-5.5c0-.199.079-.39.22-.53a.747.747 0 0 1 1.06 0ZM747.387 165.694a6.252 6.252 0 0 1 9.078 6.218 6.253 6.253 0 0 1-1.297 3.195l2.612 2.613a.748.748 0 0 1-.23 1.244.764.764 0 0 1-.587-.01.748.748 0 0 1-.243-.174l-2.613-2.612a6.243 6.243 0 0 1-5.624 1.077 6.248 6.248 0 0 1-4.419-6.888 6.249 6.249 0 0 1 3.323-4.663Zm3.393 2.526a.747.747 0 0 0-1.06 0 .747.747 0 0 0-.22.53v1.75h-1.75a.747.747 0 0 0-.53.22.747.747 0 0 0 0 1.06c.14.141.331.22.53.22h1.75v1.75c0 .199.079.39.22.53a.747.747 0 0 0 1.06 0 .747.747 0 0 0 .22-.53V172h1.75c.199 0 .39-.079.53-.22a.747.747 0 0 0 0-1.06.747.747 0 0 0-.53-.22H751v-1.75a.747.747 0 0 0-.22-.53ZM463.74 164.213a2.249 2.249 0 0 0-1.48 0l-4.75 1.653a2.25 2.25 0 0 0-1.51 2.125V172c0 2.05 1.18 3.748 2.451 4.992 1.281 1.256 2.756 2.151 3.572 2.598a2.021 2.021 0 0 0 1.954 0c.816-.448 2.291-1.343 3.573-2.598 1.269-1.244 2.45-2.943 2.45-4.991v-4.01a2.25 2.25 0 0 0-1.51-2.125l-4.75-1.653Zm2.759 5.787a.748.748 0 0 0-1.279-.53l-3.47 3.47-1.47-1.47a.748.748 0 0 0-1.261.536.748.748 0 0 0 .201.524l2 2a.748.748 0 0 0 1.06 0l4-4a.748.748 0 0 0 .219-.53ZM511.74 164.213a2.249 2.249 0 0 0-1.48 0l-4.75 1.653a2.25 2.25 0 0 0-1.51 2.125V172c0 2.05 1.18 3.748 2.451 4.992 1.281 1.256 2.756 2.151 3.572 2.598a2.021 2.021 0 0 0 1.954 0c.816-.448 2.291-1.343 3.573-2.598 1.269-1.244 2.45-2.943 2.45-4.991v-4.01a2.25 2.25 0 0 0-1.51-2.125l-4.75-1.653Zm2.259 5.037a.752.752 0 0 0-.749-.749.752.752 0 0 0-.53.219l-1.72 1.72-1.72-1.72a.75.75 0 0 0-1.06 1.06l1.72 1.72-1.72 1.72a.748.748 0 0 0 .23 1.244.757.757 0 0 0 .83-.184l1.72-1.72 1.72 1.72a.748.748 0 0 0 1.244-.23.757.757 0 0 0-.184-.83l-1.72-1.72 1.72-1.72a.752.752 0 0 0 .219-.53Z" fill="#202020"/>
  <g clip-path="url(#i)" fill="#202020">
    <path d="m410.373 175.571-.058 2.22a.75.75 0 0 0 1.094.686l2.124-1.098 2.04 2.03a1.98 1.98 0 0 0 1.878.535 2 2 0 0 0 1.44-1.318l.001-.001 3.988-11.944a1.996 1.996 0 0 0-.049-1.486l-12.458 10.376ZM421.757 164.148a1.996 1.996 0 0 0-1.439-.028l-11.955 3.986-.005.002a2.002 2.002 0 0 0-1.319 1.525 1.98 1.98 0 0 0 .541 1.788l2.475 2.473 11.702-9.746Z"/>
  </g>
  <path fill-rule="evenodd" clip-rule="evenodd" d="M366.25 166a5.247 5.247 0 0 0-4.257 2.179 5.245 5.245 0 0 0-.724 4.728 5.244 5.244 0 0 0 3.411 3.352 5.245 5.245 0 0 0 4.714-.804l2.326 2.325a.752.752 0 0 0 1.244-.23.757.757 0 0 0-.184-.83l-2.325-2.326A5.25 5.25 0 0 0 366.25 166Zm-3.75 5.25a3.753 3.753 0 0 1 2.315-3.465 3.76 3.76 0 0 1 2.87 0c.455.189.868.465 1.217.813A3.76 3.76 0 0 1 370 171.25a3.752 3.752 0 0 1-3.75 3.75 3.752 3.752 0 0 1-3.75-3.75ZM216 170.964c0-3.85 3.138-6.964 7-6.964s7 3.114 7 6.964a6.933 6.933 0 0 1-2.085 4.957l-4.42 3.892a.752.752 0 0 1-.99 0l-4.42-3.892a6.94 6.94 0 0 1-2.085-4.957Zm5.232-1.732a2.5 2.5 0 1 1 3.535 3.536 2.5 2.5 0 0 1-3.535-3.536Z" fill="#202020"/>
  <g clip-path="url(#j)" fill="#202020">
    <path d="M132.303 164c-.674 0-1.321.268-1.798.745l-10.389 10.388a.751.751 0 0 0-.197.349l-.897 3.586a.75.75 0 0 0 .91.91l3.586-.897a.751.751 0 0 0 .349-.197l10.388-10.389a2.543 2.543 0 0 0 0-3.596l-.154-.154a2.543 2.543 0 0 0-1.798-.745ZM127.75 178a.75.75 0 0 0 0 1.5h6.5a.75.75 0 0 0 0-1.5h-6.5Z"/>
  </g>
  <g clip-path="url(#k)">
    <path fill-rule="evenodd" clip-rule="evenodd" d="M171.39 164.001a2.207 2.207 0 0 1 2.205 1.895v.007a8.63 8.63 0 0 0 .47 1.88l-.001-.001a2.2 2.2 0 0 1-.497 2.327l-.003.003-.51.509a10.898 10.898 0 0 0 3.314 3.306l.514-.514a2.212 2.212 0 0 1 2.327-.496c.609.226 1.24.384 1.884.468l.007.001a2.21 2.21 0 0 1 1.9 2.239c-.005.72-.005 1.44 0 2.16a2.202 2.202 0 0 1-1.502 2.099c-.29.098-.6.135-.905.107l-.014-.001a15.202 15.202 0 0 1-6.618-2.35c-1.981-1.282-3.306-2.6-4.596-4.587a15.129 15.129 0 0 1-2.355-6.637v-.012a2.206 2.206 0 0 1 2.197-2.404h2.183v.001Z" fill="#202020"/>
  </g>
  <g clip-path="url(#l)">
    <path fill-rule="evenodd" clip-rule="evenodd" d="M82.505 164.745a2.543 2.543 0 0 1 3.596 0l.154.154a2.544 2.544 0 0 1 0 3.596l-10.388 10.389a.751.751 0 0 1-.349.197l-3.586.897a.748.748 0 0 1-.91-.91l.897-3.586a.751.751 0 0 1 .197-.349l8.966-8.966.001-.001 1.422-1.421Z" fill="#202020"/>
  </g>
  <g clip-path="url(#m)">
    <path d="M752.387 118.102a2.034 2.034 0 0 1 2.864 0c.776.785.749 2.178 0 2.928-.75.749-6.39 6.465-6.39 6.465a.643.643 0 0 1-.898 0 .684.684 0 0 1 0-.937l5.896-5.966a.746.746 0 0 0 .179-.83.75.75 0 0 0-1.245-.224l-5.897 5.966a2.187 2.187 0 0 0 0 3.045 2.144 2.144 0 0 0 3.033 0l6.39-6.466c1.36-1.377 1.36-3.658 0-5.035-1.364-1.381-3.636-1.381-5 0l-6.381 6.465a5.004 5.004 0 0 0-1.438 3.513c0 1.316.516 2.58 1.437 3.514a4.9 4.9 0 0 0 3.483 1.46c1.308 0 2.56-.526 3.482-1.46l6.383-6.466a.76.76 0 0 0 .224-.534.74.74 0 0 0-.223-.535.751.751 0 0 0-1.069.016l-6.382 6.465a3.381 3.381 0 0 1-4.83 0 3.504 3.504 0 0 1-1.005-2.46c0-.924.363-1.808 1.005-2.46l6.382-6.464Z" fill="#202020"/>
  </g>
  <path d="M272 167.5a.747.747 0 0 0-.22-.53.747.747 0 0 0-1.06 0 .747.747 0 0 0-.22.53v3.5H267a.747.747 0 0 0-.53.22.747.747 0 0 0 0 1.06c.14.141.331.22.53.22h3.5v3.5c0 .199.079.39.22.53a.747.747 0 0 0 1.06 0 .747.747 0 0 0 .22-.53v-3.5h3.5c.199 0 .39-.079.53-.22a.747.747 0 0 0 0-1.06.747.747 0 0 0-.53-.22H272v-3.5Z" fill="#202020"/>
  <path fill-rule="evenodd" clip-rule="evenodd" d="M319 167.517a.997.997 0 0 1 1.109-.993c.187.02.364.093.511.209l5.348 4.233a.997.997 0 0 1 .379.784.997.997 0 0 1-.379.784l-5.347 4.233a.993.993 0 0 1-1.056.116.997.997 0 0 1-.565-.9v-1.545c-.76-.043-1.484.003-2.254.218-.994.279-2.118.857-3.506 1.99a.995.995 0 0 1-1.129.096.966.966 0 0 1-.445-1.099c.415-1.5 1.425-3.141 2.808-4.412 1.216-1.117 2.77-1.99 4.526-2.189v-1.525ZM695 119.25a2.25 2.25 0 0 1 2.25-2.25h11.5a2.25 2.25 0 0 1 2.25 2.25v6.5a2.25 2.25 0 0 1-2.25 2.25h-5v1.5H706c.199 0 .39.079.53.22a.747.747 0 0 1 0 1.06.747.747 0 0 1-.53.22h-6a.747.747 0 0 1-.53-.22.747.747 0 0 1 0-1.06.747.747 0 0 1 .53-.22h2.25V128h-5a2.25 2.25 0 0 1-2.25-2.25v-6.5ZM614.752 118.223A2.25 2.25 0 0 0 612.75 117h-11.5a2.25 2.25 0 0 0-2.001 1.221l7.751 6.076 7.752-6.074Zm-15.502 11.558a2.248 2.248 0 0 1-.25-1.031v-8.816l5.365 4.2-5.115 5.647Zm14.407 1.028a2.246 2.246 0 0 1-.907.191h-11.5c-.315 0-.624-.066-.907-.191l5.204-5.746.99.777a.747.747 0 0 0 .926 0l.989-.777 5.205 5.746ZM615 119.934v8.816c0 .362-.087.715-.25 1.031l-5.116-5.647h.001l5.365-4.2ZM517.78 117.22a.755.755 0 0 1 .148.851l-5.921 12.5a.746.746 0 0 1-.752.426.753.753 0 0 1-.654-.566l-1.206-4.825-4.827-1.206a.753.753 0 0 1-.566-.654.751.751 0 0 1 .426-.752l12.5-5.92a.756.756 0 0 1 .852.146Z" fill="#202020"/>
  <path d="M560.5 117.75c0-.199.079-.39.22-.53a.747.747 0 0 1 .53-.22h2.5a2.25 2.25 0 0 1 2.25 2.25v9.5a2.25 2.25 0 0 1-2.25 2.25h-2.5a.747.747 0 0 1-.53-.22.747.747 0 0 1 0-1.06.747.747 0 0 1 .53-.22h2.5c.199 0 .39-.079.53-.22a.747.747 0 0 0 .22-.53v-9.5a.747.747 0 0 0-.22-.53.747.747 0 0 0-.53-.22h-2.5a.747.747 0 0 1-.53-.22.747.747 0 0 1-.22-.53Z" fill="#202020"/>
  <path d="M556.97 119.72a.752.752 0 0 1 1.06 0l3.5 3.5a.752.752 0 0 1 0 1.06l-3.5 3.5a.75.75 0 0 1-1.06-1.06l2.22-2.22H553a.747.747 0 0 1-.53-.22.747.747 0 0 1 0-1.06.747.747 0 0 1 .53-.22h6.19l-2.22-2.22a.752.752 0 0 1 0-1.06Z" fill="#202020"/>
  <g clip-path="url(#n)">
    <path fill-rule="evenodd" clip-rule="evenodd" d="M647 122.173c0-2.553 1.934-5.448 5.019-5.448 1.35 0 2.333.689 2.981 1.315.648-.626 1.631-1.315 2.981-1.315 3.085 0 5.019 2.895 5.019 5.448 0 1.344-.521 2.585-1.242 3.66-.722 1.076-1.671 2.028-2.601 2.811a22.213 22.213 0 0 1-2.575 1.86 17.71 17.71 0 0 1-.877.51 6.152 6.152 0 0 1-.382.191.688.688 0 0 1-.139.047.743.743 0 0 1-.184.023c-.093 0-.165-.018-.184-.022a1.055 1.055 0 0 1-.139-.048 6.152 6.152 0 0 1-.382-.191 17.71 17.71 0 0 1-.877-.51 22.213 22.213 0 0 1-2.575-1.86c-.93-.783-1.879-1.735-2.601-2.811-.721-1.075-1.242-2.316-1.242-3.66Z" fill="#202020"/>
  </g>
  <g clip-path="url(#o)" fill="#202020">
    <path d="M169.25 116a2.25 2.25 0 0 0-2.25 2.25v7.5a2.25 2.25 0 0 0 2.25 2.25h.25a.25.25 0 0 0 .25-.25V121a2.25 2.25 0 0 1 2.25-2.25h6.75a.25.25 0 0 0 .25-.25v-.25a2.25 2.25 0 0 0-2.25-2.25h-7.5Z"/>
    <path fill-rule="evenodd" clip-rule="evenodd" d="M173.25 120a2.25 2.25 0 0 0-2.25 2.25v7.5a2.25 2.25 0 0 0 2.25 2.25h7.5a2.25 2.25 0 0 0 2.25-2.25v-7.5a2.25 2.25 0 0 0-2.25-2.25h-7.5Z"/>
  </g>
  <g clip-path="url(#p)">
    <path fill-rule="evenodd" clip-rule="evenodd" d="M605.203 69.343c.527-1.79 3.067-1.79 3.594 0l.094.312c.037.125.1.247.187.344a.864.864 0 0 0 .696.281.84.84 0 0 0 .367-.093l.297-.157c1.639-.893 3.433.892 2.539 2.532l-.164.297a.89.89 0 0 0-.101.375.844.844 0 0 0 .062.375c.05.12.13.226.227.313a.87.87 0 0 0 .336.187l.32.094c1.791.527 1.791 3.067 0 3.594l-.32.094a.868.868 0 0 0-.336.188.873.873 0 0 0-.227.312.913.913 0 0 0-.062.39c.007.13.039.246.101.36l.164.297c.895 1.64-.899 3.44-2.539 2.547l-.297-.172a.84.84 0 0 0-.367-.093.864.864 0 0 0-.696.281.902.902 0 0 0-.187.344l-.094.312c-.527 1.79-3.067 1.79-3.594 0l-.094-.312a.902.902 0 0 0-.187-.344.885.885 0 0 0-.696-.281.875.875 0 0 0-.375.093l-.289.172c-1.64.894-3.432-.907-2.539-2.547l.156-.297a.823.823 0 0 0 .101-.36.853.853 0 0 0-.625-.89l-.312-.094c-1.791-.527-1.791-3.067 0-3.594l.312-.094a.854.854 0 0 0 .625-.875.89.89 0 0 0-.101-.375l-.156-.297c-.894-1.64.899-3.44 2.539-2.547l.289.172a.875.875 0 0 0 .375.093.885.885 0 0 0 .696-.281.902.902 0 0 0 .187-.344l.094-.312ZM607 79a3 3 0 1 0 0-6 3 3 0 0 0 0 6Z" fill="#202020"/>
  </g>
  <path fill-rule="evenodd" clip-rule="evenodd" d="M230 71.25a2.25 2.25 0 0 0-2.25-2.25h-9.5a2.25 2.25 0 0 0-2.25 2.25v11a.75.75 0 0 0 1.26.55l2.801-2.6a.75.75 0 0 1 .51-.2h7.179a2.251 2.251 0 0 0 2.25-2.25v-6.5Z" fill="#202020"/>
  <g clip-path="url(#q)">
    <path d="m421.875 96.48 2.533-17.168a3.313 3.313 0 0 1 6.563.906c-2.967 21.735-2.94 17.68-2.94 29.282a13.138 13.138 0 0 1-8.675 12.374 13.14 13.14 0 0 1-5.277.751 13.388 13.388 0 0 1-12.22-13.506v-9.41a15.168 15.168 0 0 0-.761-4.79l-2.848-8.69a2.993 2.993 0 0 1 1.792-3.839 2.994 2.994 0 0 1 3.839 1.792l4.961 12.298h13.033Z" fill="#fff"/>
    <path d="M427.125 80.06a3.784 3.784 0 0 1 3.465 2.258c.092-.67.184-1.312.276-2.1a3.315 3.315 0 0 0-2.829-3.734 3.314 3.314 0 0 0-3.734 2.829l-.341 2.375a3.748 3.748 0 0 1 3.163-1.627ZM399.051 88.631a3.214 3.214 0 0 1 5.919-1.745l-1.089-2.704a3.003 3.003 0 0 0-2.684-1.97 2.994 2.994 0 0 0-2.947 4.017l.801 2.442v-.04Z" fill="#EEE"/>
    <path d="m421.875 96.48 2.533-17.168a3.313 3.313 0 0 1 6.563.906c-2.967 21.735-2.94 17.68-2.94 29.282a13.138 13.138 0 0 1-8.675 12.374 13.14 13.14 0 0 1-5.277.751 13.388 13.388 0 0 1-12.22-13.506v-9.41a15.168 15.168 0 0 0-.761-4.79l-2.848-8.69a2.993 2.993 0 0 1 1.792-3.839 2.994 2.994 0 0 1 3.839 1.792l4.961 12.298h13.033Z" stroke="#202020" stroke-linecap="round" stroke-linejoin="round"/>
    <path d="M408.842 93.002h6.982v14.385h-6.982V93.002Z" fill="#fff"/>
    <path d="M412.333 93.002a3.492 3.492 0 0 0-3.491 3.478v3.15a3.49 3.49 0 0 1 6.982 0v-3.15a3.49 3.49 0 0 0-3.491-3.478Z" fill="#EEE"/>
    <path d="M408.842 93.002h6.982v14.385h-6.982V93.002Z" stroke="#202020" stroke-linecap="round" stroke-linejoin="round"/>
    <path d="M415.824 93.002h6.983v14.385h-6.983V93.002Z" fill="#fff"/>
    <path d="M419.25 93.002a3.477 3.477 0 0 0-3.478 3.478v3.15a3.475 3.475 0 0 1 3.478-3.478 3.49 3.49 0 0 1 3.491 3.478v-3.15a3.49 3.49 0 0 0-3.491-3.478Z" fill="#EEE"/>
    <path d="M415.824 93.002h6.983v14.385h-6.983V93.002Z" stroke="#202020" stroke-linecap="round" stroke-linejoin="round"/>
    <path d="M428.031 109.172a6.81 6.81 0 0 0-1.996-4.812 6.8 6.8 0 0 0-4.816-1.987h-10.592a1.802 1.802 0 0 0-1.673 1.107 1.802 1.802 0 0 0-.138.691 5.007 5.007 0 0 0 1.464 3.536 4.992 4.992 0 0 0 3.536 1.465h14.215Z" fill="#fff"/>
    <path d="M428.031 109.172a6.81 6.81 0 0 0-1.996-4.812 6.8 6.8 0 0 0-4.816-1.987h-10.592a1.802 1.802 0 0 0-1.673 1.107 1.802 1.802 0 0 0-.138.691 4.86 4.86 0 0 0 .315 1.707 1.839 1.839 0 0 1 1.496-.775h11.248a6.8 6.8 0 0 1 6.156 4.069Z" fill="#EEE"/>
    <path d="M413.344 116.719v-1.72a5.827 5.827 0 0 1 5.827-5.827h-5.355a4.992 4.992 0 0 1-4.62-3.087 5.007 5.007 0 0 1-.38-1.914 1.802 1.802 0 0 1 1.119-1.665c.219-.089.455-.135.692-.133h10.592a6.795 6.795 0 0 1 6.293 4.194 6.81 6.81 0 0 1 .519 2.605" stroke="#202020" stroke-linecap="round" stroke-linejoin="round"/>
  </g>
  <defs>
    <clipPath id="a">
      <path fill="#fff" transform="translate(71 20)" d="M0 0h16v16H0z"/>
    </clipPath>
    <clipPath id="b">
      <path fill="#fff" transform="translate(119 20)" d="M0 0h16v16H0z"/>
    </clipPath>
    <clipPath id="c">
      <path fill="#fff" transform="translate(311 20)" d="M0 0h16v16H0z"/>
    </clipPath>
    <clipPath id="d">
      <path fill="#fff" transform="translate(407 20)" d="M0 0h16v16H0z"/>
    </clipPath>
    <clipPath id="e">
      <path fill="#fff" transform="translate(647 20)" d="M0 0h16v16H0z"/>
    </clipPath>
    <clipPath id="f">
      <path fill="#fff" transform="translate(743 20)" d="M0 0h16v16H0z"/>
    </clipPath>
    <clipPath id="g">
      <path fill="#fff" transform="translate(311 68)" d="M0 0h16v16H0z"/>
    </clipPath>
    <clipPath id="h">
      <path fill="#fff" transform="translate(551 68)" d="M0 0h16v16H0z"/>
    </clipPath>
    <clipPath id="i">
      <path fill="#fff" transform="translate(407 164)" d="M0 0h16v16H0z"/>
    </clipPath>
    <clipPath id="j">
      <path fill="#fff" transform="translate(119 164)" d="M0 0h16v16H0z"/>
    </clipPath>
    <clipPath id="k">
      <path fill="#fff" transform="translate(167 164)" d="M0 0h16v16H0z"/>
    </clipPath>
    <clipPath id="l">
      <path fill="#fff" transform="translate(71 164)" d="M0 0h16v16H0z"/>
    </clipPath>
    <clipPath id="m">
      <path fill="#fff" transform="translate(743 116)" d="M0 0h16v16H0z"/>
    </clipPath>
    <clipPath id="n">
      <path fill="#fff" transform="translate(647 116)" d="M0 0h16v16H0z"/>
    </clipPath>
    <clipPath id="o">
      <path fill="#fff" transform="translate(167 116)" d="M0 0h16v16H0z"/>
    </clipPath>
    <clipPath id="p">
      <path fill="#fff" transform="translate(599 68)" d="M0 0h16v16H0z"/>
    </clipPath>
    <clipPath id="q">
      <path fill="#fff" transform="translate(397 75)" d="M0 0h35v49H0z"/>
    </clipPath>
  </defs>
</svg>
