<svg xmlns="http://www.w3.org/2000/svg" width="64" height="64" fill="none" viewBox="0 0 64 64">
  <path fill="#fff" d="m39.875 29.48 2.533-17.168a3.313 3.313 0 0 1 6.563.906c-2.967 21.735-2.94 17.68-2.94 29.282a13.124 13.124 0 0 1-13.952 13.125 13.388 13.388 0 0 1-12.22-13.506v-9.41a15.186 15.186 0 0 0-.76-4.79l-2.849-8.69a2.996 2.996 0 0 1 5.63-2.047l4.962 12.298h13.033Z"/>
  <path fill="#eee" d="M45.125 13.06a3.78 3.78 0 0 1 3.465 2.258c.092-.67.184-1.312.276-2.1a3.312 3.312 0 1 0-6.563-.905l-.341 2.375a3.753 3.753 0 0 1 3.163-1.627ZM17.05 21.631a3.217 3.217 0 0 1 5.92-1.745l-1.09-2.704a2.997 2.997 0 0 0-4.838-1.186 2.995 2.995 0 0 0-.792 3.233l.8 2.442v-.04Z"/>
  <path stroke="#000" stroke-linecap="round" stroke-linejoin="round" d="m39.875 29.48 2.533-17.168a3.313 3.313 0 0 1 6.563.906c-2.967 21.735-2.94 17.68-2.94 29.282a13.124 13.124 0 0 1-13.952 13.125 13.388 13.388 0 0 1-12.22-13.506v-9.41a15.186 15.186 0 0 0-.76-4.79l-2.849-8.69a2.996 2.996 0 0 1 5.63-2.047l4.962 12.298h13.033Z"/>
  <path fill="#fff" d="M26.842 26.002h6.982v14.385h-6.982V26.002Z"/>
  <path fill="#eee" d="M30.333 26.002a3.491 3.491 0 0 0-3.491 3.478v3.15a3.49 3.49 0 0 1 6.982 0v-3.15a3.492 3.492 0 0 0-3.49-3.478Z"/>
  <path stroke="#000" stroke-linecap="round" stroke-linejoin="round" d="M26.842 26.002h6.982v14.385h-6.982V26.002Z"/>
  <path fill="#fff" d="M33.824 26.002h6.983v14.385h-6.983V26.002Z"/>
  <path fill="#eee" d="M37.25 26.002a3.478 3.478 0 0 0-3.478 3.478v3.15a3.478 3.478 0 0 1 3.478-3.478 3.491 3.491 0 0 1 3.491 3.478v-3.15a3.491 3.491 0 0 0-3.491-3.478Z"/>
  <path stroke="#000" stroke-linecap="round" stroke-linejoin="round" d="M33.824 26.002h6.983v14.385h-6.983V26.002Z"/>
  <path fill="#fff" d="M46.03 42.172a6.798 6.798 0 0 0-6.811-6.799H28.627a1.799 1.799 0 0 0-1.811 1.798 5 5 0 0 0 5 5h14.215Z"/>
  <path fill="#eee" d="M46.03 42.172a6.798 6.798 0 0 0-6.811-6.799H28.627a1.799 1.799 0 0 0-1.811 1.798 4.87 4.87 0 0 0 .315 1.706 1.85 1.85 0 0 1 1.496-.774h11.248a6.798 6.798 0 0 1 6.156 4.069Z"/>
  <path stroke="#000" stroke-linecap="round" stroke-linejoin="round" d="M31.344 49.719v-1.72a5.827 5.827 0 0 1 5.827-5.827h-5.355a5 5 0 0 1-5-5 1.8 1.8 0 0 1 1.81-1.799H39.22a6.8 6.8 0 0 1 6.812 6.799"/>
</svg>
