<svg xmlns="http://www.w3.org/2000/svg" width="16" height="16" fill="none" viewBox="0 0 16 16">
  <path fill="currentColor" d="M2.1e-7 2.75C2.1e-7 1.784.784001 1 1.75 1h12.5c.966 0 1.75.784 1.75 1.75v1.5c0 .69634-.4071 1.29714-.9958 1.57999H.995768C.698276 5.6879.446939 5.46464.27075 5.18591"/>
  <path fill="currentColor" fill-rule="evenodd" d="M1 7.50998h14V12.75c0 .5967-.2371 1.169-.659 1.591-.422.4219-.9943.659-1.591.659h-9.5c-.59674 0-1.16903-.2371-1.59099-.659C1.23705 13.919 1 13.3467 1 12.75zm5.21967 1.70969C6.36032 9.07902 6.55109 9 6.75 9h2.5c.19891 0 .38968.07902.53033.21967S10 9.55109 10 9.75s-.07902.3897-.21967.5303c-.14065.1407-.33142.2197-.53033.2197h-2.5c-.19891 0-.38968-.079-.53033-.2197C6.07902 10.1397 6 9.94891 6 9.75s.07902-.38968.21967-.53033"/>
</svg>
