<svg xmlns="http://www.w3.org/2000/svg" width="16" height="16" fill="currentColor" viewBox="0 0 16 16">
  <path fill-rule="evenodd" d="M1.25.75A.75.75 0 0 1 2 0h12a.75.75 0 0 1 0 1.5v13h.25a.75.75 0 0 1 0 1.5H1.75a.75.75 0 0 1 0-1.5H2v-13a.75.75 0 0 1-.75-.75ZM6 14.5v-2.25c0-.69.56-1.25 1.25-1.25h1.5c.69 0 1.25.56 1.25 1.25v2.25H6ZM5.146 3.146A.5.5 0 0 0 5 3.5v1a.5.5 0 0 0 .5.5h1a.5.5 0 0 0 .5-.5v-1a.5.5 0 0 0-.5-.5h-1a.5.5 0 0 0-.354.146ZM5 7.5a.5.5 0 0 1 .5-.5h1a.5.5 0 0 1 .5.5v1a.5.5 0 0 1-.5.5h-1a.5.5 0 0 1-.5-.5v-1Zm4.146-4.354A.5.5 0 0 0 9 3.5v1a.5.5 0 0 0 .5.5h1a.5.5 0 0 0 .5-.5v-1a.5.5 0 0 0-.5-.5h-1a.5.5 0 0 0-.354.146ZM9 7.5a.5.5 0 0 1 .5-.5h1a.5.5 0 0 1 .5.5v1a.5.5 0 0 1-.5.5h-1a.5.5 0 0 1-.5-.5v-1Z"/>
</svg>
