<svg xmlns="http://www.w3.org/2000/svg" width="16" height="16" fill="none">
  <path fill="currentColor" fill-rule="evenodd" d="M8.74.213a2.25 2.25 0 0 0-1.48 0L2.51 1.866A2.25 2.25 0 0 0 1 3.991v4.01c0 2.05 1.18 3.747 2.451 4.991 1.281 1.256 2.756 2.151 3.572 2.598a2.024 2.024 0 0 0 1.954 0c.816-.448 2.291-1.343 3.573-2.598C13.819 11.748 15 10.05 15 8.002v-4.01a2.25 2.25 0 0 0-1.51-2.126zm-1.447 10.08A1 1 0 0 0 8 12h.007a1 1 0 0 0 0-2H8a1 1 0 0 0-.707.293M8.53 4.22c.141.14.22.331.22.53v3.5a.75.75 0 0 1-1.5 0v-3.5a.75.75 0 0 1 1.28-.53"/>
</svg>
