<svg xmlns="http://www.w3.org/2000/svg" width="16" height="16" fill="none">
  <path fill="currentColor" fill-rule="evenodd" d="M13.25 1c.967 0 1.75.784 1.75 1.75v2.5A1.75 1.75 0 0 1 13.25 7H2.75A1.75 1.75 0 0 1 1 5.25v-2.5C1 1.784 1.783 1 2.75 1zm.25 1.75v2.5a.25.25 0 0 1-.25.25H2.75a.25.25 0 0 1-.25-.25v-2.5a.25.25 0 0 1 .25-.25h10.5a.25.25 0 0 1 .25.25M13.25 9c.967 0 1.75.784 1.75 1.75v2.5A1.75 1.75 0 0 1 13.25 15H2.75A1.75 1.75 0 0 1 1 13.25v-2.5C1 9.784 1.783 9 2.75 9zm.25 1.75v2.5a.25.25 0 0 1-.25.25H2.75a.25.25 0 0 1-.25-.25v-2.5a.25.25 0 0 1 .25-.25h10.5a.25.25 0 0 1 .25.25"/>
</svg>
