<svg xmlns="http://www.w3.org/2000/svg" width="16" height="16" fill="none" viewBox="0 0 16 16">
  <path fill="currentColor" fill-rule="evenodd" d="M6.016 1c.1561.00338.30726.0554.43238.14879.12513.0934.21798.22352.26562.37221l3.306 10.33 1.47-4.341c.0502-.14856.1457-.27766.273-.36914.1274-.09148.2802-.14074.437-.14086H15c.1989 0 .3897.07902.5303.21967.1407.14065.2197.33142.2197.53033 0 .19891-.079.38968-.2197.53033C15.3897 8.42098 15.1989 8.5 15 8.5h-2.262l-2.028 5.99c-.0507.1493-.1472.2789-.2757.3702-.1285.0914-.2826.1399-.44027.1386-.15769-.0012-.31097-.0521-.43808-.1454s-.22156-.2243-.26995-.3744L5.952 4.06 4.504 8.008c-.05284.14423-.14869.26876-.2746.35675-.12591.08799-.27579.1352-.4294.13525H1c-.198912 0-.389678-.07902-.53033-.21967C.329018 8.13968.25 7.94891.25 7.75c0-.19891.079018-.38968.21967-.53033C.610322 7.07902.801088 7 1 7h2.276l2.02-5.508c.11-.301.4-.499.72-.492Z"/>
</svg>
