<svg xmlns="http://www.w3.org/2000/svg" width="16" height="16" fill="none" viewBox="0 0 16 16">
  <path fill="currentColor" fill-rule="evenodd" d="M9.72165 10.5H12.75c.4142 0 .75-.3358.75-.75v-6.5c0-.41421-.3358-.75-.75-.75h-9.5c-.41421 0-.75.33579-.75.75v6.5c0 .4142.33579.75.75.75h3.02828l1.72171 2.4448L9.72165 10.5Zm.77825 1.5H12.75C13.9926 12 15 10.9926 15 9.75v-6.5C15 2.00736 13.9926 1 12.75 1h-9.5C2.00736 1 1 2.00736 1 3.25v6.5C1 10.9926 2.00736 12 3.25 12h2.24999l1.8868 2.6792c.29875.4243.92767.4243 1.22641 0L10.4999 12Z"/>
</svg>
