<svg xmlns="http://www.w3.org/2000/svg" width="16" height="16" fill="none" viewBox="0 0 16 16">
  <path fill="currentColor" d="M3.057 3.463c.05655-.13722.15264-.25451.27604-.33696.12341-.08245.26855-.12632.41696-.12604h5.5c.19891 0 .38968.07902.53033.21967C9.92098 3.36032 10 3.55109 10 3.75c0 .19891-.07902.38968-.21967.53033C9.63968 4.42098 9.44891 4.5 9.25 4.5H5.56l7.22 7.22c.0737.0687.1328.1515.1738.2435.041.092.063.1913.0648.292.0018.1007-.0168.2007-.0545.2941-.0377.0934-.0938.1782-.1651.2494-.0712.0713-.156.1274-.2494.1651-.0934.0377-.1934.0563-.2941.0545-.1007-.0018-.2-.0238-.292-.0648-.092-.041-.1748-.1001-.2435-.1738L4.5 5.56v3.69c0 .19891-.07902.38968-.21967.53033C4.13968 9.92098 3.94891 10 3.75 10c-.19891 0-.38968-.07902-.53033-.21967C3.07902 9.63968 3 9.44891 3 9.25v-5.5c0-.102.02-.199.057-.287Z"/>
</svg>
