<svg xmlns="http://www.w3.org/2000/svg" width="16" height="16" fill="none" viewBox="0 0 16 16">
  <path fill="currentColor" d="M7.765 4.045a.74999573.74999573 0 0 0 .17608-.23858c.04223-.09045.06597-.18842.06985-.28816.00388-.09975-.0122-.19927-.04728-.29272-.03509-.09346-.08847-.17897-.15703-.25152-.06856-.07255-.15092-.13069-.24224-.171-.09132-.04032-.18976-.06199-.28957-.06377-.09981-.00177-.19896.0164-.29166.05345-.09269.03704-.17705.09222-.24815.1623L2.237 7.203c-.07494.0699-.13472.15447-.17562.24844-.0409.09397-.06206.19535-.06215.29784-.00009.10249.02087.2039.0616.29795.04074.09404.10036.17872.17517.24876L6.735 12.546c.14468.1366.33769.2101.53657.2044.19888-.0057.38735-.0902.52393-.2349.13659-.1447.21011-.3377.20439-.5366-.00572-.1989-.09021-.3873-.23489-.5239L4.636 8.5h8.614c.1989 0 .3897-.07902.5303-.21968C13.921 8.13967 14 7.94891 14 7.75c0-.19892-.079-.38968-.2197-.53033C13.6397 7.07901 13.4489 7 13.25 7H4.636l3.129-2.955Z"/>
</svg>
