<svg xmlns="http://www.w3.org/2000/svg" width="16" height="16" fill="none" viewBox="0 0 16 16">
  <path fill="currentColor" d="M12.78 4.28c.1325-.14218.2046-.33022.2012-.52452-.0035-.1943-.0822-.37969-.2196-.5171-.1374-.13742-.3228-.21613-.5171-.21956-.1943-.00342-.3823.0687-.5245.20118L4.5 10.44V6.75c0-.19891-.07901-.38968-.21967-.53033C4.13968 6.07902 3.94892 6 3.75 6c-.19891 0-.38968.07902-.53033.21967C3.07902 6.36032 3 6.55109 3 6.75v5.5c-.00026.0986.01896.1962.05656.2873.03759.0911.09283.1739.16252.2436.0697.0697.15248.1249.2436.1625.09111.0376.18876.0569.28732.0566h5.5c.19892 0 .38968-.079.53033-.2197.14065-.1406.21967-.3314.21967-.5303 0-.1989-.07902-.3897-.21967-.5303C9.63968 11.579 9.44892 11.5 9.25 11.5H5.56l7.22-7.22Z"/>
</svg>
