<svg xmlns="http://www.w3.org/2000/svg" width="16" height="16" fill="none" viewBox="0 0 16 16">
  <path fill="currentColor" fill-rule="evenodd" d="M9.81797.209998C8.50461-.0966931 7.13503-.0663658 5.83653.298161 4.53803.662687 3.35277 1.34958 2.39091 2.29499 1.42905 3.2404.721824 4.41365.33496 5.70567-.0519041 6.99768-.105844 8.36654.178153 9.68499c.283998 1.31841.896717 2.54371 1.781197 3.56191.88448 1.0181 2.01202 1.7962 3.27781 2.2617 1.26578.4656 2.62873.6036 3.96215.4012 1.33339-.2024 2.59399-.7386 3.66469-1.5588.0815-.0586.1505-.133.2028-.2188.0523-.0857.0868-.1811.1015-.2805.0147-.0994.0093-.2007-.0159-.2979-.0252-.0972-.0696-.1884-.1307-.2681-.0611-.0798-.1376-.1464-.225-.196-.0873-.0496-.1837-.0812-.2835-.0928-.0998-.0116-.2009-.0031-.2973.0251-.0964.0282-.1861.0755-.2639.139-1.1648.892-2.59697 1.3637-4.06379 1.3384-1.46681-.0252-2.88196-.5459-4.01533-1.4773-1.13338-.9315-1.91832-2.219-2.2272-3.65313-.30889-1.43414-.12354-2.9306.5259-4.24605.64945-1.31545 1.72478-2.37252 3.05116-2.99933 1.32638-.62681 2.8258-.7865 4.25444-.4531 1.42862.3334 2.70252 1.14029 3.61442 2.28945C14.0035 5.10911 14.4999 6.53297 14.5 8v1c0 .908-.54 1.5-1.25 1.5-.4 0-.691-.157-.894-.399C12.142 9.847 12 9.463 12 9V4.75c0-.19891-.079-.38968-.2197-.53033C11.6396 4.07902 11.4489 4 11.25 4c-.1989 0-.3897.07902-.5304.21967-.1406.14065-.2196.33142-.2196.53033v.127c-.60874-.48736-1.34663-.78617-2.12292-.85968-.7763-.07351-1.55716.08148-2.24653.44591-.68937.36443-1.25719.92241-1.63362 1.6053-.37643.6829-.54505 1.46093-.48512 2.23839.05993.77746.34579 1.52046.82243 2.13758.47664.6172 1.12326 1.0815 1.86034 1.336.73707.2545 1.53246.288 2.28832.0964.75586-.1917 1.4392-.6 1.9661-1.1749.076.128.162.25.258.364.484.577 1.194.934 2.043.934C15.04 12 16 10.461 16 9V8c-.0002-1.80557-.6111-3.55798-1.7335-4.97231C13.1441 1.61337 11.5763.620312 9.81797.209998ZM10.5 8c0-.66304-.2634-1.29893-.73226-1.76777C9.29889 5.76339 8.66301 5.5 7.99997 5.5c-.66304 0-1.29893.26339-1.76777.73223C5.76336 6.70107 5.49997 7.33696 5.49997 8c0 .66304.26339 1.29892.73223 1.76777.46884.46883 1.10473.73223 1.76777.73223.66304 0 1.29892-.2634 1.76777-.73223C10.2366 9.29892 10.5 8.66304 10.5 8Z"/>
</svg>
