<svg width="24" height="24" viewBox="0 0 24 24" fill="none" xmlns="http://www.w3.org/2000/svg">
<path d="M11.771 5.03999C11.9142 4.90182 11.9967 4.71241 12.0002 4.51343C12.0038 4.31445 11.9282 4.12221 11.79 3.97899C11.6518 3.83578 11.4624 3.75332 11.2634 3.74975C11.0645 3.74619 10.8722 3.82182 10.729 3.95999L3.229 11.21C3.15641 11.28 3.09868 11.3638 3.05924 11.4566C3.01981 11.5494 2.99948 11.6492 2.99948 11.75C2.99948 11.8508 3.01981 11.9506 3.05924 12.0434C3.09868 12.1362 3.15641 12.22 3.229 12.29L10.729 19.54C10.7999 19.6084 10.8836 19.6622 10.9753 19.6983C11.067 19.7343 11.1649 19.752 11.2634 19.7502C11.362 19.7485 11.4592 19.7273 11.5495 19.688C11.6399 19.6487 11.7216 19.5919 11.79 19.521C11.8584 19.4501 11.9122 19.3664 11.9483 19.2747C11.9843 19.183 12.002 19.0851 12.0002 18.9866C11.9985 18.888 11.9773 18.7908 11.938 18.7005C11.8987 18.6101 11.8419 18.5284 11.771 18.46L5.605 12.5H20.25C20.4489 12.5 20.6397 12.421 20.7803 12.2803C20.921 12.1397 21 11.9489 21 11.75C21 11.5511 20.921 11.3603 20.7803 11.2197C20.6397 11.079 20.4489 11 20.25 11H5.605L11.771 5.03999Z" fill="black"/>
</svg>
