<svg width="24" height="24" viewBox="0 0 24 24" fill="none" xmlns="http://www.w3.org/2000/svg">
<path d="M5.22009 7.28C5.08761 7.13782 5.01549 6.94978 5.01892 6.75548C5.02234 6.56118 5.10106 6.37579 5.23847 6.23838C5.37588 6.10096 5.56127 6.02225 5.75557 6.01882C5.94987 6.0154 6.13792 6.08752 6.28009 6.22L17.5001 17.44V9.75C17.5001 9.55109 17.5791 9.36032 17.7198 9.21967C17.8604 9.07902 18.0512 9 18.2501 9C18.449 9 18.6398 9.07902 18.7804 9.21967C18.9211 9.36032 19.0001 9.55109 19.0001 9.75V19.25C19.0005 19.3486 18.9814 19.4463 18.9438 19.5375C18.9063 19.6287 18.851 19.7115 18.7813 19.7812C18.7116 19.8509 18.6287 19.9062 18.5376 19.9437C18.4464 19.9813 18.3487 20.0004 18.2501 20H8.75009C8.55118 20 8.36041 19.921 8.21976 19.7803C8.07911 19.6397 8.00009 19.4489 8.00009 19.25C8.00009 19.0511 8.07911 18.8603 8.21976 18.7197C8.36041 18.579 8.55118 18.5 8.75009 18.5H16.4401L5.22009 7.28Z" fill="black"/>
</svg>
