<svg width="24" height="24" viewBox="0 0 24 24" fill="none" xmlns="http://www.w3.org/2000/svg">
<path d="M18.943 5.463C18.9057 5.37258 18.851 5.29036 18.782 5.221L18.78 5.22L18.779 5.218C18.6386 5.0781 18.4483 4.99969 18.25 5H8.75003C8.55112 5 8.36035 5.07902 8.2197 5.21967C8.07905 5.36032 8.00003 5.55109 8.00003 5.75C8.00003 5.94891 8.07905 6.13968 8.2197 6.28033C8.36035 6.42098 8.55112 6.5 8.75003 6.5H16.44L5.22003 17.72C5.14634 17.7887 5.08724 17.8715 5.04625 17.9635C5.00526 18.0555 4.98322 18.1548 4.98144 18.2555C4.97966 18.3562 4.99819 18.4562 5.03591 18.5496C5.07363 18.643 5.12977 18.7278 5.20099 18.799C5.27221 18.8703 5.35705 18.9264 5.45043 18.9641C5.54382 19.0018 5.64385 19.0204 5.74455 19.0186C5.84526 19.0168 5.94457 18.9948 6.03657 18.9538C6.12857 18.9128 6.21137 18.8537 6.28003 18.78L17.5 7.56V15.25C17.5 15.4489 17.579 15.6397 17.7197 15.7803C17.8604 15.921 18.0511 16 18.25 16C18.4489 16 18.6397 15.921 18.7804 15.7803C18.921 15.6397 19 15.4489 19 15.25V5.75C19.0001 5.65151 18.9808 5.55397 18.943 5.463Z" fill="black"/>
</svg>
