<svg width="24" height="24" viewBox="0 0 24 24" fill="none" xmlns="http://www.w3.org/2000/svg">
<path d="M6.5 15.25C6.5 15.4489 6.42098 15.6397 6.28033 15.7803C6.13968 15.921 5.94891 16 5.75 16C5.55109 16 5.36032 15.921 5.21967 15.7803C5.07902 15.6397 5 15.4489 5 15.25V5.75C5 5.544 5.083 5.357 5.218 5.221L5.22 5.22L5.221 5.218C5.36148 5.0781 5.55174 4.99969 5.75 5H15.25C15.4489 5 15.6397 5.07902 15.7803 5.21967C15.921 5.36032 16 5.55109 16 5.75C16 5.94891 15.921 6.13968 15.7803 6.28033C15.6397 6.42098 15.4489 6.5 15.25 6.5H7.56L18.78 17.72C18.8537 17.7887 18.9128 17.8715 18.9538 17.9635C18.9948 18.0555 19.0168 18.1548 19.0186 18.2555C19.0204 18.3562 19.0018 18.4562 18.9641 18.5496C18.9264 18.643 18.8703 18.7278 18.799 18.799C18.7278 18.8703 18.643 18.9264 18.5496 18.9641C18.4562 19.0018 18.3562 19.0204 18.2555 19.0186C18.1548 19.0168 18.0555 18.9948 17.9635 18.9538C17.8715 18.9128 17.7887 18.8537 17.72 18.78L6.5 7.56V15.25Z" fill="black"/>
</svg>
