<svg width="24" height="24" viewBox="0 0 24 24" fill="none" xmlns="http://www.w3.org/2000/svg">
<path d="M5.04001 10.771C4.90197 10.9142 4.71268 10.9967 4.5138 11.0004C4.31492 11.0041 4.12273 10.9286 3.97951 10.7905C3.8363 10.6525 3.75378 10.4632 3.75013 10.2643C3.74647 10.0654 3.82197 9.87322 3.96001 9.73001L11.21 2.23001C11.28 2.15742 11.3639 2.09968 11.4566 2.06025C11.5494 2.02081 11.6492 2.00049 11.75 2.00049C11.8508 2.00049 11.9506 2.02081 12.0434 2.06025C12.1362 2.09968 12.2201 2.15742 12.29 2.23001L19.54 9.73001C19.6084 9.80092 19.6622 9.88462 19.6983 9.97632C19.7344 10.068 19.752 10.1659 19.7503 10.2644C19.7485 10.363 19.7273 10.4602 19.688 10.5505C19.6487 10.6409 19.5919 10.7226 19.521 10.791C19.4501 10.8594 19.3664 10.9132 19.2747 10.9493C19.183 10.9854 19.0851 11.003 18.9866 11.0012C18.8881 10.9995 18.7908 10.9783 18.7005 10.939C18.6101 10.8997 18.5284 10.8429 18.46 10.772L12.5 4.60501V20.25C12.5 20.4489 12.421 20.6397 12.2803 20.7803C12.1397 20.921 11.9489 21 11.75 21C11.5511 21 11.3603 20.921 11.2197 20.7803C11.079 20.6397 11 20.4489 11 20.25V4.60501L5.04001 10.771Z" fill="black"/>
</svg>
