<svg width="24" height="24" viewBox="0 0 24 24" fill="none" xmlns="http://www.w3.org/2000/svg">
<path d="M12.5001 3.75C12.5001 3.55109 12.4211 3.36032 12.2804 3.21967C12.1398 3.07902 11.949 3 11.7501 3C11.5512 3 11.3604 3.07902 11.2198 3.21967C11.0791 3.36032 11.0001 3.55109 11.0001 3.75V18.395L5.04012 12.229C4.90194 12.0858 4.71253 12.0033 4.51355 11.9998C4.31458 11.9962 4.12233 12.0718 3.97912 12.21C3.8359 12.3482 3.75344 12.5376 3.74988 12.7366C3.74631 12.9355 3.82194 13.1278 3.96012 13.271L11.2101 20.771C11.2801 20.8436 11.364 20.9013 11.4567 20.9408C11.5495 20.9802 11.6493 21.0005 11.7501 21.0005C11.8509 21.0005 11.9507 20.9802 12.0435 20.9408C12.1363 20.9013 12.2202 20.8436 12.2901 20.771L19.5401 13.271C19.6085 13.2001 19.6623 13.1164 19.6984 13.0247C19.7345 12.933 19.7521 12.8351 19.7504 12.7366C19.7486 12.638 19.7274 12.5408 19.6881 12.4505C19.6488 12.3601 19.592 12.2784 19.5211 12.21C19.4502 12.1416 19.3665 12.0878 19.2748 12.0517C19.1831 12.0157 19.0852 11.998 18.9867 11.9998C18.8882 12.0015 18.7909 12.0227 18.7006 12.062C18.6103 12.1013 18.5285 12.1581 18.4601 12.229L12.5001 18.395V3.75Z" fill="black"/>
</svg>
