<svg width="24" height="24" viewBox="0 0 24 24" fill="none" xmlns="http://www.w3.org/2000/svg">
<path fill-rule="evenodd" clip-rule="evenodd" d="M14.5 1.28799C12.6942 0.866474 10.8111 0.90831 9.02579 1.40961C7.24049 1.91091 5.61089 2.85541 4.28845 4.15532C2.96601 5.45523 1.99365 7.06836 1.46175 8.84479C0.929847 10.6212 0.855664 12.5033 1.2461 14.3161C1.63653 16.1288 2.4789 17.8135 3.69492 19.2135C4.91094 20.6134 6.46115 21.6833 8.20146 22.3235C9.94176 22.9638 11.8157 23.1537 13.6491 22.8756C15.4825 22.5976 17.2158 21.8605 18.688 20.733C18.7695 20.6744 18.8385 20.6 18.8908 20.5142C18.9431 20.4285 18.9776 20.3331 18.9923 20.2337C19.007 20.1343 19.0016 20.033 18.9764 19.9358C18.9512 19.8386 18.9068 19.7474 18.8457 19.6677C18.7846 19.5879 18.7081 19.5213 18.6207 19.4717C18.5334 19.4221 18.437 19.3905 18.3372 19.3789C18.2374 19.3673 18.1363 19.3758 18.0399 19.404C17.9435 19.4322 17.8538 19.4795 17.776 19.543C16.0737 20.8466 13.9805 21.536 11.8368 21.4992C9.69299 21.4624 7.62473 20.7014 5.96825 19.3401C4.31178 17.9788 3.16451 16.0972 2.713 14.0012C2.26148 11.9052 2.53227 9.71807 3.48133 7.79548C4.4304 5.87289 6.00192 4.32788 7.94038 3.41166C9.87883 2.49544 12.0702 2.2619 14.1582 2.74901C16.2463 3.23611 18.1081 4.41522 19.441 6.09461C20.774 7.77401 21.4996 9.85491 21.5 11.999V13.024C21.5 14.282 20.505 15.5 19.175 15.5C17.887 15.5 17 14.358 17 13.024V7.74999C17 7.55108 16.9209 7.36032 16.7803 7.21966C16.6396 7.07901 16.4489 6.99999 16.25 6.99999C16.0511 6.99999 15.8603 7.07901 15.7196 7.21966C15.579 7.36032 15.5 7.55108 15.5 7.74999V8.42999C14.7743 7.71873 13.8491 7.24545 12.8477 7.07321C11.8462 6.90097 10.8161 7.03794 9.89444 7.46587C8.97281 7.8938 8.20343 8.59238 7.6888 9.46855C7.17417 10.3447 6.93871 11.3569 7.01378 12.3703C7.08886 13.3836 7.4709 14.3501 8.10903 15.1408C8.74716 15.9316 9.61108 16.5092 10.5857 16.7966C11.5603 17.0841 12.5994 17.0677 13.5645 16.7498C14.5297 16.4319 15.375 15.8274 15.988 15.017C16.568 16.137 17.654 17 19.175 17C21.495 17 23 14.94 23 13.024V12C22.9997 9.51742 22.1597 7.10793 20.6165 5.16329C19.0732 3.21865 16.9176 1.85321 14.5 1.28899V1.28799ZM15.5 12C15.5 11.5404 15.4094 11.0852 15.2335 10.6606C15.0576 10.236 14.7998 9.85012 14.4748 9.52512C14.1498 9.20012 13.764 8.94231 13.3394 8.76641C12.9147 8.59052 12.4596 8.49999 12 8.49999C11.5403 8.49999 11.0852 8.59052 10.6606 8.76641C10.2359 8.94231 9.85009 9.20012 9.52509 9.52512C9.20008 9.85012 8.94228 10.236 8.76638 10.6606C8.59049 11.0852 8.49996 11.5404 8.49996 12C8.49996 12.9283 8.86871 13.8185 9.52509 14.4749C10.1815 15.1312 11.0717 15.5 12 15.5C12.9282 15.5 13.8185 15.1312 14.4748 14.4749C15.1312 13.8185 15.5 12.9283 15.5 12Z" fill="black"/>
</svg>
