<svg xmlns="http://www.w3.org/2000/svg" width="24" height="24" fill="currentColor" viewBox="0 0 24 24">
  <path fill-rule="evenodd" d="M16 12a4 4 0 1 1-8 0 4 4 0 0 1 8 0Zm-1.5 0a2.5 2.5 0 1 1-5 0 2.5 2.5 0 0 1 5 0Z" clip-rule="evenodd"/>
  <path fill-rule="evenodd" d="M14.858 3.749a1.243 1.243 0 0 1-.258-.473l-.129-.43c-.725-2.461-4.217-2.461-4.942 0l-.129.43c-.05.172-.138.34-.258.473a1.21 1.21 0 0 1-.44.3 1.165 1.165 0 0 1-.516.086 1.205 1.205 0 0 1-.516-.128l-.397-.237C5.017 2.544 2.553 5.02 3.78 7.273l.215.408c.086.157.13.337.14.516a1.173 1.173 0 0 1-.387.945c-.134.12-.301.207-.473.258l-.43.129c-2.461.725-2.461 4.217 0 4.942l.43.129a1.166 1.166 0 0 1 .773.688c.07.165.096.358.086.537a1.1 1.1 0 0 1-.14.494l-.214.408c-1.227 2.256 1.236 4.732 3.492 3.503l.397-.237a1.21 1.21 0 0 1 .516-.128c.179-.01.35.017.516.086.165.068.32.167.44.3.12.133.207.301.258.473l.129.43c.725 2.461 4.217 2.461 4.942 0l.129-.43a1.166 1.166 0 0 1 .688-.773c.165-.07.347-.096.526-.087.179.01.348.044.505.13l.408.236c2.256 1.228 4.721-1.249 3.492-3.503l-.226-.408a1.126 1.126 0 0 1-.14-.494 1.26 1.26 0 0 1 .087-.537 1.2 1.2 0 0 1 .311-.43c.133-.12.29-.207.462-.258l.44-.129c2.462-.725 2.462-4.217 0-4.942l-.44-.129a1.192 1.192 0 0 1-.462-.258 1.202 1.202 0 0 1-.311-.43 1.165 1.165 0 0 1-.086-.515c.01-.18.054-.359.14-.516l.225-.408c1.228-2.256-1.238-4.71-3.492-3.481l-.408.215a1.159 1.159 0 0 1-.505.128 1.213 1.213 0 0 1-.526-.085 1.172 1.172 0 0 1-.43-.301Zm-3.89-.48c.302-1.026 1.762-1.026 2.064 0l.13.435c.106.355.292.727.58 1.047.28.311.613.536.971.684.395.164.803.218 1.18.198.313-.016.718-.08 1.132-.303l.41-.216.01-.005c.95-.518 1.961.513 1.459 1.443l-.002.003-.222.4-.004.008a2.739 2.739 0 0 0-.122 2.324 2.7 2.7 0 0 0 .695.97c.3.27.655.468 1.04.582l.441.129h.001c1.025.303 1.025 1.762 0 2.064l-.44.128-.002.001c-.385.114-.74.311-1.04.581a2.7 2.7 0 0 0-.695.971 2.759 2.759 0 0 0-.198 1.191c.021.401.127.777.32 1.133l.226.409.002.002c.512.945-.517 1.962-1.445 1.472l-.405-.235-.017-.009a2.651 2.651 0 0 0-1.143-.31 2.713 2.713 0 0 0-1.18.199 2.674 2.674 0 0 0-.972.683c-.288.32-.474.693-.58 1.048v.004l-.128.423-.002.007c-.302 1.027-1.762 1.027-2.064 0l-.13-.43v-.004a2.734 2.734 0 0 0-.58-1.047 2.71 2.71 0 0 0-.982-.684 2.665 2.665 0 0 0-1.17-.198 2.695 2.695 0 0 0-1.153.31l-.025.013-.393.233c-.922.48-1.953-.528-1.436-1.479l.005-.009.215-.41c.19-.351.293-.724.314-1.12a2.76 2.76 0 0 0-.198-1.192 2.673 2.673 0 0 0-.684-.97 2.733 2.733 0 0 0-1.047-.58l-.427-.129-.007-.002c-1.027-.302-1.027-1.762 0-2.064l.434-.13a2.733 2.733 0 0 0 1.047-.58 2.673 2.673 0 0 0 .882-2.14 2.717 2.717 0 0 0-.314-1.143l-.216-.41-.005-.01c-.514-.943.51-1.96 1.438-1.478l.392.233.025.014c.428.233.855.294 1.154.31.387.02.783-.039 1.169-.199a2.71 2.71 0 0 0 .982-.684 2.74 2.74 0 0 0 .58-1.047l.128-.427.002-.007Z" clip-rule="evenodd"/>
</svg>
