<svg xmlns="http://www.w3.org/2000/svg" width="24" height="24" fill="currentColor" viewBox="0 0 24 24">
  <path fill-rule="evenodd" d="M1 5.75A2.75 2.75 0 0 1 3.75 3h16.5A2.75 2.75 0 0 1 23 5.75v12.5A2.75 2.75 0 0 1 20.25 21H3.75A2.75 2.75 0 0 1 1 18.25V5.75ZM3.75 4.5a1.25 1.25 0 0 0-1.057.582L12 12.062l9.307-6.98A1.25 1.25 0 0 0 20.25 4.5H3.75ZM2.5 16.44V6.812l5.501 4.125L2.5 16.44Zm.031 2.09c.127.555.625.97 1.219.97h16.5a1.25 1.25 0 0 0 1.219-.97l-6.682-6.683L12.45 13.6a.75.75 0 0 1-.9 0l-2.337-1.752-6.682 6.681v.001ZM16 10.937l5.5 5.503V6.813l-5.501 4.125.001-.001Z" clip-rule="evenodd"/>
</svg>
