<svg xmlns="http://www.w3.org/2000/svg" width="24" height="24" fill="currentColor" viewBox="0 0 24 24">
  <path d="M16 7.75a.75.75 0 0 0-1.28-.53L12 9.94 9.28 7.22a.75.75 0 0 0-1.06 1.06L10.94 11l-2.72 2.72a.75.75 0 0 0 1.06 1.06L12 12.06l2.72 2.72a.75.75 0 1 0 1.06-1.06L13.06 11l2.72-2.72a.75.75 0 0 0 .22-.53Z"/>
  <path fill-rule="evenodd" d="M12.96 1.307a2.75 2.75 0 0 0-1.92 0l-6.25 2.33A2.75 2.75 0 0 0 3 6.214V12c0 2.732 1.463 5.038 3.103 6.774 1.65 1.744 3.563 2.999 4.65 3.642a2.437 2.437 0 0 0 2.493 0c1.088-.642 3-1.898 4.65-3.642C19.538 17.038 21 14.732 21 12V6.214a2.75 2.75 0 0 0-1.79-2.577l-6.25-2.33Zm-1.397 1.406a1.25 1.25 0 0 1 .874 0l6.25 2.33a1.25 1.25 0 0 1 .813 1.171V12c0 2.182-1.173 4.136-2.693 5.744-1.514 1.6-3.293 2.772-4.323 3.38a.935.935 0 0 1-.968 0c-1.029-.608-2.809-1.78-4.323-3.38C5.672 16.136 4.5 14.182 4.5 12V6.213a1.25 1.25 0 0 1 .813-1.17l6.25-2.33Z" clip-rule="evenodd"/>
</svg>
