<svg width="24" height="24" fill="none" xmlns="http://www.w3.org/2000/svg">
  <path d="M16.78 8.22a.75.75 0 0 1 0 1.06l-5.499 5.5a.75.75 0 0 1-1.061 0l-2.5-2.5a.749.749 0 1 1 1.06-1.06l1.97 1.97 4.97-4.97a.75.75 0 0 1 1.06 0Z" fill="#000"/>
  <path fill-rule="evenodd" clip-rule="evenodd" d="M11.04 1.307c.62-.23 1.3-.23 1.92 0l6.25 2.33A2.75 2.75 0 0 1 21 6.214V12c0 2.732-1.462 5.038-3.104 6.774-1.65 1.744-3.562 3-4.65 3.642a2.437 2.437 0 0 1-2.493 0c-1.087-.643-3-1.898-4.65-3.642C4.463 17.038 3 14.732 3 12V6.214a2.75 2.75 0 0 1 1.79-2.577l6.25-2.33Zm1.397 1.406a1.25 1.25 0 0 0-.874 0l-6.25 2.33a1.25 1.25 0 0 0-.813 1.17V12c0 2.182 1.172 4.136 2.693 5.744 1.514 1.6 3.294 2.772 4.323 3.38.304.18.664.18.968 0 1.03-.608 2.809-1.78 4.323-3.38C18.327 16.136 19.5 14.182 19.5 12V6.214a1.25 1.25 0 0 0-.813-1.171l-6.25-2.33Z" fill="#000"/>
</svg>
