<svg xmlns="http://www.w3.org/2000/svg" width="24" height="24" fill="currentColor" viewBox="0 0 24 24">
  <path fill-rule="evenodd" d="M5 1a.75.75 0 0 0 0 1.5v19h-.25a.75.75 0 1 0 0 1.5h14.5a.75.75 0 1 0 0-1.5H19v-19A.75.75 0 1 0 19 1H5Zm4 5a.75.75 0 0 0 0 1.5h1.5a.75.75 0 1 0 0-1.5H9Zm-.75 3.75A.75.75 0 0 1 9 9h1.5a.75.75 0 1 1 0 1.5H9a.75.75 0 0 1-.75-.75ZM9 12a.75.75 0 1 0 0 1.5h1.5a.75.75 0 1 0 0-1.5H9Zm3.75-5.25A.75.75 0 0 1 13.5 6H15a.75.75 0 1 1 0 1.5h-1.5a.75.75 0 0 1-.75-.75ZM13.5 9a.75.75 0 1 0 0 1.5H15A.75.75 0 1 0 15 9h-1.5Zm-.75 3.75a.75.75 0 0 1 .75-.75H15a.75.75 0 1 1 0 1.5h-1.5a.75.75 0 0 1-.75-.75ZM10 21.5v-3.75a.75.75 0 0 1 .75-.75h2.5a.75.75 0 0 1 .75.75v3.75h-4Z"/>
</svg>
