<svg xmlns="http://www.w3.org/2000/svg" width="24" height="24" fill="currentColor" viewBox="0 0 24 24">
  <path d="M2.857 11.005a10.374 10.374 0 0 1 9.163 9.162.75.75 0 1 1-1.49.166 8.874 8.874 0 0 0-7.839-7.838.752.752 0 0 1-.595-1.115.75.75 0 0 1 .761-.375m.067 4.34A6.097 6.097 0 0 1 7.679 20.1a.752.752 0 0 1-.585.885.75.75 0 0 1-.885-.585 4.597 4.597 0 0 0-3.585-3.585.75.75 0 0 1 .3-1.47"/>
  <path d="M19 3a3 3 0 0 1 3 3v12a3 3 0 0 1-3 3h-4.25a.75.75 0 0 1 0-1.5H19a1.5 1.5 0 0 0 1.5-1.5V6A1.5 1.5 0 0 0 19 4.5H5A1.5 1.5 0 0 0 3.5 6v2.25a.75.75 0 0 1-1.5 0V6a3 3 0 0 1 3-3z"/>
</svg>
