<svg xmlns="http://www.w3.org/2000/svg" width="25" height="25" fill="currentColor" viewBox="0 0 25 25">
  <path fill-rule="evenodd" d="M4.45 22.155a37.07 37.07 0 0 1 2.618-1.01c.47-.156.896-.277 1.228-.341.131-.027.264-.043.398-.047a9.62 9.62 0 0 0 4.399 1.058c5.333 0 9.657-4.324 9.657-9.658A9.656 9.656 0 0 0 4.318 8.131a9.657 9.657 0 0 0 .177 8.429v.038a2.32 2.32 0 0 1-.048.382c-.066.34-.191.776-.352 1.255a36.663 36.663 0 0 1-1.21 3.052l-.05.114-.014.03-.004.009a.75.75 0 0 0 .982.998l.648-.282.003-.001Z"/>
</svg>
