<svg xmlns="http://www.w3.org/2000/svg" width="24" height="24" fill="currentColor" viewBox="0 0 24 24">
  <path fill-rule="evenodd" d="M9.529 2.846c.725-2.461 4.217-2.461 4.942 0l.129.43a1.166 1.166 0 0 0 .688.773c.165.07.347.096.526.086.179-.009.348-.043.505-.128l.408-.215c2.254-1.228 4.72 1.225 3.492 3.48l-.226.409a1.234 1.234 0 0 0-.053 1.031c.068.166.178.31.311.43s.29.207.462.258l.44.129c2.462.725 2.462 4.217 0 4.942l-.44.129a1.18 1.18 0 0 0-.462.258 1.2 1.2 0 0 0-.311.43 1.26 1.26 0 0 0-.086.537c.01.179.054.337.14.494l.225.408c1.23 2.254-1.236 4.73-3.492 3.503l-.408-.237a1.16 1.16 0 0 0-.505-.128 1.212 1.212 0 0 0-.526.086c-.166.068-.31.167-.43.3-.12.133-.207.301-.258.473l-.129.43c-.725 2.461-4.217 2.461-4.942 0l-.129-.43a1.235 1.235 0 0 0-.258-.473 1.212 1.212 0 0 0-.44-.3 1.165 1.165 0 0 0-.516-.087c-.179.01-.358.044-.516.13l-.397.236c-2.256 1.23-4.719-1.247-3.492-3.503l.215-.408c.086-.157.13-.315.14-.494a1.26 1.26 0 0 0-.086-.537 1.172 1.172 0 0 0-.301-.43 1.243 1.243 0 0 0-.473-.258l-.43-.129c-2.461-.725-2.461-4.217 0-4.942l.43-.129c.172-.05.34-.138.473-.258a1.173 1.173 0 0 0 .386-.945 1.216 1.216 0 0 0-.14-.516l-.214-.408C2.553 5.019 5.017 2.543 7.273 3.77l.397.237c.158.085.337.119.516.128a1.213 1.213 0 0 0 .956-.387c.12-.133.207-.3.258-.472l.129-.43ZM12 16a4 4 0 1 0 0-8 4 4 0 0 0 0 8"/>
</svg>
