<svg xmlns="http://www.w3.org/2000/svg" width="24" height="24" fill="none" viewBox="0 0 24 24">
  <path fill="currentColor" d="M1.80546 2.80546C2.32118 2.28973 3.02065 2 3.75 2h5.672c.7291.00002 1.4283.28958 1.944.805l.829.829c.2342.23416.5518.3658.883.366h7.172c.7293 0 1.4288.28973 1.9445.80546C22.7103 5.32118 23 6.02065 23 6.75V7H1V4.75c0-.72935.28973-1.42882.80546-1.94454M1 8.5v10.75c0 .7293.28973 1.4288.80546 1.9445C2.32118 21.7103 3.02065 22 3.75 22h16.5c.7293 0 1.4288-.2897 1.9445-.8055.5158-.5157.8055-1.2152.8055-1.9445V8.5z"/>
</svg>
