<svg xmlns="http://www.w3.org/2000/svg" width="24" height="24" fill="currentColor" viewBox="0 0 24 24">
  <path fill-rule="evenodd" d="M3.75 2A1.75 1.75 0 0 0 2 3.75v5.5c0 .966.784 1.75 1.75 1.75h5.5A1.75 1.75 0 0 0 11 9.25v-5.5A1.75 1.75 0 0 0 9.25 2zm11 0A1.75 1.75 0 0 0 13 3.75v5.5c0 .966.784 1.75 1.75 1.75h5.5A1.75 1.75 0 0 0 22 9.25v-5.5A1.75 1.75 0 0 0 20.25 2zM13 14.75c0-.966.784-1.75 1.75-1.75h5.5c.966 0 1.75.784 1.75 1.75v5.5A1.75 1.75 0 0 1 20.25 22h-5.5A1.75 1.75 0 0 1 13 20.25zM3.75 13A1.75 1.75 0 0 0 2 14.75v5.5c0 .966.784 1.75 1.75 1.75h5.5A1.75 1.75 0 0 0 11 20.25v-5.5A1.75 1.75 0 0 0 9.25 13z"/>
</svg>
