<svg xmlns="http://www.w3.org/2000/svg" width="24" height="24" fill="currentColor" viewBox="0 0 24 24">
  <path fill-rule="evenodd" d="M3.75 22A1.75 1.75 0 0 1 2 20.25v-5.5c0-.966.784-1.75 1.75-1.75h5.5c.966 0 1.75.784 1.75 1.75v5.5A1.75 1.75 0 0 1 9.25 22zm11 0A1.75 1.75 0 0 1 13 20.25v-5.5c0-.966.784-1.75 1.75-1.75h5.5c.966 0 1.75.784 1.75 1.75v5.5A1.75 1.75 0 0 1 20.25 22zm-11-11A1.75 1.75 0 0 1 2 9.25v-5.5C2 2.784 2.784 2 3.75 2h5.5c.966 0 1.75.784 1.75 1.75v5.5A1.75 1.75 0 0 1 9.25 11z"/>
  <path d="M18.25 10.25a.75.75 0 1 1-1.5 0v-3h-3a.75.75 0 1 1 0-1.5h3v-3a.75.75 0 1 1 1.5 0v3h3a.75.75 0 1 1 0 1.5h-3z"/>
</svg>
