<svg xmlns="http://www.w3.org/2000/svg" width="24" height="24" fill="none">
  <path fill="currentColor" fill-rule="evenodd" d="M7 7c0-1.905.58-3.407 1.524-4.442A4.688 4.688 0 0 1 12 1c1.271 0 2.536.525 3.476 1.558C16.42 3.593 17 5.095 17 7h.896c.63 0 1.163.47 1.24 1.095l1.478 11.814A2.75 2.75 0 0 1 17.884 23H6.116a2.75 2.75 0 0 1-2.729-3.091L4.863 8.095A1.25 1.25 0 0 1 6.103 7zm1.5 0c0-1.595.482-2.718 1.133-3.433A3.188 3.188 0 0 1 12 2.5c.854 0 1.714.35 2.367 1.067C15.018 4.282 15.5 5.405 15.5 7z"/>
</svg>
