<svg xmlns="http://www.w3.org/2000/svg" width="16" height="16" fill="currentColor" viewBox="0 0 16 16">
  <path d="M11 1a.75.75 0 0 1 .713.516l.687 2.089 2.083.682a.75.75 0 0 1 .001 1.425l-2.089.688-.682 2.083a.75.75 0 0 1-1.425.001L9.6 6.395l-2.083-.682a.75.75 0 0 1-.001-1.425L9.605 3.6l.682-2.083A.75.75 0 0 1 11 1M4.5 8a.75.75 0 0 1 .712.516l.564 1.712 1.707.56a.75.75 0 0 1 .001 1.425l-1.712.563-.56 1.707a.75.75 0 0 1-1.424.001l-.564-1.712-1.707-.56a.75.75 0 0 1-.001-1.425l1.712-.563.56-1.707A.75.75 0 0 1 4.5 8"/>
</svg>
