<svg width="16" height="16" viewBox="0 0 16 16" fill="none" xmlns="http://www.w3.org/2000/svg">
<path fill-rule="evenodd" clip-rule="evenodd" d="M6.016 1C6.1721 1.00338 6.32326 1.0554 6.44838 1.14879C6.57351 1.24219 6.66636 1.37231 6.714 1.521L10.02 11.851L11.49 7.51C11.5402 7.36144 11.6357 7.23234 11.763 7.14086C11.8904 7.04938 12.0432 7.00012 12.2 7H15C15.1989 7 15.3897 7.07902 15.5303 7.21967C15.671 7.36032 15.75 7.55109 15.75 7.75C15.75 7.94891 15.671 8.13968 15.5303 8.28033C15.3897 8.42098 15.1989 8.5 15 8.5H12.738L10.71 14.49C10.6593 14.6393 10.5628 14.7689 10.4343 14.8602C10.3058 14.9516 10.1517 15.0001 9.99403 14.9988C9.83634 14.9976 9.68306 14.9467 9.55595 14.8534C9.42884 14.7601 9.33439 14.6291 9.286 14.479L5.952 4.06L4.504 8.008C4.45116 8.15223 4.35531 8.27676 4.2294 8.36475C4.10349 8.45274 3.95361 8.49995 3.8 8.5H1C0.801088 8.5 0.610322 8.42098 0.46967 8.28033C0.329018 8.13968 0.25 7.94891 0.25 7.75C0.25 7.55109 0.329018 7.36032 0.46967 7.21967C0.610322 7.07902 0.801088 7 1 7H3.276L5.296 1.492C5.406 1.191 5.696 0.993 6.016 1Z" fill="black"/>
</svg>
