<svg width="24" height="24" viewBox="0 0 24 24" fill="none" xmlns="http://www.w3.org/2000/svg">
<path d="M1 4.25C1 3.65326 1.23705 3.08097 1.65901 2.65901C2.08097 2.23705 2.65326 2 3.25 2H20.75C21.3467 2 21.919 2.23705 22.341 2.65901C22.7629 3.08097 23 3.65326 23 4.25V5.75C23 6.52935 22.6037 7.21586 22.0015 7.62H1.9985C1.69136 7.41464 1.43957 7.13674 1.26541 6.81088C1.09096 6.48449 0.999797 6.12008 1 5.75V4.25Z" fill="black"/>
<path fill-rule="evenodd" clip-rule="evenodd" d="M2 9H22V19.25C22 19.9793 21.7103 20.6788 21.1945 21.1945C20.6788 21.7103 19.9793 22 19.25 22H4.75C4.02066 22 3.32118 21.7103 2.80546 21.1945C2.28973 20.6788 2 19.9793 2 19.25V9ZM9.21967 12.2197C9.36032 12.079 9.55109 12 9.75 12H14.25C14.4489 12 14.6397 12.079 14.7803 12.2197C14.921 12.3603 15 12.5511 15 12.75C15 12.9489 14.921 13.1397 14.7803 13.2803C14.6397 13.421 14.4489 13.5 14.25 13.5H9.75C9.55109 13.5 9.36032 13.421 9.21967 13.2803C9.07902 13.1397 9 12.9489 9 12.75C9 12.5511 9.07902 12.3603 9.21967 12.2197Z" fill="black"/>
</svg>
