<svg xmlns="http://www.w3.org/2000/svg" width="24" height="24" fill="currentColor" viewBox="0 0 24 24">
  <path fill-rule="evenodd" d="M6.318 20.645c-.885.303-1.758.64-2.618 1.01h-.003l-.648.283a.75.75 0 0 1-.982-.998l.004-.01.014-.03.05-.113a36.65 36.65 0 0 0 1.21-3.052c.161-.48.286-.915.352-1.255a2.32 2.32 0 0 0 .048-.382v-.038A9.657 9.657 0 1 1 22 11.657c0 5.334-4.324 9.658-9.657 9.658a9.62 9.62 0 0 1-4.399-1.058c-.134.004-.267.02-.398.047-.332.064-.758.185-1.228.34ZM8 9.5A.75.75 0 0 0 8 11h8.5a.75.75 0 0 0 0-1.5H8Zm0 4A.75.75 0 0 0 8 15h5.5a.75.75 0 0 0 0-1.5H8Z" clip-rule="evenodd"/>
</svg>
