<svg xmlns="http://www.w3.org/2000/svg" width="24" height="24" fill="none" viewBox="0 0 24 24">
  <path fill="#000" fill-rule="evenodd" d="M12 1c6.075 0 11 4.925 11 11s-4.925 11-11 11S1 18.075 1 12 5.925 1 12 1Zm-.008 12c-1.613 0-2.87.76-3.69 1.46a7.647 7.647 0 0 0-.948.972 5.26 5.26 0 0 0-.35.473.876.876 0 0 0 1.475.942c.072-.107.15-.21.232-.31a5.9 5.9 0 0 1 .73-.747c.641-.549 1.508-1.04 2.551-1.04 1.043 0 1.912.491 2.553 1.04.264.227.508.477.728.747.082.1.162.203.233.31a.875.875 0 1 0 1.474-.942l-.098-.145a7.643 7.643 0 0 0-1.2-1.3c-.82-.7-2.077-1.46-3.69-1.46ZM8.995 8A.994.994 0 0 0 8 9a.994.994 0 0 0 .995 1h.01A.994.994 0 0 0 10 9a.994.994 0 0 0-.995-1h-.01Zm6 0A.994.994 0 0 0 14 9a.994.994 0 0 0 .995 1h.01A.994.994 0 0 0 16 9a.994.994 0 0 0-.995-1h-.01Z" clip-rule="evenodd"/>
</svg>
