<svg xmlns="http://www.w3.org/2000/svg" width="24" height="24" fill="currentColor" viewBox="0 0 24 24">
  <path fill-rule="evenodd" d="M3.15 7.162C5.14 5.088 8.135 3 12 3c3.865 0 6.86 2.088 8.851 4.162a18.15 18.15 0 0 1 2.285 2.936c.259.417.46.785.599 1.074.063.127.12.256.17.388.022.058.041.117.058.177.012.047.037.147.037.263 0 .116-.025.216-.037.263-.017.06-.036.119-.058.177-.042.113-.1.245-.169.388-.14.289-.34.657-.6 1.074a18.124 18.124 0 0 1-2.286 2.936C18.86 18.912 15.864 21 12 21c-3.865 0-6.86-2.088-8.851-4.162a18.141 18.141 0 0 1-2.285-2.936 11.517 11.517 0 0 1-.599-1.074 4.378 4.378 0 0 1-.17-.388 2.443 2.443 0 0 1-.058-.177A1.06 1.06 0 0 1 0 12c0-.089.013-.177.037-.263.017-.06.036-.119.058-.177.042-.113.1-.245.169-.388.14-.289.34-.657.6-1.074A18.124 18.124 0 0 1 3.15 7.162Zm6.022 2.01a4 4 0 1 1 5.656 5.656 4 4 0 0 1-5.656-5.656Z" clip-rule="evenodd"/>
</svg>
