<svg width="24" height="24" viewBox="0 0 24 24" fill="none" xmlns="http://www.w3.org/2000/svg">
<path fill-rule="evenodd" clip-rule="evenodd" d="M15.0314 16.5H20.25C20.9404 16.5 21.5 15.9404 21.5 15.25V5.75C21.5 5.05964 20.9404 4.5 20.25 4.5H3.75C3.05964 4.5 2.5 5.05964 2.5 5.75V14.625C2.5 15.6605 3.33947 16.5 4.375 16.5H8.96851L12 20.2691L15.0314 16.5ZM23 5.75C23 4.23122 21.7688 3 20.25 3H3.75C2.23122 3 1 4.23122 1 5.75V14.625C1 16.489 2.51104 18 4.375 18H8.24999L11.0802 21.5189C11.5283 22.1552 12.4717 22.1552 12.9198 21.5189L15.7499 18H20.25C21.7688 18 23 16.7688 23 15.25V5.75Z" fill="black"/>
</svg>
