<svg xmlns="http://www.w3.org/2000/svg" width="24" height="24" fill="none" viewBox="0 0 24 24">
  <path fill="#000" fill-rule="evenodd" d="M21.5 12a9.5 9.5 0 1 0-19 0 9.5 9.5 0 0 0 19 0Zm1.5 0c0-6.075-4.925-11-11-11S1 5.925 1 12s4.925 11 11 11 11-4.925 11-11Z" clip-rule="evenodd"/>
  <path fill="#000" d="M8.291 8.293A1.003 1.003 0 0 0 8.995 10h.01a.993.993 0 0 0 .704-.293A1.003 1.003 0 0 0 9.005 8h-.01a.993.993 0 0 0-.704.293Zm6 0A.993.993 0 0 1 14.995 8h.01c.264 0 .517.105.704.293A1.003 1.003 0 0 1 15.005 10h-.01a.993.993 0 0 1-.704-.293 1.003 1.003 0 0 1 0-1.414Zm-6.936 7.139c.216-.265.534-.618.948-.972.82-.7 2.077-1.46 3.69-1.46s2.87.76 3.69 1.46c.448.385.85.822 1.199 1.3l.099.145a.875.875 0 1 1-1.475.942 3.846 3.846 0 0 0-.232-.31c-.22-.27-.465-.52-.73-.747-.64-.549-1.508-1.04-2.551-1.04-1.043 0-1.91.491-2.552 1.04-.265.227-.51.477-.73.747-.083.1-.16.203-.232.31a.875.875 0 0 1-1.474-.942c.106-.165.227-.322.35-.473Z"/>
</svg>
