<svg width="24" height="24" viewBox="0 0 24 24" fill="none" xmlns="http://www.w3.org/2000/svg">
<path fill-rule="evenodd" clip-rule="evenodd" d="M1.80546 2.80546C2.32118 2.28973 3.02065 2 3.75 2H9.422C10.1511 2.00002 10.8503 2.28958 11.366 2.805L12.195 3.634C12.4292 3.86816 12.7468 3.9998 13.078 4H20.25C20.9793 4 21.6788 4.28973 22.1945 4.80546C22.7103 5.32118 23 6.02065 23 6.75V19.25C23 19.9793 22.7103 20.6788 22.1945 21.1945C21.6788 21.7103 20.9793 22 20.25 22H3.75C3.02065 22 2.32118 21.7103 1.80546 21.1945C1.28973 20.6788 1 19.9793 1 19.25V4.75C1 4.02065 1.28973 3.32118 1.80546 2.80546ZM2.5 8.5V19.25C2.5 19.94 3.06 20.5 3.75 20.5H20.25C20.94 20.5 21.5 19.94 21.5 19.25V8.5H2.5ZM21.5 7H2.5V4.75C2.5 4.06 3.06 3.5 3.75 3.5H9.422C9.753 3.5 10.071 3.632 10.305 3.866L11.134 4.695C11.6497 5.21042 12.3489 5.49998 13.078 5.5H20.25C20.94 5.5 21.5 6.06 21.5 6.75V7Z" fill="black"/>
</svg>
