<svg width="24" height="24" viewBox="0 0 24 24" fill="none" xmlns="http://www.w3.org/2000/svg">
<path fill-rule="evenodd" clip-rule="evenodd" d="M4.80546 1.80546C5.32118 1.28973 6.02065 1 6.75 1H17.25C17.6111 1 17.9687 1.07113 18.3024 1.20933C18.636 1.34753 18.9392 1.5501 19.1945 1.80546C19.4499 2.06082 19.6525 2.36398 19.7907 2.69762C19.9289 3.03127 20 3.38886 20 3.75V20.25C20 20.6111 19.9289 20.9687 19.7907 21.3024C19.6525 21.636 19.4499 21.9392 19.1945 22.1945C18.9392 22.4499 18.636 22.6525 18.3024 22.7907C17.9687 22.9289 17.6111 23 17.25 23H6.75C6.02065 23 5.32118 22.7103 4.80546 22.1945C4.28973 21.6788 4 20.9793 4 20.25V3.75C4 3.02065 4.28973 2.32118 4.80546 1.80546ZM6.75 2.5C6.06 2.5 5.5 3.06 5.5 3.75V20.25C5.5 20.94 6.06 21.5 6.75 21.5H17.25C17.94 21.5 18.5 20.94 18.5 20.25V3.75C18.5 3.06 17.94 2.5 17.25 2.5H6.75Z" fill="black"/>
<path d="M7.21967 5.21967C7.36032 5.07902 7.55109 5 7.75 5H16.25C16.4489 5 16.6397 5.07902 16.7803 5.21967C16.921 5.36032 17 5.55109 17 5.75C17 5.94891 16.921 6.13968 16.7803 6.28033C16.6397 6.42098 16.4489 6.5 16.25 6.5H7.75C7.55109 6.5 7.36032 6.42098 7.21967 6.28033C7.07902 6.13968 7 5.94891 7 5.75C7 5.55109 7.07902 5.36032 7.21967 5.21967Z" fill="black"/>
<path d="M7.21967 8.21967C7.36032 8.07902 7.55109 8 7.75 8H16.25C16.4489 8 16.6397 8.07902 16.7803 8.21967C16.921 8.36032 17 8.55109 17 8.75C17 8.94891 16.921 9.13968 16.7803 9.28033C16.6397 9.42098 16.4489 9.5 16.25 9.5H7.75C7.55109 9.5 7.36032 9.42098 7.21967 9.28033C7.07902 9.13968 7 8.94891 7 8.75C7 8.55109 7.07902 8.36032 7.21967 8.21967Z" fill="black"/>
<path d="M7.21967 11.2197C7.36032 11.079 7.55109 11 7.75 11H11.25C11.4489 11 11.6397 11.079 11.7803 11.2197C11.921 11.3603 12 11.5511 12 11.75C12 11.9489 11.921 12.1397 11.7803 12.2803C11.6397 12.421 11.4489 12.5 11.25 12.5H7.75C7.55109 12.5 7.36032 12.421 7.21967 12.2803C7.07902 12.1397 7 11.9489 7 11.75C7 11.5511 7.07902 11.3603 7.21967 11.2197Z" fill="black"/>
</svg>
