<svg xmlns="http://www.w3.org/2000/svg" width="24" height="24" fill="currentColor" viewBox="0 0 24 24">
  <path fill-rule="evenodd" d="M20.25 13c.966 0 1.75.784 1.75 1.75v5.5A1.75 1.75 0 0 1 20.25 22H3.75A1.75 1.75 0 0 1 2 20.25v-5.5c0-.966.784-1.75 1.75-1.75h16.5Zm-16.5 1.5a.25.25 0 0 0-.25.25v5.5c0 .138.112.25.25.25H16.5v-6H3.75Zm14.25 6h2.25a.25.25 0 0 0 .25-.25v-5.5a.25.25 0 0 0-.25-.25H18v6ZM20.25 2c.966 0 1.75.784 1.75 1.75v5.5A1.75 1.75 0 0 1 20.25 11H3.75A1.75 1.75 0 0 1 2 9.25v-5.5C2 2.784 2.784 2 3.75 2h16.5ZM18 9.5h2.25a.25.25 0 0 0 .25-.25v-5.5a.25.25 0 0 0-.25-.25H18v6Zm-14.25-6a.25.25 0 0 0-.25.25v5.5c0 .138.112.25.25.25H16.5v-6H3.75Z" clip-rule="evenodd"/>
</svg>
