<svg xmlns="http://www.w3.org/2000/svg" width="24" height="24" fill="currentColor" viewBox="0 0 24 24">
  <path d="M12 .25a.75.75 0 0 1 .75.75v2a.75.75 0 1 1-1.5 0V1A.75.75 0 0 1 12 .25Z"/>
  <path fill-rule="evenodd" d="M6 12a6 6 0 1 1 12 0 6 6 0 0 1-12 0Zm6-4.5a4.5 4.5 0 1 0 0 9 4.5 4.5 0 0 0 0-9Z" clip-rule="evenodd"/>
  <path d="M12.75 21a.75.75 0 1 0-1.5 0v2a.75.75 0 1 0 1.5 0v-2ZM3.69 3.69a.75.75 0 0 1 1.06 0l1.42 1.42a.75.75 0 0 1-1.06 1.06L3.69 4.75a.75.75 0 0 1 0-1.06Zm15.2 14.14a.75.75 0 1 0-1.06 1.06l1.42 1.42a.75.75 0 1 0 1.06-1.06l-1.42-1.42ZM.25 12a.75.75 0 0 1 .75-.75h2a.75.75 0 1 1 0 1.5H1A.75.75 0 0 1 .25 12ZM21 11.25a.75.75 0 1 0 0 1.5h2a.75.75 0 1 0 0-1.5h-2ZM6.17 17.83a.75.75 0 0 1 0 1.06l-1.42 1.42a.75.75 0 1 1-1.06-1.06l1.42-1.42a.75.75 0 0 1 1.06 0ZM20.31 4.75a.75.75 0 0 0-1.06-1.06l-1.42 1.42a.75.75 0 0 0 1.06 1.06l1.42-1.42Z"/>
</svg>
 