<svg xmlns="http://www.w3.org/2000/svg" width="24" height="24" fill="currentColor" viewBox="0 0 24 24">
  <path d="M6.71967 10.2197C6.86032 10.079 7.05109 10 7.25 10H14.25C14.4489 10 14.6397 10.079 14.7803 10.2197C14.921 10.3603 15 10.5511 15 10.75C15 10.9489 14.921 11.1397 14.7803 11.2803C14.6397 11.421 14.4489 11.5 14.25 11.5H7.25C7.05109 11.5 6.86032 11.421 6.71967 11.2803C6.57902 11.1397 6.5 10.9489 6.5 10.75C6.5 10.5511 6.57902 10.3603 6.71967 10.2197Z" fill="black"/>
  <path fill-rule="evenodd" clip-rule="evenodd" d="M2.98945 6.70842C2.33945 7.95646 2.00004 9.34286 2 10.75C1.99996 12.4167 2.47594 14.0487 3.37194 15.4541C4.26793 16.8595 5.54666 17.9797 7.05769 18.683C8.56873 19.3863 10.2492 19.6434 11.9014 19.4241C13.5536 19.2048 15.1088 18.5182 16.384 17.445L20.72 21.78C20.7887 21.8537 20.8715 21.9128 20.9635 21.9538C21.0555 21.9948 21.1548 22.0168 21.2555 22.0186C21.3562 22.0204 21.4562 22.0019 21.5496 21.9641C21.643 21.9264 21.7278 21.8703 21.799 21.7991C21.8703 21.7278 21.9264 21.643 21.9641 21.5496C22.0018 21.4562 22.0204 21.3562 22.0186 21.2555C22.0168 21.1548 21.9948 21.0555 21.9538 20.9635C21.9128 20.8715 21.8537 20.7887 21.78 20.72L17.445 16.384C18.351 15.3073 18.984 14.028 19.2903 12.6546C19.5965 11.2812 19.567 9.85412 19.2042 8.49452C18.8415 7.13491 18.1562 5.88286 17.2064 4.84455C16.2567 3.80623 15.0705 3.01229 13.7485 2.53007C12.4266 2.04785 11.0078 1.89157 9.61259 2.07449C8.21737 2.2574 6.88683 2.77412 5.73385 3.58081C4.58087 4.3875 3.63946 5.46037 2.98945 6.70842ZM5.62348 5.6235C6.98311 4.26386 8.82718 3.50003 10.75 3.50003C12.6728 3.50003 14.5169 4.26386 15.8765 5.6235C17.2362 6.98314 18 8.82721 18 10.75C18 12.6728 17.2362 14.5169 15.8765 15.8765C14.5169 17.2362 12.6728 18 10.75 18C8.82718 18 6.98311 17.2362 5.62348 15.8765C4.26384 14.5169 3.5 12.6728 3.5 10.75C3.5 8.82721 4.26384 6.98314 5.62348 5.6235Z" fill="black"/>
</svg>
