<svg xmlns="http://www.w3.org/2000/svg" width="16" height="16" fill="currentColor" viewBox="0 0 16 16">
  <path d="M13.5 10.75v-7.5a.75.75 0 0 0-.75-.75h-9.5a.75.75 0 0 0-.75.75v7.5a.75.75 0 0 0 .673.746l.154.008A.75.75 0 0 1 3.25 13 2.25 2.25 0 0 1 1 10.75v-7.5A2.25 2.25 0 0 1 3.25 1h9.5A2.25 2.25 0 0 1 15 3.25v7.5A2.25 2.25 0 0 1 12.75 13a.75.75 0 0 1-.077-1.496l.154-.008a.75.75 0 0 0 .673-.746Z"/>
  <path d="M7.04 10.152c.5-.6 1.42-.6 1.92 0l2.331 2.798c.678.814.1 2.05-.96 2.05H5.67l-.193-.014c-.935-.139-1.403-1.273-.767-2.036l2.331-2.798ZM6.203 13.5h3.594L8 11.343 6.203 13.5Z"/>
</svg>
