<svg xmlns="http://www.w3.org/2000/svg" width="16" height="16" fill="currentColor" viewBox="0 0 16 16">
  <path fill-rule="evenodd" d="M11.5.75a.75.75 0 1 0-1.5 0V1H6V.75a.75.75 0 0 0-1.5 0V1H3.25A2.25 2.25 0 0 0 1 3.25v9.5A2.25 2.25 0 0 0 3.25 15h9.5A2.25 2.25 0 0 0 15 12.75v-9.5A2.25 2.25 0 0 0 12.75 1H11.5V.75Zm-7 2.5V2.5H3.25a.75.75 0 0 0-.75.75V5h11V3.25a.75.75 0 0 0-.75-.75H11.5v.75a.75.75 0 1 1-1.5 0V2.5H6v.75a.75.75 0 0 1-1.5 0Zm9 3.25h-11v6.25c0 .414.336.75.75.75h9.5a.75.75 0 0 0 .75-.75V6.5Z" clip-rule="evenodd"/>
</svg>
