<svg xmlns="http://www.w3.org/2000/svg" width="16" height="16" fill="currentColor" viewBox="0 0 16 16">
  <g clip-path="url(#a)">
    <path d="M11.25 1a.75.75 0 1 1 0 1.5h-9a.75.75 0 0 0-.75.75v6.531l.706-.51a.75.75 0 0 1 .88 1.214L1.19 11.858A.75.75 0 0 1 0 11.25v-8A2.25 2.25 0 0 1 2.25 1h9Z"/>
    <path fill-rule="evenodd" d="M6.25 4A2.25 2.25 0 0 0 4 6.25v4.534a2.25 2.25 0 0 0 2.25 2.25h6.041l2.52 1.824A.75.75 0 0 0 16 14.25v-8A2.25 2.25 0 0 0 13.75 4h-7.5ZM5.5 6.25a.75.75 0 0 1 .75-.75h7.5a.75.75 0 0 1 .75.75v6.531l-1.526-1.104a.75.75 0 0 0-.44-.143H6.25a.75.75 0 0 1-.75-.75V6.25Z" clip-rule="evenodd"/>
  </g>
  <defs>
    <clipPath id="a">
      <path d="M0 0h16v16H0z"/>
    </clipPath>
  </defs>
</svg>
