<svg width="16" height="16" viewBox="0 0 16 16" fill="none" xmlns="http://www.w3.org/2000/svg">
<path fill-rule="evenodd" clip-rule="evenodd" d="M2.65901 0.65901C3.08097 0.237053 3.65326 0 4.25 0H11.75C12.3467 0 12.919 0.237053 13.341 0.65901C13.7629 1.08097 14 1.65326 14 2.25V13.75C14 14.3467 13.7629 14.919 13.341 15.341C12.919 15.7629 12.3467 16 11.75 16H4.25C3.65326 16 3.08097 15.7629 2.65901 15.341C2.23705 14.919 2 14.3467 2 13.75V2.25C2 1.65326 2.23705 1.08097 2.65901 0.65901ZM3.71967 1.71967C3.57902 1.86032 3.5 2.05109 3.5 2.25V13.75C3.5 13.9489 3.57902 14.1397 3.71967 14.2803C3.86032 14.421 4.05109 14.5 4.25 14.5H11.75C11.9489 14.5 12.1397 14.421 12.2803 14.2803C12.421 14.1397 12.5 13.9489 12.5 13.75V2.25C12.5 2.05109 12.421 1.86032 12.2803 1.71967C12.1397 1.57902 11.9489 1.5 11.75 1.5H4.25C4.05109 1.5 3.86032 1.57902 3.71967 1.71967Z" fill="black"/>
<path d="M5.74976 3C5.55084 3 5.36008 3.07902 5.21943 3.21967C5.07877 3.36032 4.99976 3.55109 4.99976 3.75C4.99976 3.94891 5.07877 4.13968 5.21943 4.28033C5.36008 4.42098 5.55084 4.5 5.74976 4.5H10.2498C10.4487 4.5 10.6394 4.42098 10.7801 4.28033C10.9207 4.13968 10.9997 3.94891 10.9997 3.75C10.9997 3.55109 10.9207 3.36032 10.7801 3.21967C10.6394 3.07902 10.4487 3 10.2498 3H5.74976Z" fill="black"/>
<path d="M5.21943 6.21967C5.36008 6.07902 5.55084 6 5.74976 6H10.2498C10.4487 6 10.6394 6.07902 10.7801 6.21967C10.9207 6.36032 10.9997 6.55109 10.9997 6.75C10.9997 6.94891 10.9207 7.13968 10.7801 7.28033C10.6394 7.42098 10.4487 7.5 10.2498 7.5H5.74976C5.55084 7.5 5.36008 7.42098 5.21943 7.28033C5.07877 7.13968 4.99976 6.94891 4.99976 6.75C4.99976 6.55109 5.07877 6.36032 5.21943 6.21967Z" fill="black"/>
<path d="M5.74976 9C5.55084 9 5.36008 9.07902 5.21943 9.21967C5.07877 9.36032 4.99976 9.55109 4.99976 9.75C4.99976 9.94891 5.07877 10.1397 5.21943 10.2803C5.36008 10.421 5.55084 10.5 5.74976 10.5H7.74976C7.94867 10.5 8.13944 10.421 8.28009 10.2803C8.42074 10.1397 8.49976 9.94891 8.49976 9.75C8.49976 9.55109 8.42074 9.36032 8.28009 9.21967C8.13944 9.07902 7.94867 9 7.74976 9H5.74976Z" fill="black"/>
</svg>
