<svg xmlns="http://www.w3.org/2000/svg" width="16" height="16" fill="currentColor" viewBox="0 0 16 16">
  <path d="M13.303 0c.674 0 1.32.268 1.798.745l.154.154a2.543 2.543 0 0 1 0 3.596L4.868 14.884a.751.751 0 0 1-.349.197l-3.586.897a.75.75 0 0 1-.91-.91l.897-3.586a.751.751 0 0 1 .197-.35L11.505.746A2.543 2.543 0 0 1 13.303 0Zm0 1.5c-.242 0-.476.084-.661.236l-.077.07-10.242 10.24-.543 2.173 2.173-.543L14.194 3.435l.07-.077a1.043 1.043 0 0 0-.07-1.399l-.154-.153a1.043 1.043 0 0 0-.737-.306ZM8.75 14a.75.75 0 0 0 0 1.5h6.5a.75.75 0 0 0 0-1.5h-6.5Z"/>
</svg>
