<svg xmlns="http://www.w3.org/2000/svg" width="16" height="16" fill="none" viewBox="0 0 16 16">
  <path fill="#000" d="M1.75 1a.75.75 0 0 0 0 1.5h12.5a.75.75 0 1 0 0-1.5H1.75Zm0 4a.75.75 0 0 0 0 1.5h12.5a.75.75 0 1 0 0-1.5H1.75ZM1 9.75A.75.75 0 0 1 1.75 9h4.5a.75.75 0 0 1 0 1.5h-4.5A.75.75 0 0 1 1 9.75ZM1.75 13a.75.75 0 1 0 0 1.5h4.5a.75.75 0 1 0 0-1.5h-4.5Z"/>
  <path fill="#000" fill-rule="evenodd" d="M12.213 8.516a.75.75 0 0 0-1.426 0l-.56 1.708-1.711.563a.75.75 0 0 0 0 1.426l1.708.56.563 1.711a.75.75 0 0 0 1.426 0l.56-1.708 1.711-.563a.75.75 0 0 0 0-1.426l-1.708-.56-.563-1.711Zm-.912 2.78c.076-.076.144-.162.2-.254a1.36 1.36 0 0 0 .457.459 1.36 1.36 0 0 0-.459.457 1.36 1.36 0 0 0-.457-.459 1.36 1.36 0 0 0 .259-.203Z" clip-rule="evenodd"/>
</svg>