<svg xmlns="http://www.w3.org/2000/svg" width="16" height="16" fill="currentColor" viewBox="0 0 16 16">
  <path fill-rule="evenodd" d="M5.75 4.75a2.25 2.25 0 1 1 4.5 0 2.25 2.25 0 0 1-4.5 0ZM8 1a3.75 3.75 0 1 0 0 7.5A3.75 3.75 0 0 0 8 1Zm0 8.25c-1.43 0-2.826.433-3.987 1.24-1.207.84-2.05 2.263-2.474 3.52a.75.75 0 0 0 .711.99h11.5a.75.75 0 0 0 .71-.99c-.422-1.257-1.266-2.68-2.473-3.52A6.988 6.988 0 0 0 8 9.25Zm-3.13 2.472A5.488 5.488 0 0 1 8 10.75c1.129 0 2.225.342 3.13.972.592.412 1.105 1.064 1.483 1.778H3.387c.378-.714.89-1.366 1.483-1.778Z" clip-rule="evenodd"/>
</svg>
