<svg xmlns="http://www.w3.org/2000/svg" width="16" height="16" fill="currentColor" viewBox="0 0 16 16">
  <path fill-rule="evenodd" d="M8.75 2A2.25 2.25 0 0 1 11 4.25v1.015l3.94-1.786a.75.75 0 0 1 1.06.684v7.672l-.007.1a.75.75 0 0 1-.96.618l-.093-.035L11 10.725v1.025A2.25 2.25 0 0 1 8.75 14h-6.5l-.23-.012A2.25 2.25 0 0 1 0 11.75v-7.5a2.25 2.25 0 0 1 2.02-2.238L2.25 2h6.5ZM2.157 3.506a.75.75 0 0 0-.657.744v7.5a.75.75 0 0 0 .657.743l.131.007H8.75a.75.75 0 0 0 .75-.75v-7.5a.75.75 0 0 0-.75-.75H2.288l-.13.006ZM11 6.91v2.166l3.5 1.592V5.325L11 6.911Z" clip-rule="evenodd"/>
</svg>
