<svg xmlns="http://www.w3.org/2000/svg" width="24" height="24" fill="none" viewBox="0 0 24 24">
  <path fill="currentColor" fill-rule="evenodd" d="M9.003 2c.15792.00075.31157.05132.43906.14451.12748.09319.2223.22425.27094.37449l5.278 16.27 2.294-7.265c.048-.152.1432-.2847.2718-.3789.1286-.0943.2838-.1451.4432-.1451h4c.1989 0 .3897.079.5303.2197.1407.1406.2197.3314.2197.5303 0 .1989-.079.3897-.2197.5303-.1406.1407-.3314.2197-.5303.2197h-3.45l-2.835 8.976c-.0481.1513-.1429.2835-.2709.3775-.128.0939-.2825.1449-.4413.1454-.1588.0006-.3136-.0493-.4423-.1423-.1286-.0931-.2244-.2246-.2735-.3756L8.99 5.151l-2.278 6.836c-.04978.1494-.14534.2794-.27314.3715-.1278.0921-.28134.1416-.43886.1415H2c-.19891 0-.38968-.079-.53033-.2197-.14065-.1406-.21967-.3314-.21967-.5303 0-.1989.07902-.3897.21967-.5303C1.61032 11.079 1.80109 11 2 11h3.46l2.828-8.487c.04994-.14993.14595-.28026.27435-.37239.1284-.09212.28262-.14133.44065-.14061"/>
</svg>
