<svg xmlns="http://www.w3.org/2000/svg" width="24" height="24" fill="none" viewBox="0 0 24 24">
  <path fill="currentColor" d="M6.5 15.25c0 .1989-.07902.3897-.21967.5303C6.13968 15.921 5.94891 16 5.75 16c-.19891 0-.38968-.079-.53033-.2197C5.07902 15.6397 5 15.4489 5 15.25v-9.5c0-.206.083-.393.218-.529l.002-.001.001-.002c.14048-.1399.33074-.21831.529-.218h9.5c.1989 0 .3897.07902.5303.21967.1407.14065.2197.33142.2197.53033 0 .19891-.079.38968-.2197.53033-.1406.14065-.3314.21967-.5303.21967H7.56l11.22 11.22c.0737.0687.1328.1515.1738.2435.041.092.063.1913.0648.292.0018.1007-.0168.2007-.0545.2941-.0377.0934-.0938.1782-.1651.2494-.0712.0713-.156.1274-.2494.1651-.0934.0377-.1934.0563-.2941.0545-.1007-.0018-.2-.0238-.292-.0648-.092-.041-.1748-.1001-.2435-.1738L6.5 7.56v7.69Z"/>
</svg>
