<svg xmlns="http://www.w3.org/2000/svg" width="24" height="24" fill="none" viewBox="0 0 24 24">
  <path fill="currentColor" d="M18.943 5.463c-.0373-.09042-.092-.17264-.161-.242l-.002-.001-.001-.002c-.1404-.1399-.3307-.21831-.529-.218H8.75003c-.19891 0-.38968.07902-.53033.21967-.14065.14065-.21967.33142-.21967.53033 0 .19891.07902.38968.21967.53033.14065.14065.33142.21967.53033.21967H16.44L5.22003 17.72c-.07369.0687-.13279.1515-.17378.2435s-.06303.1913-.06481.292c-.00178.1007.01675.2007.05447.2941.03772.0934.09386.1782.16508.2494.07122.0713.15606.1274.24944.1651.09339.0377.19342.0563.29412.0545.10071-.0018.20002-.0238.29202-.0648.092-.041.1748-.1001.24346-.1738L17.5 7.56v7.69c0 .1989.079.3897.2197.5303.1407.1407.3314.2197.5303.2197.1989 0 .3897-.079.5304-.2197.1406-.1406.2196-.3314.2196-.5303v-9.5c.0001-.09849-.0192-.19603-.057-.287Z"/>
</svg>
