<svg xmlns="http://www.w3.org/2000/svg" width="24" height="24" fill="none" viewBox="0 0 24 24">
  <path fill="currentColor" d="M12.5001 3.75c0-.19891-.079-.38968-.2197-.53033C12.1398 3.07902 11.949 3 11.7501 3c-.1989 0-.3897.07902-.5303.21967-.1407.14065-.2197.33142-.2197.53033v14.645l-5.95998-6.166c-.13818-.1432-.32759-.2257-.52657-.2292-.19897-.0036-.39122.072-.53443.2102-.14322.1382-.22568.3276-.22924.5266-.00357.1989.07206.3912.21024.5344l7.24998 7.5c.07.0726.1539.1303.2466.1698.0928.0394.1926.0597.2934.0597s.2006-.0203.2934-.0597c.0928-.0395.1767-.0972.2466-.1698l7.25-7.5c.0684-.0709.1222-.1546.1583-.2463.0361-.0917.0537-.1896.052-.2881-.0018-.0986-.023-.1958-.0623-.2861-.0393-.0904-.0961-.1721-.167-.2405-.0709-.0684-.1546-.1222-.2463-.1583-.0917-.036-.1896-.0537-.2881-.0519-.0985.0017-.1958.0229-.2861.0622-.0903.0393-.1721.0961-.2405.167l-5.96 6.166V3.75Z"/>
</svg>
