<svg xmlns="http://www.w3.org/2000/svg" width="24" height="24" fill="none" viewBox="0 0 24 24">
  <path fill="currentColor" d="M5.04001 10.771c-.13804.1432-.32733.2257-.52621.2294-.19888.0037-.39107-.0718-.53429-.2099-.14321-.138-.22573-.3273-.22938-.5262-.00366-.1989.07184-.39108.20988-.53429l7.24999-7.5c.07-.07259.1539-.13033.2466-.16976.0928-.03944.1926-.05976.2934-.05976s.2006.02032.2934.05976c.0928.03943.1767.09717.2466.16976l7.25 7.5c.0684.07091.1222.15461.1583.24631.0361.09168.0537.18958.052.28808-.0018.0986-.023.1958-.0623.2861-.0393.0904-.0961.1721-.167.2405-.0709.0684-.1546.1222-.2463.1583-.0917.0361-.1896.0537-.2881.0519-.0985-.0017-.1958-.0229-.2861-.0622-.0904-.0393-.1721-.0961-.2405-.167L12.5 4.60501V20.25c0 .1989-.079.3897-.2197.5303-.1406.1407-.3314.2197-.5303.2197-.1989 0-.3897-.079-.5303-.2197C11.079 20.6397 11 20.4489 11 20.25V4.60501L5.04001 10.771Z"/>
</svg>
