<svg xmlns="http://www.w3.org/2000/svg" width="24" height="24" fill="none" viewBox="0 0 24 24">
  <path fill="currentColor" fill-rule="evenodd" d="M14.5 1.28799c-1.8058-.421516-3.6889-.37968-5.47421.12162-1.7853.5013-3.4149 1.4458-4.73734 2.74571-1.32244 1.29991-2.2948 2.91304-2.8267 4.68947C.929847 10.6212.855664 12.5033 1.2461 14.3161c.39043 1.8127 1.2328 3.4974 2.44882 4.8974 1.21602 1.3999 2.76623 2.4698 4.50654 3.11 1.7403.6403 3.61424.8302 5.44764.5521 1.8334-.278 3.5667-1.0151 5.0389-2.1426.0815-.0586.1505-.133.2028-.2188.0523-.0857.0868-.1811.1015-.2805.0147-.0994.0093-.2007-.0159-.2979-.0252-.0972-.0696-.1884-.1307-.2681-.0611-.0798-.1376-.1464-.225-.196-.0873-.0496-.1837-.0812-.2835-.0928-.0998-.0116-.2009-.0031-.2973.0251-.0964.0282-.1861.0755-.2639.139-1.7023 1.3036-3.7955 1.993-5.9392 1.9562-2.14381-.0368-4.21207-.7978-5.86855-2.1591-1.65647-1.3613-2.80374-3.2429-3.25525-5.3389-.45152-2.096-.18073-4.28313.76833-6.20572.94907-1.92259 2.52059-3.4676 4.45905-4.38382 1.93845-.91622 4.12982-1.14976 6.21782-.66265 2.0881.4871 3.9499 1.66621 5.2828 3.3456 1.333 1.6794 2.0586 3.7603 2.059 5.90439v1.025c0 1.258-.995 2.476-2.325 2.476-1.288 0-2.175-1.142-2.175-2.476V7.74999c0-.19891-.0791-.38967-.2197-.53033-.1407-.14065-.3314-.21967-.5303-.21967-.1989 0-.3897.07902-.5304.21967-.1406.14066-.2196.33142-.2196.53033v.68c-.7257-.71126-1.6509-1.18454-2.6523-1.35678-1.0015-.17224-2.0316-.03527-2.95326.39266-.92163.42793-1.69101 1.12651-2.20564 2.00268-.51463.87615-.75009 1.88835-.67502 2.90175.07508 1.0133.45712 1.9798 1.09525 2.7705.63813.7908 1.50205 1.3684 2.47667 1.6558.9746.2875 2.0137.2711 2.9788-.0468.9652-.3179 1.8105-.9224 2.4235-1.7328.58 1.12 1.666 1.983 3.187 1.983C21.495 17 23 14.94 23 13.024V12c-.0003-2.48258-.8403-4.89207-2.3835-6.83671-1.5433-1.94464-3.6989-3.31008-6.1165-3.8743v-.001ZM15.5 12c0-.4596-.0906-.9148-.2665-1.3394s-.4337-.81048-.7587-1.13548c-.325-.325-.7108-.58281-1.1354-.75871-.4247-.17589-.8798-.26642-1.3394-.26642-.4597 0-.9148.09053-1.3394.26642-.4247.1759-.81051.43371-1.13551.75871-.32501.325-.58281.71088-.75871 1.13548-.17589.4246-.26642.8798-.26642 1.3394 0 .9283.36875 1.8185 1.02513 2.4749C10.1815 15.1312 11.0717 15.5 12 15.5c.9282 0 1.8185-.3688 2.4748-1.0251C15.1312 13.8185 15.5 12.9283 15.5 12Z"/>
</svg>
