<svg xmlns="http://www.w3.org/2000/svg" width="24" height="24" fill="currentColor" viewBox="0 0 24 24">
  <path fill-rule="evenodd" d="M6.75 4a.75.75 0 0 0 0 1.5h.662l1.441 2.883a.25.25 0 0 1 0 .226l-4.657 9.118C3.432 19.224 4.52 21 6.2 21h11.6c1.68 0 2.768-1.776 2.004-3.273l-4.656-9.118a.25.25 0 0 1 0-.226l1.44-2.883h.662a.75.75 0 0 0 0-1.5zm8.162 1.5H9.088l1.106 2.213a1.75 1.75 0 0 1-.007 1.578L8.805 12h6.39l-1.383-2.709a1.75 1.75 0 0 1-.007-1.578zm-9.38 12.909L8.04 13.5h7.922l2.507 4.909A.75.75 0 0 1 17.8 19.5H6.2a.75.75 0 0 1-.668-1.091"/>
</svg>
