<svg xmlns="http://www.w3.org/2000/svg" width="24" height="24" fill="currentColor" viewBox="0 0 24 24">
  <path fill-rule="evenodd" d="M4.25 3A.75.75 0 0 1 5 2.25h14a.75.75 0 0 1 0 1.5v16.5h.25a.75.75 0 0 1 0 1.5H4.75a.75.75 0 0 1 0-1.5H5V3.75A.75.75 0 0 1 4.25 3m2.25.75v16.5H9v-2.875c0-1.035.84-1.875 1.875-1.875h2.25c1.035 0 1.875.84 1.875 1.875v2.875h2.5V3.75zm7 16.5v-2.875a.375.375 0 0 0-.375-.375h-2.25a.375.375 0 0 0-.375.375v2.875zM8.25 6.75A.75.75 0 0 1 9 6h1.5a.75.75 0 0 1 0 1.5H9a.75.75 0 0 1-.75-.75m4.5 0A.75.75 0 0 1 13.5 6H15a.75.75 0 0 1 0 1.5h-1.5a.75.75 0 0 1-.75-.75m-4.5 3A.75.75 0 0 1 9 9h1.5a.75.75 0 0 1 0 1.5H9a.75.75 0 0 1-.75-.75m4.5 0A.75.75 0 0 1 13.5 9H15a.75.75 0 0 1 0 1.5h-1.5a.75.75 0 0 1-.75-.75m-4.5 3A.75.75 0 0 1 9 12h1.5a.75.75 0 0 1 0 1.5H9a.75.75 0 0 1-.75-.75m4.5 0a.75.75 0 0 1 .75-.75H15a.75.75 0 0 1 0 1.5h-1.5a.75.75 0 0 1-.75-.75"/>
</svg>
