<svg xmlns="http://www.w3.org/2000/svg" width="25" height="24" fill="currentColor" viewBox="0 0 25 24">
  <path d="M12.5 1a.75.75 0 0 1 .75.75v1.5a.75.75 0 1 1-1.5 0v-1.5A.75.75 0 0 1 12.5 1M23 11.75a.75.75 0 0 1-.75.75h-1.5a.75.75 0 1 1 0-1.5h1.5a.75.75 0 0 1 .75.75m-18.75.75a.75.75 0 1 0 0-1.5h-1.5a.75.75 0 1 0 0 1.5zm15.78-8.28a.75.75 0 0 1 0 1.06l-1.06 1.061a.75.75 0 0 1-1.061-1.06l1.06-1.061a.75.75 0 0 1 1.061 0M4.97 5.28a.75.75 0 0 1 1.06-1.06l1.061 1.06a.75.75 0 0 1-1.06 1.061zM10 22.25a.75.75 0 0 1 .75-.75h3.5a.75.75 0 1 1 0 1.5h-3.5a.75.75 0 0 1-.75-.75"/>
  <path fill-rule="evenodd" d="M12.5 5.5a6 6 0 0 0-6 6c0 1.993 1.186 3.18 2.287 4.281l.316.318a.7.7 0 0 1 .196.494v.658a2.25 2.25 0 0 0 2.25 2.249h1.901a2.25 2.25 0 0 0 2.25-2.25v-.629a.73.73 0 0 1 .216-.52l.122-.118c1.166-1.132 2.462-2.39 2.462-4.483a6 6 0 0 0-6-6m-4.5 6a4.5 4.5 0 1 1 9 0c0 1.436-.85 2.28-2.13 3.527-.433.421-.67.998-.67 1.594v.629a.75.75 0 0 1-.75.75h-1.9a.75.75 0 0 1-.75-.75l-.001-.658c0-.569-.216-1.127-.626-1.544l-.264-.268C8.739 13.596 8 12.848 8 11.5"/>
</svg>
