<svg xmlns="http://www.w3.org/2000/svg" width="24" height="24" fill="currentColor" viewBox="0 0 24 24">
  <path fill-rule="evenodd" d="M18.45 1.754a2.574 2.574 0 0 1 3.64 0l.156.157a2.574 2.574 0 0 1 0 3.64L10.93 16.868a.75.75 0 0 1-.349.198l-3.648.912a.75.75 0 0 1-.91-.91l.912-3.648a.75.75 0 0 1 .198-.349L18.449 1.754Zm-.917 3.037L8.34 13.985l-.558 2.234 2.234-.558 9.194-9.194-1.676-1.676Zm1.057-1.057 1.686 1.686.949-.949a1.042 1.042 0 0 0 0-1.474l-.212-.212a1.043 1.043 0 0 0-1.474 0l-.949.95Z"/>
  <path d="M3.5 4.75c0-.69.56-1.25 1.25-1.25h7.5a.75.75 0 1 0 0-1.5h-7.5A2.75 2.75 0 0 0 2 4.75v14.5A2.75 2.75 0 0 0 4.75 22h14.5A2.75 2.75 0 0 0 22 19.25v-7.5a.75.75 0 1 0-1.5 0v7.5c0 .69-.56 1.25-1.25 1.25H4.75c-.69 0-1.25-.56-1.25-1.25z"/>
</svg>
