<svg xmlns="http://www.w3.org/2000/svg" width="24" height="24" fill="none" viewBox="0 0 24 24">
  <path fill="currentColor" fill-rule="evenodd" d="M1.80546 2.80546C2.32118 2.28973 3.02065 2 3.75 2h5.672c.7291.00002 1.4283.28958 1.944.805l.829.829c.2342.23416.5518.3658.883.366h7.172c.7293 0 1.4288.28973 1.9445.80546C22.7103 5.32118 23 6.02065 23 6.75v12.5c0 .7293-.2897 1.4288-.8055 1.9445-.5157.5158-1.2152.8055-1.9445.8055H3.75c-.72935 0-1.42882-.2897-1.94454-.8055C1.28973 20.6788 1 19.9793 1 19.25V4.75c0-.72935.28973-1.42882.80546-1.94454M2.5 8.5v10.75c0 .69.56 1.25 1.25 1.25h16.5c.69 0 1.25-.56 1.25-1.25V8.5zm19-1.5h-19V4.75c0-.69.56-1.25 1.25-1.25h5.672c.331 0 .649.132.883.366l.829.829c.5157.51542 1.2149.80498 1.944.805h7.172c.69 0 1.25.56 1.25 1.25z"/>
</svg>
