<svg xmlns="http://www.w3.org/2000/svg" width="22" height="22" fill="currentColor" viewBox="0 0 22 22">
  <path fill-rule="evenodd" d="m11.627 20.484 3.73-8.393V1.5H4.377A1.25 1.25 0 0 0 3.14 2.562l-1.442 9.5A1.25 1.25 0 0 0 2.934 13.5h5.173a1.75 1.75 0 0 1 1.75 1.75v3.225a2.025 2.025 0 0 0 1.77 2.009M16.857 1.5v10h2.25c.69 0 1.25-.56 1.25-1.25v-7.5c0-.69-.56-1.25-1.25-1.25zM16.594 13l-3.71 8.349a1.096 1.096 0 0 1-1.002.651 3.525 3.525 0 0 1-3.525-3.525V15.25a.25.25 0 0 0-.25-.25H2.934a2.749 2.749 0 0 1-2.72-3.163l1.443-9.5A2.75 2.75 0 0 1 4.377 0h14.73a2.75 2.75 0 0 1 2.75 2.75v7.5a2.75 2.75 0 0 1-2.75 2.75z"/>
</svg>
