<svg xmlns="http://www.w3.org/2000/svg" width="24" height="24" fill="none" viewBox="0 0 24 24">
  <path fill="currentColor" d="M11.771 5.03999c.1432-.13817.2257-.32758.2292-.52656.0036-.19898-.072-.39122-.2102-.53444-.1382-.14321-.3276-.22567-.5266-.22924-.1989-.00356-.3912.07207-.5344.21024L3.229 11.21c-.07259.07-.13032.1538-.16976.2466-.03943.0928-.05976.1926-.05976.2934s.02033.2006.05976.2934c.03944.0928.09717.1766.16976.2466l7.5 7.25c.0709.0684.1546.1222.2463.1583.0917.036.1896.0537.2881.0519.0986-.0017.1958-.0229.2861-.0622.0904-.0393.1721-.0961.2405-.167.0684-.0709.1222-.1546.1583-.2463.036-.0917.0537-.1896.0519-.2881-.0017-.0986-.0229-.1958-.0622-.2861-.0393-.0904-.0961-.1721-.167-.2405L5.605 12.5H20.25c.1989 0 .3897-.079.5303-.2197.1407-.1406.2197-.3314.2197-.5303 0-.1989-.079-.3897-.2197-.5303C20.6397 11.079 20.4489 11 20.25 11H5.605l6.166-5.96001Z"/>
</svg>
