<svg xmlns="http://www.w3.org/2000/svg" width="24" height="24" fill="none" viewBox="0 0 24 24">
  <path fill="currentColor" d="M18.78 6.28c.1325-.14218.2046-.33022.2012-.52452-.0035-.1943-.0822-.37969-.2196-.5171-.1374-.13742-.3228-.21613-.5171-.21956-.1943-.00342-.3823.0687-.5245.20118L6.5 16.44V8.75c0-.19891-.07902-.38968-.21967-.53033C6.13968 8.07902 5.94891 8 5.75 8c-.19891 0-.38968.07902-.53033.21967C5.07902 8.36032 5 8.55109 5 8.75v9.5c-.00031.1983.0781.3885.218.529l.002.001.001.002c.14048.1399.33075.2183.529.218h9.5c.1989 0 .3897-.079.5303-.2197.1407-.1406.2197-.3314.2197-.5303 0-.1989-.079-.3897-.2197-.5303-.1406-.1407-.3314-.2197-.5303-.2197H7.56L18.78 6.28Z"/>
</svg>
