<svg xmlns="http://www.w3.org/2000/svg" width="24" height="24" fill="none" viewBox="0 0 24 24">
  <path fill="currentColor" d="M12.229 5.03999c-.1432-.13817-.2257-.32758-.2292-.52656-.0036-.19898.072-.39122.2102-.53444.1382-.14321.3276-.22567.5266-.22924.1989-.00356.3912.07207.5344.21024l7.5 7.25001c.0726.07.1303.1538.1698.2466.0394.0928.0597.1926.0597.2934s-.0203.2006-.0597.2934c-.0395.0928-.0972.1766-.1698.2466l-7.5 7.25c-.0709.0684-.1546.1222-.2463.1583-.0917.036-.1896.0537-.2881.0519-.0986-.0017-.1958-.0229-.2861-.0622-.0904-.0393-.1721-.0961-.2405-.167-.0684-.0709-.1222-.1546-.1583-.2463-.036-.0917-.0537-.1896-.0519-.2881.0017-.0986.0229-.1958.0622-.2861.0393-.0904.0961-.1721.167-.2405l6.166-5.96H3.75c-.19891 0-.38968-.079-.53033-.2197C3.07902 12.1397 3 11.9489 3 11.75c0-.1989.07902-.3897.21967-.5303C3.36032 11.079 3.55109 11 3.75 11h14.645l-6.166-5.96001Z"/>
</svg>
