<svg xmlns="http://www.w3.org/2000/svg" width="16" height="16" fill="none" viewBox="0 0 16 16">
  <path fill="currentColor" d="M.65901 1.65901C1.08097 1.23705 1.65326 1 2.25 1h4.379c.29555.00013.58817.05848.86116.17173.27298.11324.52099.27916.72984.48827l1.121 1.12c.14052.14069.33116.21983.53.22h3.879c.5967 0 1.169.23705 1.591.65901.4219.42196.659.99425.659 1.59099v.25H0V3.25c0-.59674.237053-1.16903.65901-1.59099ZM0 7v5.75c0 .5967.237053 1.169.65901 1.591.42196.4219.99425.659 1.59099.659h11.5c.5967 0 1.169-.2371 1.591-.659.4219-.422.659-.9943.659-1.591V7H0Z"/>
</svg>
