<svg width="16" height="16" viewBox="0 0 16 16" fill="none" xmlns="http://www.w3.org/2000/svg">
<path d="M8.49988 2.75C8.49988 2.55109 8.42087 2.36032 8.28021 2.21967C8.13956 2.07902 7.9488 2 7.74988 2C7.55097 2 7.36021 2.07902 7.21955 2.21967C7.0789 2.36032 6.99988 2.55109 6.99988 2.75V11.364L4.04488 8.235C3.90717 8.09529 3.7202 8.01509 3.52406 8.01161C3.32791 8.00813 3.13821 8.08163 2.99563 8.21637C2.85304 8.35111 2.76892 8.53635 2.76131 8.73237C2.75369 8.9284 2.82318 9.11961 2.95488 9.265L7.20288 13.763C7.21103 13.7718 7.21937 13.7805 7.22788 13.789C7.36487 13.9215 7.54732 13.9966 7.73788 13.999L7.74988 14H7.76188C7.86194 13.9985 7.96067 13.977 8.05223 13.9366C8.14379 13.8962 8.22631 13.8379 8.29488 13.765L12.5449 9.265C12.6766 9.11961 12.7461 8.9284 12.7385 8.73237C12.7308 8.53635 12.6467 8.35111 12.5041 8.21637C12.3616 8.08163 12.1719 8.00813 11.9757 8.01161C11.7796 8.01509 11.5926 8.09529 11.4549 8.235L8.49988 11.364V2.75Z" fill="black"/>
</svg>
