<svg width="16" height="16" viewBox="0 0 16 16" fill="none" xmlns="http://www.w3.org/2000/svg">
<path d="M3.057 3.463C3.11355 3.32578 3.20964 3.20849 3.33304 3.12604C3.45645 3.04359 3.60159 2.99972 3.75 3H9.25C9.44891 3 9.63968 3.07902 9.78033 3.21967C9.92098 3.36032 10 3.55109 10 3.75C10 3.94891 9.92098 4.13968 9.78033 4.28033C9.63968 4.42098 9.44891 4.5 9.25 4.5H5.56L12.78 11.72C12.8537 11.7887 12.9128 11.8715 12.9538 11.9635C12.9948 12.0555 13.0168 12.1548 13.0186 12.2555C13.0204 12.3562 13.0018 12.4562 12.9641 12.5496C12.9264 12.643 12.8703 12.7278 12.799 12.799C12.7278 12.8703 12.643 12.9264 12.5496 12.9641C12.4562 13.0018 12.3562 13.0204 12.2555 13.0186C12.1548 13.0168 12.0555 12.9948 11.9635 12.9538C11.8715 12.9128 11.7887 12.8537 11.72 12.78L4.5 5.56V9.25C4.5 9.44891 4.42098 9.63968 4.28033 9.78033C4.13968 9.92098 3.94891 10 3.75 10C3.55109 10 3.36032 9.92098 3.21967 9.78033C3.07902 9.63968 3 9.44891 3 9.25V3.75C3 3.648 3.02 3.551 3.057 3.463Z" fill="black"/>
</svg>
