<svg width="16" height="16" viewBox="0 0 16 16" fill="none" xmlns="http://www.w3.org/2000/svg">
<path d="M4.045 7.765C3.97798 7.83898 3.89687 7.89884 3.80642 7.94107C3.71597 7.9833 3.618 8.00705 3.51826 8.01093C3.41851 8.0148 3.31899 7.99873 3.22554 7.96364C3.13208 7.92856 3.04657 7.87517 2.97402 7.80661C2.90147 7.73806 2.84333 7.6557 2.80302 7.56438C2.7627 7.47306 2.74103 7.37461 2.73925 7.27481C2.73748 7.175 2.75565 7.07585 2.7927 6.98315C2.82974 6.89046 2.88492 6.80609 2.955 6.735L7.205 2.235C7.27509 2.16086 7.35958 2.10179 7.45329 2.06143C7.547 2.02106 7.64796 2.00024 7.75 2.00024C7.85203 2.00024 7.95299 2.02106 8.0467 2.06143C8.14041 2.10179 8.2249 2.16086 8.295 2.235L12.545 6.735C12.6767 6.8804 12.7462 7.0716 12.7386 7.26763C12.731 7.46366 12.6468 7.64889 12.5043 7.78363C12.3617 7.91837 12.172 7.99187 11.9758 7.98839C11.7797 7.98491 11.5927 7.90471 11.455 7.765L8.5 4.636V13.25C8.5 13.4489 8.42098 13.6397 8.28032 13.7803C8.13967 13.921 7.94891 14 7.75 14C7.55108 14 7.36032 13.921 7.21967 13.7803C7.07901 13.6397 7 13.4489 7 13.25V4.636L4.045 7.765Z" fill="black"/>
</svg>
