<svg width="16" height="16" viewBox="0 0 16 16" fill="none" xmlns="http://www.w3.org/2000/svg">
<path fill-rule="evenodd" clip-rule="evenodd" d="M9.81797 0.209998C8.50461 -0.0966931 7.13503 -0.0663658 5.83653 0.298161C4.53803 0.662687 3.35277 1.34958 2.39091 2.29499C1.42905 3.2404 0.721824 4.41365 0.33496 5.70567C-0.0519041 6.99768 -0.105844 8.36654 0.178153 9.68499C0.462151 11.0034 1.07487 12.2287 1.95935 13.2469C2.84383 14.265 3.97137 15.0431 5.23716 15.5086C6.50294 15.9742 7.86589 16.1122 9.19931 15.9098C10.5327 15.7074 11.7933 15.1712 12.864 14.351C12.9455 14.2924 13.0145 14.218 13.0668 14.1322C13.1191 14.0465 13.1536 13.9511 13.1683 13.8517C13.183 13.7523 13.1776 13.651 13.1524 13.5538C13.1272 13.4566 13.0828 13.3654 13.0217 13.2857C12.9606 13.2059 12.8841 13.1393 12.7967 13.0897C12.7094 13.0401 12.613 13.0085 12.5132 12.9969C12.4134 12.9853 12.3123 12.9938 12.2159 13.022C12.1195 13.0502 12.0298 13.0975 11.952 13.161C10.7872 14.053 9.35503 14.5247 7.88821 14.4994C6.4214 14.4742 5.00625 13.9535 3.87288 13.0221C2.7395 12.0906 1.95456 10.8031 1.64568 9.36897C1.33679 7.93483 1.52214 6.43837 2.17158 5.12292C2.82103 3.80747 3.89636 2.7504 5.22274 2.12359C6.54912 1.49678 8.04854 1.33709 9.47718 1.67049C10.9058 2.00389 12.1797 2.81078 13.0916 3.95994C14.0035 5.10911 14.4999 6.53297 14.5 8V9C14.5 9.908 13.96 10.5 13.25 10.5C12.85 10.5 12.559 10.343 12.356 10.101C12.142 9.847 12 9.463 12 9V4.75C12 4.55109 11.921 4.36032 11.7803 4.21967C11.6396 4.07902 11.4489 4 11.25 4C11.0511 4 10.8603 4.07902 10.7196 4.21967C10.579 4.36032 10.5 4.55109 10.5 4.75V4.877C9.89126 4.38964 9.15337 4.09083 8.37708 4.01732C7.60078 3.94381 6.81992 4.0988 6.13055 4.46323C5.44118 4.82766 4.87336 5.38564 4.49693 6.06853C4.1205 6.75143 3.95188 7.52946 4.01181 8.30692C4.07174 9.08438 4.3576 9.82738 4.83424 10.4445C5.31088 11.0617 5.9575 11.526 6.69458 11.7805C7.43165 12.035 8.22704 12.0685 8.9829 11.8769C9.73876 11.6852 10.4221 11.2769 10.949 10.702C11.025 10.83 11.111 10.952 11.207 11.066C11.691 11.643 12.401 12 13.25 12C15.04 12 16 10.461 16 9V8C15.9998 6.19443 15.3889 4.44202 14.2665 3.02769C13.1441 1.61337 11.5763 0.620312 9.81797 0.209998ZM10.5 8C10.5 7.33696 10.2366 6.70107 9.76774 6.23223C9.29889 5.76339 8.66301 5.5 7.99997 5.5C7.33693 5.5 6.70104 5.76339 6.2322 6.23223C5.76336 6.70107 5.49997 7.33696 5.49997 8C5.49997 8.66304 5.76336 9.29892 6.2322 9.76777C6.70104 10.2366 7.33693 10.5 7.99997 10.5C8.66301 10.5 9.29889 10.2366 9.76774 9.76777C10.2366 9.29892 10.5 8.66304 10.5 8Z" fill="black"/>
</svg>
