<svg width="16" height="16" viewBox="0 0 16 16" fill="none" xmlns="http://www.w3.org/2000/svg">
<path d="M7.765 4.045C7.83899 3.97798 7.89885 3.89687 7.94108 3.80642C7.98331 3.71597 8.00705 3.618 8.01093 3.51826C8.01481 3.41851 7.99873 3.31899 7.96365 3.22554C7.92856 3.13208 7.87518 3.04657 7.80662 2.97402C7.73806 2.90147 7.6557 2.84333 7.56438 2.80302C7.47306 2.7627 7.37462 2.74103 7.27481 2.73925C7.175 2.73748 7.07585 2.75565 6.98315 2.7927C6.89046 2.82974 6.8061 2.88492 6.735 2.955L2.237 7.203C2.16206 7.2729 2.10228 7.35747 2.06138 7.45144C2.02048 7.54541 1.99932 7.64679 1.99923 7.74928C1.99914 7.85177 2.0201 7.95318 2.06083 8.04723C2.10157 8.14127 2.16119 8.22595 2.236 8.29599L6.735 12.546C6.87968 12.6826 7.07269 12.7561 7.27157 12.7504C7.47045 12.7447 7.65892 12.6602 7.7955 12.5155C7.93209 12.3708 8.00561 12.1778 7.99989 11.9789C7.99417 11.78 7.90968 11.5916 7.765 11.455L4.636 8.5H13.25C13.4489 8.5 13.6397 8.42098 13.7803 8.28032C13.921 8.13967 14 7.94891 14 7.75C14 7.55108 13.921 7.36032 13.7803 7.21967C13.6397 7.07901 13.4489 7 13.25 7H4.636L7.765 4.045Z" fill="black"/>
</svg>
