<svg width="16" height="16" viewBox="0 0 16 16" fill="none" xmlns="http://www.w3.org/2000/svg">
<path d="M12.943 3.463C12.8865 3.32578 12.7904 3.20849 12.667 3.12604C12.5436 3.04359 12.3984 2.99972 12.25 3H6.75003C6.55112 3 6.36035 3.07902 6.2197 3.21967C6.07905 3.36032 6.00003 3.55109 6.00003 3.75C6.00003 3.94891 6.07905 4.13968 6.2197 4.28033C6.36035 4.42098 6.55112 4.5 6.75003 4.5H10.44L3.22003 11.72C3.14634 11.7887 3.08724 11.8715 3.04625 11.9635C3.00526 12.0555 2.98322 12.1548 2.98144 12.2555C2.97966 12.3562 2.99819 12.4562 3.03591 12.5496C3.07363 12.643 3.12977 12.7278 3.20099 12.799C3.27221 12.8703 3.35705 12.9264 3.45043 12.9641C3.54382 13.0018 3.64385 13.0204 3.74455 13.0186C3.84526 13.0168 3.94457 12.9948 4.03657 12.9538C4.12857 12.9128 4.21137 12.8537 4.28003 12.78L11.5 5.56V9.25C11.5 9.44891 11.579 9.63968 11.7197 9.78033C11.8604 9.92098 12.0511 10 12.25 10C12.4489 10 12.6397 9.92098 12.7804 9.78033C12.921 9.63968 13 9.44891 13 9.25V3.75C13.0001 3.65151 12.9808 3.55397 12.943 3.463Z" fill="black"/>
</svg>
