<svg width="16" height="16" viewBox="0 0 16 16" fill="none" xmlns="http://www.w3.org/2000/svg">
<path d="M8.235 4.045C8.16102 3.97798 8.10116 3.89687 8.05893 3.80642C8.0167 3.71597 7.99295 3.618 7.98907 3.51826C7.9852 3.41851 8.00127 3.31899 8.03636 3.22554C8.07144 3.13208 8.12483 3.04657 8.19339 2.97402C8.26195 2.90147 8.3443 2.84333 8.43562 2.80302C8.52694 2.7627 8.62539 2.74103 8.72519 2.73925C8.825 2.73748 8.92416 2.75565 9.01685 2.7927C9.10954 2.82974 9.19391 2.88492 9.265 2.955L13.765 7.205C13.8391 7.27509 13.8982 7.35958 13.9386 7.45329C13.9789 7.547 13.9998 7.64796 13.9998 7.75C13.9998 7.85203 13.9789 7.95299 13.9386 8.0467C13.8982 8.14041 13.8391 8.2249 13.765 8.295L9.265 12.545C9.11961 12.6767 8.9284 12.7462 8.73237 12.7386C8.53635 12.731 8.35111 12.6468 8.21637 12.5043C8.08163 12.3617 8.00813 12.172 8.01161 11.9758C8.01509 11.7797 8.09529 11.5927 8.235 11.455L11.364 8.5H2.75C2.55109 8.5 2.36032 8.42098 2.21967 8.28032C2.07902 8.13967 2 7.94891 2 7.75C2 7.55108 2.07902 7.36032 2.21967 7.21967C2.36032 7.07901 2.55109 7 2.75 7H11.364L8.235 4.045Z" fill="black"/>
</svg>
