<svg width="16" height="16" viewBox="0 0 16 16" fill="none" xmlns="http://www.w3.org/2000/svg">
<path d="M3.22009 4.28C3.08761 4.13782 3.01549 3.94978 3.01892 3.75548C3.02234 3.56118 3.10106 3.37579 3.23847 3.23838C3.37588 3.10096 3.56127 3.02225 3.75557 3.01882C3.94987 3.0154 4.13792 3.08752 4.28009 3.22L11.5001 10.44V6.75C11.5001 6.55109 11.5791 6.36032 11.7198 6.21967C11.8604 6.07902 12.0512 6 12.2501 6C12.449 6 12.6398 6.07902 12.7804 6.21967C12.9211 6.36032 13.0001 6.55109 13.0001 6.75V12.25C13.0005 12.3486 12.9814 12.4463 12.9438 12.5375C12.9063 12.6287 12.851 12.7115 12.7813 12.7812C12.7116 12.8509 12.6287 12.9062 12.5376 12.9437C12.4464 12.9813 12.3487 13.0004 12.2501 13H6.75009C6.55118 13 6.36041 12.921 6.21976 12.7803C6.07911 12.6397 6.00009 12.4489 6.00009 12.25C6.00009 12.0511 6.07911 11.8603 6.21976 11.7197C6.36041 11.579 6.55118 11.5 6.75009 11.5H10.4401L3.22009 4.28Z" fill="black"/>
</svg>
