<svg width="16" height="16" viewBox="0 0 16 16" fill="none" xmlns="http://www.w3.org/2000/svg">
<path d="M12.78 4.28C12.9125 4.13782 12.9846 3.94978 12.9812 3.75548C12.9777 3.56118 12.899 3.37579 12.7616 3.23838C12.6242 3.10096 12.4388 3.02225 12.2445 3.01882C12.0502 3.0154 11.8622 3.08752 11.72 3.22L4.5 10.44V6.75C4.5 6.55109 4.42099 6.36032 4.28033 6.21967C4.13968 6.07902 3.94892 6 3.75 6C3.55109 6 3.36032 6.07902 3.21967 6.21967C3.07902 6.36032 3 6.55109 3 6.75V12.25C2.99974 12.3486 3.01896 12.4462 3.05656 12.5373C3.09415 12.6284 3.14939 12.7112 3.21908 12.7809C3.28878 12.8506 3.37156 12.9058 3.46268 12.9434C3.55379 12.981 3.65144 13.0003 3.75 13H9.25C9.44892 13 9.63968 12.921 9.78033 12.7803C9.92098 12.6397 10 12.4489 10 12.25C10 12.0511 9.92098 11.8603 9.78033 11.7197C9.63968 11.579 9.44892 11.5 9.25 11.5H5.56L12.78 4.28Z" fill="black"/>
</svg>
