<svg xmlns="http://www.w3.org/2000/svg" width="16" height="16" fill="currentColor" viewBox="0 0 16 16">
  <path fill-rule="evenodd" d="M15 3.25A2.25 2.25 0 0 0 12.75 1h-9.5A2.25 2.25 0 0 0 1 3.25v11a.75.75 0 0 0 1.26.55l2.801-2.6a.75.75 0 0 1 .51-.2h7.179A2.249 2.249 0 0 0 15 9.75v-6.5Zm-2.25-.75a.75.75 0 0 1 .75.75v6.5a.75.75 0 0 1-.75.75H5.572a2.25 2.25 0 0 0-1.531.6L2.5 12.53V3.25a.75.75 0 0 1 .75-.75h9.5Z" clip-rule="evenodd"/>
  <path d="M5 7.5a1 1 0 1 0 0-2 1 1 0 0 0 0 2Zm3 0a1 1 0 1 0 0-2 1 1 0 0 0 0 2Zm4-1a1 1 0 1 1-2 0 1 1 0 0 1 2 0Z"/>
</svg>
