<svg xmlns="http://www.w3.org/2000/svg" width="16" height="16" fill="currentColor" viewBox="0 0 16 16">
  <path fill-rule="evenodd" d="M5.75 4c0-.874.303-1.468.702-1.845A2.25 2.25 0 0 1 8 1.563a2.25 2.25 0 0 1 1.547.592c.4.377.703.97.703 1.845h-4.5Zm-1.5 0h-.403a1 1 0 0 0-.986.836l-1.376 8.253A2.5 2.5 0 0 0 3.951 16h8.098a2.5 2.5 0 0 0 2.466-2.911l-1.376-8.253A1 1 0 0 0 12.153 4h-.403c0-1.25-.447-2.25-1.173-2.936A3.75 3.75 0 0 0 8 .062a3.75 3.75 0 0 0-2.578 1.002C4.697 1.75 4.25 2.75 4.25 4Zm-1.285 9.336L4.27 5.5h7.458l1.306 7.836a1 1 0 0 1-.986 1.164H3.95a1 1 0 0 1-.986-1.164Z" clip-rule="evenodd"/>
</svg>
