<svg xmlns="http://www.w3.org/2000/svg" width="16" height="16" fill="currentColor" viewBox="0 0 16 16">
  <path fill-rule="evenodd" d="M0 8a8 8 0 1 1 16 0A8 8 0 0 1 0 8Zm8.197-3.477a1.532 1.532 0 0 0-1.051.196c-.318.19-.563.49-.687.85a.75.75 0 0 1-1.418-.49 3.1 3.1 0 0 1 1.335-1.648 3.032 3.032 0 0 1 2.079-.386 3.057 3.057 0 0 1 1.829 1.065 3.13 3.13 0 0 1 .716 2c0 .487-.092.905-.275 1.266-.182.36-.431.62-.679.817-.193.155-.408.29-.579.397l-.098.061a2.5 2.5 0 0 0-.452.34.643.643 0 0 0-.172.292.75.75 0 0 1-1.499-.033c0-.163.035-.324.086-.479.08-.243.232-.543.515-.832.239-.243.505-.419.72-.554.044-.029.086-.056.126-.08.169-.106.296-.186.415-.282a.976.976 0 0 0 .279-.323c.059-.117.113-.296.113-.59v-.002a1.63 1.63 0 0 0-.372-1.04c-.24-.29-.57-.482-.931-.545Zm-.904 6.77A1 1 0 0 1 8 11h.007a1 1 0 0 1 0 2H8a1 1 0 0 1-.707-1.707Z" clip-rule="evenodd"/>
</svg>
