<svg xmlns="http://www.w3.org/2000/svg" width="16" height="16" fill="currentColor" viewBox="0 0 16 16">
  <path fill-rule="evenodd" d="M6.203 1.343c.527-1.79 3.067-1.79 3.594 0l.094.312a.852.852 0 0 0 .883.625.842.842 0 0 0 .367-.093l.297-.157c1.64-.893 3.433.892 2.54 2.532l-.165.297a.885.885 0 0 0-.101.375.848.848 0 0 0 .062.375.887.887 0 0 0 .563.5l.32.094c1.79.527 1.79 3.067 0 3.594l-.32.094a.868.868 0 0 0-.336.188.872.872 0 0 0-.227.312.894.894 0 0 0 .039.75l.164.297c.895 1.64-.899 3.44-2.539 2.547l-.297-.172a.843.843 0 0 0-.367-.093.882.882 0 0 0-.383.062.85.85 0 0 0-.5.563l-.094.312c-.527 1.79-3.067 1.79-3.594 0l-.094-.312A.9.9 0 0 0 5.922 14a.88.88 0 0 0-.696-.281.876.876 0 0 0-.375.093l-.289.172c-1.64.895-3.432-.907-2.54-2.547l.157-.297a.818.818 0 0 0 .101-.36.917.917 0 0 0-.062-.39.852.852 0 0 0-.563-.5l-.312-.094c-1.79-.527-1.79-3.067 0-3.594l.312-.094a.853.853 0 0 0 .625-.875.885.885 0 0 0-.101-.375l-.156-.297c-.894-1.64.899-3.44 2.539-2.547l.29.172a.876.876 0 0 0 .374.093A.882.882 0 0 0 5.921 2a.899.899 0 0 0 .188-.344l.094-.312ZM8 11a3 3 0 1 0 0-6 3 3 0 0 0 0 6Z" clip-rule="evenodd"/>
</svg>
