<svg xmlns="http://www.w3.org/2000/svg" width="16" height="16" fill="currentColor" viewBox="0 0 16 16">
  <path fill-rule="evenodd" d="M.72 1.72a.75.75 0 0 1 .53-.22h1.154a2.25 2.25 0 0 1 2.207 1.813l.037.187h8.805a2.25 2.25 0 0 1 2.213 2.652l-.727 4A2.25 2.25 0 0 1 12.725 12H6.63a2.25 2.25 0 0 1-2.211-1.833l-.405-2.15-.874-4.413A.75.75 0 0 0 2.404 3H1.25a.75.75 0 0 1-.53-1.28Z" clip-rule="evenodd"/>
  <path d="M6.25 15a1.25 1.25 0 0 0 0-2.5h-.01a1.25 1.25 0 0 0 0 2.5h.01Zm6.5 0a1.25 1.25 0 0 0 0-2.5h-.01a1.25 1.25 0 0 0 0 2.5h.01Z"/>
</svg>
