<svg xmlns="http://www.w3.org/2000/svg" width="24" height="24" fill="currentColor" viewBox="0 0 24 24">
  <path fill-rule="evenodd" d="M8.989 4.051a8.499 8.499 0 0 0-5.456 7.199h3.619c.08-2.341.536-4.476 1.255-6.095.176-.395.37-.765.582-1.104M12 2a10 10 0 1 0 0 20 10 10 0 0 0 0-20m0 1.5c-.324 0-.689.144-1.084.52-.398.38-.792.964-1.138 1.744-.621 1.398-1.045 3.318-1.125 5.486h6.694c-.08-2.168-.504-4.088-1.125-5.486-.346-.78-.74-1.364-1.138-1.744-.395-.375-.76-.52-1.084-.52m4.848 7.75c-.08-2.341-.536-4.476-1.255-6.095a8.838 8.838 0 0 0-.582-1.104 8.499 8.499 0 0 1 5.456 7.199zm-1.5 1.5H8.652c.08 2.168.504 4.088 1.125 5.486.346.78.74 1.364 1.138 1.744.395.375.76.52 1.084.52s.689-.145 1.084-.52c.398-.38.792-.964 1.138-1.744.621-1.398 1.045-3.318 1.125-5.486Zm-.337 7.199c.213-.339.406-.71.582-1.104.72-1.619 1.175-3.754 1.255-6.095h3.619a8.5 8.5 0 0 1-5.456 7.199m-6.022 0a8.843 8.843 0 0 1-.582-1.104c-.72-1.619-1.175-3.754-1.255-6.095H3.533a8.5 8.5 0 0 0 5.456 7.199"/>
</svg>
