<svg xmlns="http://www.w3.org/2000/svg" width="16" height="16" fill="none" viewBox="0 0 16 16">
  <path fill="currentColor" d="M6.75 8c-.19891 0-.38968.07902-.53033.21967S6 8.55109 6 8.75s.07902.38968.21967.53033S6.55109 9.5 6.75 9.5h2.5c.19891 0 .38968-.07902.53033-.21967S10 8.94891 10 8.75s-.07902-.38968-.21967-.53033S9.44891 8 9.25 8z"/>
  <path fill="currentColor" fill-rule="evenodd" d="M2.1e-7 2.75C2.1e-7 1.784.784 1 1.75 1h12.5c.966 0 1.75.784 1.75 1.75v1.5c0 .698-.409 1.3-1 1.582v6.918c0 .5967-.2371 1.169-.659 1.591-.422.4219-.9943.659-1.591.659h-9.5c-.59674 0-1.16903-.2371-1.59099-.659C1.23705 13.919 1 13.3467 1 12.75V5.832c-.299341-.14199-.552226-.36604-.72925-.64609"/>
</svg>
