<svg xmlns="http://www.w3.org/2000/svg" width="16" height="16" fill="none" viewBox="0 0 16 16">
  <path fill="currentColor" d="M6.75 8c-.19891 0-.38968.07902-.53033.21967C6.07902 8.36032 6 8.55109 6 8.75c0 .19891.07902.38968.21967.53033.14065.14065.33142.21967.53033.21967h2.5c.19891 0 .38968-.07902.53033-.21967C9.92098 9.13968 10 8.94891 10 8.75c0-.19891-.07902-.38968-.21967-.53033C9.63968 8.07902 9.44891 8 9.25 8h-2.5Z"/>
  <path fill="currentColor" fill-rule="evenodd" d="M2.1e-7 2.75C2.1e-7 1.784.784 1 1.75 1h12.5c.966 0 1.75.784 1.75 1.75v1.5c0 .698-.409 1.3-1 1.582v6.918c0 .5967-.2371 1.169-.659 1.591-.422.4219-.9943.659-1.591.659h-9.5c-.59674 0-1.16903-.2371-1.59099-.659C1.23705 13.919 1 13.3467 1 12.75V5.832c-.299341-.14199-.552226-.36604-.72925-.64609C.0937262 4.90586-.0001628 4.58131 2.1e-7 4.25v-1.5ZM13.5 12.75V6h-11v6.75c0 .414.336.75.75.75h9.5c.1989 0 .3897-.079.5303-.2197.1407-.1406.2197-.3314.2197-.5303Zm1-8.5c0 .0663-.0263.12989-.0732.17678-.0469.04688-.1105.07322-.1768.07322H1.75c-.0663 0-.12989-.02634-.17678-.07322C1.52634 4.37989 1.5 4.3163 1.5 4.25v-1.5c0-.0663.02634-.12989.07322-.17678C1.62011 2.52634 1.6837 2.5 1.75 2.5h12.5c.0663 0 .1299.02634.1768.07322.0469.04689.0732.11048.0732.17678v1.5Z"/>
</svg>
