<svg xmlns="http://www.w3.org/2000/svg" width="16" height="16" fill="none" viewBox="0 0 16 16">
  <path fill="currentColor" d="M3.22009 4.28c-.13248-.14218-.2046-.33022-.20117-.52452.00342-.1943.08214-.37969.21955-.5171.13741-.13742.3228-.21613.5171-.21956.1943-.00342.38235.0687.52452.20118l7.22001 7.22V6.75c0-.19891.079-.38968.2197-.53033.1406-.14065.3314-.21967.5303-.21967.1989 0 .3897.07902.5303.21967.1407.14065.2197.33142.2197.53033v5.5c.0004.0986-.0187.1963-.0563.2875-.0375.0912-.0928.174-.1625.2437-.0697.0697-.1526.125-.2437.1625-.0912.0376-.1889.0567-.2875.0563H6.75009c-.19891 0-.38968-.079-.53033-.2197-.14065-.1406-.21967-.3314-.21967-.5303 0-.1989.07902-.3897.21967-.5303.14065-.1407.33142-.2197.53033-.2197h3.69001L3.22009 4.28Z"/>
</svg>
