<svg xmlns="http://www.w3.org/2000/svg" width="16" height="16" fill="none" viewBox="0 0 16 16">
  <path fill="currentColor" d="M8.49988 2.75c0-.19891-.07901-.38968-.21967-.53033C8.13956 2.07902 7.9488 2 7.74988 2c-.19891 0-.38967.07902-.53033.21967-.14065.14065-.21967.33142-.21967.53033v8.614l-2.955-3.129c-.13771-.13971-.32468-.21991-.52082-.22339-.19615-.00348-.38585.07002-.52843.20476-.14259.13474-.22671.31998-.23432.516-.00762.19603.06187.38724.19357.53263l4.248 4.498c.00815.0088.01649.0175.025.026.13699.1325.31944.2076.51.21l.012.001h.012c.10006-.0015.19879-.023.29035-.0634s.17408-.0987.24265-.1716l4.25002-4.5c.1317-.14539.2012-.3366.1936-.53263-.0077-.19602-.0918-.38126-.2344-.516-.1425-.13474-.3322-.20824-.5284-.20476-.1961.00348-.3831.08368-.5208.22339l-2.95502 3.129V2.75Z"/>
</svg>
