<svg xmlns="http://www.w3.org/2000/svg" width="16" height="16" fill="none" viewBox="0 0 16 16">
  <path fill="currentColor" d="M8.235 4.045c-.07398-.06702-.13384-.14813-.17607-.23858-.04223-.09045-.06598-.18842-.06986-.28816-.00387-.09975.0122-.19927.04729-.29272.03508-.09346.08847-.17897.15703-.25152.06856-.07255.15091-.13069.24223-.171.09132-.04032.18977-.06199.28957-.06377.09981-.00177.19897.0164.29166.05345.09269.03704.17706.09222.24815.1623l4.5 4.25c.0741.07009.1332.15458.1736.24829.0403.09371.0612.19467.0612.29671 0 .10203-.0209.20299-.0612.2967-.0404.09371-.0995.1782-.1736.2483l-4.5 4.25c-.14539.1317-.3366.2012-.53263.1936-.19602-.0076-.38126-.0918-.516-.2343-.13474-.1426-.20824-.3323-.20476-.5285.00348-.1961.08368-.3831.22339-.5208L11.364 8.5H2.75c-.19891 0-.38968-.07902-.53033-.21968C2.07902 8.13967 2 7.94891 2 7.75c0-.19892.07902-.38968.21967-.53033C2.36032 7.07901 2.55109 7 2.75 7h8.614L8.235 4.045Z"/>
</svg>
