<svg xmlns="http://www.w3.org/2000/svg" width="16" height="16" fill="none" viewBox="0 0 16 16">
  <path fill="currentColor" d="M4.045 7.765c-.06702.07398-.14813.13384-.23858.17607-.09045.04223-.18842.06598-.28816.06986-.09975.00387-.19927-.0122-.29272-.04729-.09346-.03508-.17897-.08847-.25152-.15703-.07255-.06855-.13069-.15091-.171-.24223-.04032-.09132-.06199-.18977-.06377-.28957-.00177-.09981.0164-.19896.05345-.29166.03704-.09269.09222-.17706.1623-.24815l4.25-4.5c.07009-.07414.15458-.13321.24829-.17357.09371-.04037.19467-.06119.29671-.06119.10203 0 .20299.02082.2967.06119.09371.04036.1782.09943.2483.17357l4.25 4.5c.1317.1454.2012.3366.1936.53263-.0076.19603-.0918.38126-.2343.516-.1426.13474-.3323.20824-.5285.20476-.1961-.00348-.3831-.08368-.5208-.22339L8.5 4.636v8.614c0 .1989-.07902.3897-.21968.5303C8.13967 13.921 7.94891 14 7.75 14c-.19892 0-.38968-.079-.53033-.2197C7.07901 13.6397 7 13.4489 7 13.25V4.636L4.045 7.765Z"/>
</svg>
