<svg xmlns="http://www.w3.org/2000/svg" width="16" height="16" fill="none" viewBox="0 0 16 16">
  <path fill="currentColor" d="M12.943 3.463c-.0565-.13722-.1526-.25451-.276-.33696-.1234-.08245-.2686-.12632-.417-.12604H6.75003c-.19891 0-.38968.07902-.53033.21967-.14065.14065-.21967.33142-.21967.53033 0 .19891.07902.38968.21967.53033.14065.14065.33142.21967.53033.21967H10.44l-7.21997 7.22c-.07369.0687-.13279.1515-.17378.2435s-.06303.1913-.06481.292c-.00178.1007.01675.2007.05447.2941.03772.0934.09386.1782.16508.2494.07122.0713.15606.1274.24944.1651.09339.0377.19342.0563.29412.0545.10071-.0018.20002-.0238.29202-.0648.092-.041.1748-.1001.24346-.1738L11.5 5.56v3.69c0 .19891.079.38968.2197.53033.1407.14065.3314.21967.5303.21967.1989 0 .3897-.07902.5304-.21967C12.921 9.63968 13 9.44891 13 9.25v-5.5c.0001-.09849-.0192-.19603-.057-.287Z"/>
</svg>
