<svg xmlns="http://www.w3.org/2000/svg" width="16" height="16" fill="none" viewBox="0 0 16 16">
  <path fill="currentColor" d="M8.53 4.22a.75.75 0 0 0-1.28.53V6H6a.75.75 0 0 0 0 1.5h1.25v1.25a.75.75 0 0 0 1.5 0V7.5H10A.75.75 0 1 0 10 6H8.75V4.75a.75.75 0 0 0-.22-.53Z"/>
  <path fill="currentColor" fill-rule="evenodd" d="M2.659 1.659A2.25 2.25 0 0 0 2 3.25v10.83a1 1 0 0 0 1.479.878l4.403-2.394a.25.25 0 0 1 .238 0l4.402 2.394A1 1 0 0 0 14 14.08V3.25A2.25 2.25 0 0 0 11.75 1h-7.5a2.25 2.25 0 0 0-1.591.659Zm1.06 1.06A.75.75 0 0 1 4.25 2.5h7.5a.75.75 0 0 1 .75.75v9.989l-3.664-1.992a1.75 1.75 0 0 0-1.672 0L3.5 13.239V3.25a.75.75 0 0 1 .22-.53Z"/>
</svg>
