<svg xmlns="http://www.w3.org/2000/svg" width="16" height="16" fill="currentColor" viewBox="0 0 16 16">
  <path d="M13.5 12.75v-9.5a.75.75 0 0 0-.75-.75h-9.5a.75.75 0 0 0-.75.75v3a.75.75 0 0 1-1.5 0v-3A2.25 2.25 0 0 1 3.25 1h9.5A2.25 2.25 0 0 1 15 3.25v9.5A2.25 2.25 0 0 1 12.75 15h-3a.75.75 0 0 1 0-1.5h3a.75.75 0 0 0 .75-.75"/>
  <path d="M1.857 8.508a.75.75 0 1 0-.166 1.49 4.91 4.91 0 0 1 4.338 4.338.75.75 0 1 0 1.49-.166 6.41 6.41 0 0 0-5.662-5.662"/>
  <path d="M1.924 11.065a.75.75 0 1 0-.3 1.47 2.393 2.393 0 0 1 1.868 1.868.75.75 0 0 0 1.47-.3 3.894 3.894 0 0 0-3.038-3.038"/>
</svg>
