<svg xmlns="http://www.w3.org/2000/svg" width="16" height="16" fill="currentColor" viewBox="0 0 16 16">
  <path fill-rule="evenodd" d="M11.975 1h.775A2.25 2.25 0 0 1 15 3.25v10.5A2.25 2.25 0 0 1 12.75 16h-9.5A2.25 2.25 0 0 1 1 13.75V3.25A2.25 2.25 0 0 1 3.25 1h.775c.116-.57.62-1 1.225-1h5.5c.605 0 1.11.43 1.225 1M4 2.5h-.75a.75.75 0 0 0-.75.75v10.5c0 .414.336.75.75.75h9.5a.75.75 0 0 0 .75-.75V3.25a.75.75 0 0 0-.75-.75H12v.75c0 .69-.56 1.25-1.25 1.25h-5.5C4.56 4.5 4 3.94 4 3.25zm1.5.5V1.5h5V3z"/>
  <path d="M12 6.75a.75.75 0 0 0-.751-.75.75.75 0 0 0-.531.22l-3.98 3.97-1.474-1.47A.753.753 0 0 0 4 9.256a.75.75 0 0 0 .202.524l2.005 2a.753.753 0 0 0 1.062 0l4.511-4.5a.75.75 0 0 0 .22-.53"/>
</svg>
