<svg xmlns="http://www.w3.org/2000/svg" width="16" height="16" fill="currentColor" viewBox="0 0 16 16">
  <path fill-rule="evenodd" d="M11 8a3 3 0 1 1-6 0 3 3 0 0 1 6 0M9.5 8a1.5 1.5 0 1 1-3 0 1.5 1.5 0 0 1 3 0"/>
  <path fill-rule="evenodd" d="M10.079 2a.898.898 0 0 1-.188-.345l-.094-.312c-.527-1.79-3.067-1.79-3.594 0l-.094.312A.899.899 0 0 1 5.922 2a.882.882 0 0 1-.696.281.876.876 0 0 1-.375-.093l-.289-.172c-1.64-.892-3.433.908-2.54 2.547l.157.297a.885.885 0 0 1 .101.375.853.853 0 0 1-.625.875l-.312.094c-1.79.527-1.79 3.067 0 3.594l.312.094a.852.852 0 0 1 .563.5c.05.12.07.26.062.39a.818.818 0 0 1-.101.36l-.156.297c-.893 1.64.899 3.441 2.539 2.547l.29-.172a.876.876 0 0 1 .374-.093.88.88 0 0 1 .695.281.9.9 0 0 1 .188.344l.094.312c.527 1.79 3.067 1.79 3.594 0l.094-.312a.85.85 0 0 1 .5-.563c.12-.05.253-.07.383-.062.13.006.253.031.367.093l.297.172c1.64.894 3.434-.908 2.54-2.547l-.165-.297a.818.818 0 0 1-.101-.36.918.918 0 0 1 .062-.39c.05-.12.13-.226.227-.313a.868.868 0 0 1 .336-.187l.32-.094c1.79-.527 1.79-3.067 0-3.594l-.32-.094A.868.868 0 0 1 14 5.922a.874.874 0 0 1-.227-.313.848.848 0 0 1-.062-.375c.007-.13.04-.26.101-.375l.164-.297c.894-1.64-.9-3.425-2.539-2.532l-.297.157a.842.842 0 0 1-.367.093.852.852 0 0 1-.695-.281Zm-1.85-.434c.042.029.094.08.13.2l.094.317a2.353 2.353 0 0 0 2.4 1.695 2.34 2.34 0 0 0 .994-.268l.3-.157.009-.006c.111-.06.186-.06.237-.051a.396.396 0 0 1 .206.113.39.39 0 0 1 .112.202c.009.048.01.121-.05.23l-.16.292-.005.008a2.392 2.392 0 0 0-.107 2.042c.148.359.373.642.61.854.263.237.575.411.914.511l.322.094c.119.035.17.087.2.13A.403.403 0 0 1 14.5 8a.403.403 0 0 1-.066.229c-.029.042-.081.094-.2.13l-.318.092-.003.001c-.339.1-.65.274-.915.51a2.371 2.371 0 0 0-.61.855 2.416 2.416 0 0 0-.174 1.044c.019.352.112.685.282.998l.166.3a.344.344 0 0 1 .05.233.407.407 0 0 1-.116.21.402.402 0 0 1-.208.116.332.332 0 0 1-.22-.043l-.292-.17-.017-.009a2.338 2.338 0 0 0-1.006-.274 2.352 2.352 0 0 0-2.4 1.695l-.093.31-.002.007c-.035.12-.087.171-.13.2A.403.403 0 0 1 8 14.5a.403.403 0 0 1-.229-.066c-.042-.029-.094-.08-.13-.2l-.094-.318a2.396 2.396 0 0 0-.51-.918 2.38 2.38 0 0 0-1.89-.776 2.37 2.37 0 0 0-1.013.274l-.025.014-.283.168a.323.323 0 0 1-.214.04.4.4 0 0 1-.207-.114.408.408 0 0 1-.116-.211.35.35 0 0 1 .051-.238l.005-.01.157-.298c.166-.309.258-.638.276-.986a2.415 2.415 0 0 0-.174-1.044 2.353 2.353 0 0 0-1.52-1.364l-.31-.093-.008-.002c-.12-.035-.171-.087-.2-.13A.403.403 0 0 1 1.5 8c0-.096.029-.176.066-.229.029-.042.08-.094.2-.13l.317-.094a2.353 2.353 0 0 0 1.695-2.392 2.385 2.385 0 0 0-.276-1.002l-.157-.3-.005-.009c-.06-.11-.06-.184-.051-.236a.407.407 0 0 1 .116-.21.402.402 0 0 1 .207-.116.329.329 0 0 1 .215.041l.282.167.025.014c.385.21.763.261 1.013.274a2.38 2.38 0 0 0 1.89-.776c.255-.284.418-.61.51-.919l.093-.31.002-.007c.035-.12.087-.171.13-.2A.403.403 0 0 1 8 1.5c.096 0 .176.029.229.066Z"/>
</svg>
