<svg xmlns="http://www.w3.org/2000/svg" width="16" height="16" fill="currentColor" viewBox="0 0 16 16">
  <path fill-rule="evenodd" d="M5.26 2.106A6.498 6.498 0 0 0 1.543 7.25h2.501c.078-1.79.434-3.426.992-4.68.07-.16.145-.315.224-.464M8 0a8 8 0 1 0 0 16A8 8 0 0 0 8 0m0 1.5c-.201 0-.449.089-.737.363-.293.278-.59.716-.856 1.315-.461 1.038-.784 2.458-.861 4.072h4.908c-.077-1.614-.4-3.034-.86-4.072-.267-.599-.564-1.037-.857-1.315C8.45 1.59 8.201 1.5 8 1.5m3.956 5.75c-.078-1.79-.434-3.426-.992-4.68a7.762 7.762 0 0 0-.224-.464 6.5 6.5 0 0 1 3.717 5.144zm-1.502 1.5H5.546c.077 1.614.4 3.034.86 4.072.267.599.564 1.037.857 1.315.288.274.536.363.737.363.201 0 .449-.088.737-.363.293-.278.59-.716.856-1.315.461-1.038.784-2.458.861-4.072m.286 5.144c.079-.15.153-.304.224-.463.558-1.255.914-2.89.992-4.681h2.5a6.5 6.5 0 0 1-3.716 5.144m-5.48 0a7.716 7.716 0 0 1-.224-.463c-.558-1.255-.914-2.89-.992-4.681h-2.5a6.5 6.5 0 0 0 3.716 5.144"/>
</svg>
