<svg xmlns="http://www.w3.org/2000/svg" width="16" height="16" fill="currentColor" viewBox="0 0 16 16">
  <path fill-rule="evenodd" d="M5.02 2.225c-2.022 0-3.52 1.967-3.52 3.948 0 .951.37 1.903.988 2.824.617.92 1.456 1.77 2.322 2.5.864.728 1.734 1.32 2.397 1.73.327.203.6.359.793.463.193-.104.466-.26.793-.462a20.657 20.657 0 0 0 2.397-1.73c.866-.73 1.705-1.58 2.322-2.5.618-.922.988-1.874.988-2.825 0-1.981-1.498-3.948-3.52-3.948-1.097 0-1.857.755-2.41 1.403a.75.75 0 0 1-1.14 0c-.553-.648-1.313-1.403-2.41-1.403M0 6.173C0 3.619 1.934.725 5.02.725c1.349 0 2.332.689 2.98 1.315.648-.626 1.631-1.315 2.98-1.315C14.067.725 16 3.619 16 6.173c0 1.344-.52 2.585-1.242 3.66-.722 1.076-1.671 2.028-2.601 2.812a22.17 22.17 0 0 1-2.575 1.859 17.71 17.71 0 0 1-.877.51 7.239 7.239 0 0 1-.382.191 1.057 1.057 0 0 1-.139.047c-.02.005-.091.023-.184.023s-.165-.018-.184-.022a.791.791 0 0 1-.139-.048 7.239 7.239 0 0 1-.382-.191c-.22-.119-.522-.291-.877-.51a22.163 22.163 0 0 1-2.575-1.86c-.93-.783-1.88-1.735-2.601-2.811C.52 8.758 0 7.517 0 6.173"/>
</svg>
