<svg xmlns="http://www.w3.org/2000/svg" width="16" height="16" fill="none" viewBox="0 0 16 16">
  <path fill="currentColor" fill-rule="evenodd" d="M2.65901.65901C3.08097.237053 3.65326 0 4.25 0h7.5c.5967 0 1.169.237053 1.591.65901.4219.42196.659.99425.659 1.59099v11.5c0 .5967-.2371 1.169-.659 1.591-.422.4219-.9943.659-1.591.659h-7.5c-.59674 0-1.16903-.2371-1.59099-.659C2.23705 14.919 2 14.3467 2 13.75V2.25c0-.59674.23705-1.16903.65901-1.59099m1.06066 1.06066C3.57902 1.86032 3.5 2.05109 3.5 2.25v11.5c0 .1989.07902.3897.21967.5303.14065.1407.33142.2197.53033.2197h7.5c.1989 0 .3897-.079.5303-.2197.1407-.1406.2197-.3314.2197-.5303V2.25c0-.19891-.079-.38968-.2197-.53033C12.1397 1.57902 11.9489 1.5 11.75 1.5h-7.5c-.19891 0-.38968.07902-.53033.21967"/>
  <path fill="currentColor" d="M5.74976 3c-.19892 0-.38968.07902-.53033.21967-.14066.14065-.21967.33142-.21967.53033s.07901.38968.21967.53033c.14065.14065.33141.21967.53033.21967h4.50004c.1989 0 .3896-.07902.5303-.21967.1406-.14065.2196-.33142.2196-.53033s-.079-.38968-.2196-.53033C10.6394 3.07902 10.4487 3 10.2498 3zm-.53033 3.21967C5.36008 6.07902 5.55084 6 5.74976 6h4.50004c.1989 0 .3896.07902.5303.21967.1406.14065.2196.33142.2196.53033s-.079.38968-.2196.53033c-.1407.14065-.3314.21967-.5303.21967H5.74976c-.19892 0-.38968-.07902-.53033-.21967-.14066-.14065-.21967-.33142-.21967-.53033s.07901-.38968.21967-.53033M5.74976 9c-.19892 0-.38968.07902-.53033.21967-.14066.14065-.21967.33142-.21967.53033s.07901.3897.21967.5303c.14065.1407.33141.2197.53033.2197h2c.19891 0 .38968-.079.53033-.2197.14065-.1406.21967-.33139.21967-.5303s-.07902-.38968-.21967-.53033S7.94867 9 7.74976 9z"/>
</svg>
