<svg xmlns="http://www.w3.org/2000/svg" width="16" height="16" fill="currentColor" viewBox="0 0 16 16">
  <path fill-rule="evenodd" d="M4.87 1.671a.71.71 0 0 0-.469-.171H2.208a.712.712 0 0 0-.671.48.702.702 0 0 0-.034.284 13.627 13.627 0 0 0 2.12 5.972c1.175 1.81 2.348 2.976 4.153 4.145a13.698 13.698 0 0 0 5.957 2.117.711.711 0 0 0 .767-.706v-.071c-.002-.371-.009-1.792 0-2.134a.703.703 0 0 0-.606-.715 10.12 10.12 0 0 1-2.209-.55h-.002a.71.71 0 0 0-.746.158h-.002l-.923.922a.75.75 0 0 1-.9.121 12.403 12.403 0 0 1-4.655-4.646.75.75 0 0 1 .122-.902l.924-.923a.704.704 0 0 0 .158-.742 10.08 10.08 0 0 1-.551-2.205.704.704 0 0 0-.24-.433zM4.39.001a2.21 2.21 0 0 1 2.205 1.895v.007a8.63 8.63 0 0 0 .47 1.88l-.001-.001a2.202 2.202 0 0 1-.497 2.327l-.003.003-.51.509a10.903 10.903 0 0 0 3.314 3.306l.514-.514a2.21 2.21 0 0 1 2.327-.496c.609.226 1.24.384 1.884.468l.007.001a2.21 2.21 0 0 1 1.9 2.239q-.0075 1.08 0 2.16a2.202 2.202 0 0 1-2.407 2.206l-.014-.001a15.196 15.196 0 0 1-6.618-2.35c-1.981-1.282-3.306-2.6-4.596-4.587A15.131 15.131 0 0 1 .01 2.416v-.012A2.202 2.202 0 0 1 2.207 0H4.39z"/>
</svg>
