<svg xmlns="http://www.w3.org/2000/svg" width="16" height="16" fill="none" viewBox="0 0 16 16">
  <path fill="currentColor" d="M7 10.9999c0-.2652.10536-.5195.29289-.7071.18754-.1875.44189-.29286.70711-.29286h.007c.26522 0 .51957.10536.70711.29286.18753.1876.29289.4419.29289.7071 0 .2653-.10536.5196-.29289.7071-.18754.1876-.44189.2929-.70711.2929H8c-.26522 0-.51957-.1053-.70711-.2929C7.10536 11.5195 7 11.2652 7 10.9999m1.75-6.24996c0-.19891-.07902-.38968-.21967-.53033-.14065-.14065-.33142-.21967-.53033-.21967-.19891 0-.38968.07902-.53033.21967-.14065.14065-.21967.33142-.21967.53033v3.5c0 .19891.07902.38968.21967.53033.14065.14065.33142.21967.53033.21967.19891 0 .38968-.07902.53033-.21967.14065-.14065.21967-.33142.21967-.53033z"/>
  <path fill="currentColor" fill-rule="evenodd" d="M7.26.212939c.47922-.166894 1.00078-.166894 1.48 0l4.75 1.653001c.4411.15363.8235.44076 1.0941.82154.2706.38078.4159.83633.4159 1.30346v4.01c0 2.04796-1.181 3.74696-2.45 4.99096-1.282 1.255-2.757 2.15-3.573 2.598-.29923.165-.63533.2515-.977.2515-.34167 0-.67777-.0865-.977-.2515-.816-.447-2.291-1.342-3.572-2.598C2.18 11.7479 1 10.0499 1 7.99994v-4.009c0-.957.606-1.81 1.51-2.125zm.986 1.417001c-.15964-.05555-.33336-.05555-.493 0l-4.75 1.653c-.14693.05125-.27428.14693-.36441.27378-.09012.12686-.13856.27861-.13859.43422v4.01c0 1.455.847 2.78996 2 3.91996 1.142 1.118 2.483 1.937 3.244 2.353.163.09.35.09.512 0 .761-.416 2.102-1.235 3.244-2.353 1.153-1.13 2-2.46496 2-3.91996v-4.011c-.0001-.15573-.0487-.30757-.139-.43444-.0903-.12687-.2179-.22248-.365-.27356z"/>
</svg>
