<svg width="24" height="24" viewBox="0 0 24 24" fill="none" xmlns="http://www.w3.org/2000/svg">
<path d="M18.78 6.28C18.9125 6.13782 18.9846 5.94978 18.9812 5.75548C18.9777 5.56118 18.899 5.37579 18.7616 5.23838C18.6242 5.10096 18.4388 5.02225 18.2445 5.01882C18.0502 5.0154 17.8622 5.08752 17.72 5.22L6.5 16.44V8.75C6.5 8.55109 6.42098 8.36032 6.28033 8.21967C6.13968 8.07902 5.94891 8 5.75 8C5.55109 8 5.36032 8.07902 5.21967 8.21967C5.07902 8.36032 5 8.55109 5 8.75V18.25C4.99969 18.4483 5.0781 18.6385 5.218 18.779L5.22 18.78L5.221 18.782C5.36148 18.9219 5.55175 19.0003 5.75 19H15.25C15.4489 19 15.6397 18.921 15.7803 18.7803C15.921 18.6397 16 18.4489 16 18.25C16 18.0511 15.921 17.8603 15.7803 17.7197C15.6397 17.579 15.4489 17.5 15.25 17.5H7.56L18.78 6.28Z" fill="black"/>
</svg>
