<svg width="24" height="24" viewBox="0 0 24 24" fill="none" xmlns="http://www.w3.org/2000/svg">
<path d="M12.229 5.03999C12.0858 4.90182 12.0033 4.71241 11.9998 4.51343C11.9962 4.31445 12.0718 4.12221 12.21 3.97899C12.3482 3.83578 12.5376 3.75332 12.7366 3.74975C12.9355 3.74619 13.1278 3.82182 13.271 3.95999L20.771 11.21C20.8436 11.28 20.9013 11.3638 20.9408 11.4566C20.9802 11.5494 21.0005 11.6492 21.0005 11.75C21.0005 11.8508 20.9802 11.9506 20.9408 12.0434C20.9013 12.1362 20.8436 12.22 20.771 12.29L13.271 19.54C13.2001 19.6084 13.1164 19.6622 13.0247 19.6983C12.933 19.7343 12.8351 19.752 12.7366 19.7502C12.638 19.7485 12.5408 19.7273 12.4505 19.688C12.3601 19.6487 12.2784 19.5919 12.21 19.521C12.1416 19.4501 12.0878 19.3664 12.0517 19.2747C12.0157 19.183 11.998 19.0851 11.9998 18.9866C12.0015 18.888 12.0227 18.7908 12.062 18.7005C12.1013 18.6101 12.1581 18.5284 12.229 18.46L18.395 12.5H3.75C3.55109 12.5 3.36032 12.421 3.21967 12.2803C3.07902 12.1397 3 11.9489 3 11.75C3 11.5511 3.07902 11.3603 3.21967 11.2197C3.36032 11.079 3.55109 11 3.75 11H18.395L12.229 5.03999Z" fill="black"/>
</svg>
